<svg width="133" height="51" viewBox="0 0 133 51" fill="none" xmlns="http://www.w3.org/2000/svg">
<path d="M126.972 37.4253C126.923 36.8116 126.693 36.3328 126.281 35.9891C125.876 35.6454 125.259 35.4736 124.431 35.4736C123.903 35.4736 123.47 35.538 123.133 35.6669C122.801 35.7896 122.556 35.9584 122.396 36.1732C122.237 36.3881 122.154 36.6336 122.148 36.9098C122.135 37.1369 122.175 37.3425 122.267 37.5266C122.365 37.7046 122.519 37.8672 122.728 38.0145C122.936 38.1557 123.203 38.2846 123.529 38.4012C123.854 38.5178 124.241 38.6222 124.689 38.7142L126.235 39.0457C127.279 39.2666 128.172 39.5582 128.914 39.9203C129.657 40.2824 130.265 40.709 130.737 41.2C131.21 41.6849 131.557 42.2311 131.778 42.8388C132.005 43.4464 132.121 44.1092 132.127 44.8274C132.121 46.0672 131.811 47.1167 131.198 47.976C130.584 48.8352 129.706 49.4889 128.565 49.937C127.429 50.385 126.063 50.609 124.468 50.609C122.829 50.609 121.399 50.3666 120.177 49.8817C118.962 49.3968 118.017 48.6511 117.342 47.6445C116.673 46.6318 116.335 45.3368 116.329 43.7594H121.19C121.221 44.3363 121.365 44.8212 121.623 45.214C121.881 45.6068 122.243 45.9045 122.709 46.1071C123.182 46.3096 123.743 46.4109 124.394 46.4109C124.94 46.4109 125.398 46.3434 125.766 46.2083C126.134 46.0733 126.413 45.8861 126.604 45.6467C126.794 45.4074 126.892 45.1342 126.898 44.8274C126.892 44.5389 126.797 44.2872 126.613 44.0724C126.435 43.8515 126.14 43.6551 125.729 43.4832C125.318 43.3052 124.762 43.1395 124.063 42.9861L122.184 42.581C120.515 42.2188 119.198 41.6143 118.235 40.7673C117.277 39.9142 116.802 38.7511 116.808 37.278C116.802 36.0812 117.121 35.0347 117.765 34.1386C118.416 33.2364 119.315 32.5336 120.463 32.0303C121.617 31.527 122.939 31.2754 124.431 31.2754C125.953 31.2754 127.269 31.5301 128.38 32.0395C129.491 32.549 130.348 33.2671 130.949 34.1939C131.557 35.1145 131.864 36.1917 131.87 37.4253H126.972Z" fill="#FF7F30"/>
<path d="M101.997 50.3881V31.5332H107.116V46.2636H114.739V50.3881H101.997Z" fill="#FF7F30"/>
<path d="M86.2602 50.3881H80.7363L86.9599 31.5332H93.9569L100.18 50.3881H94.6566L90.532 36.7257H90.3847L86.2602 50.3881ZM85.2291 42.9493H95.614V46.7792H85.2291V42.9493Z" fill="#FF7F30"/>
<path d="M68.9731 31.5332L72.8398 44.8274H72.9871L76.8538 31.5332H82.6355L76.4119 50.3881H69.415L63.1914 31.5332H68.9731Z" fill="#FF7F30"/>
<path d="M61.3913 31.5332V50.3881H56.2725V31.5332H61.3913Z" fill="#FF7F30"/>
<path d="M38.9551 50.3881V31.5332H47.0936C48.493 31.5332 49.7175 31.7879 50.767 32.2973C51.8166 32.8068 52.6329 33.5402 53.2159 34.4977C53.799 35.4552 54.0906 36.6029 54.0906 37.9409C54.0906 39.2912 53.7898 40.4297 53.1883 41.3565C52.593 42.2833 51.7552 42.983 50.6749 43.4556C49.6009 43.9282 48.3457 44.1645 46.9095 44.1645H42.0485V40.1873H45.8784C46.4799 40.1873 46.9923 40.1137 47.4158 39.9664C47.8455 39.8129 48.1739 39.5705 48.4009 39.239C48.6342 38.9076 48.7508 38.4749 48.7508 37.9409C48.7508 37.4008 48.6342 36.962 48.4009 36.6244C48.1739 36.2807 47.8455 36.029 47.4158 35.8695C46.9923 35.7037 46.4799 35.6209 45.8784 35.6209H44.0739V50.3881H38.9551ZM50.0029 41.734L54.7166 50.3881H49.1559L44.5526 41.734H50.0029Z" fill="#FF7F30"/>
<path d="M21.6377 50.3881V31.5332H29.7762C31.1756 31.5332 32.4001 31.7879 33.4496 32.2973C34.4992 32.8068 35.3155 33.5402 35.8986 34.4977C36.4816 35.4552 36.7732 36.6029 36.7732 37.9409C36.7732 39.2912 36.4724 40.4297 35.8709 41.3565C35.2756 42.2833 34.4378 42.983 33.3576 43.4556C32.2835 43.9282 31.0283 44.1645 29.5921 44.1645H24.7311V40.1873H28.561C29.1625 40.1873 29.675 40.1137 30.0985 39.9664C30.5281 39.8129 30.8565 39.5705 31.0836 39.239C31.3168 38.9076 31.4334 38.4749 31.4334 37.9409C31.4334 37.4008 31.3168 36.962 31.0836 36.6244C30.8565 36.2807 30.5281 36.029 30.0985 35.8695C29.675 35.7037 29.1625 35.6209 28.561 35.6209H26.7565V50.3881H21.6377ZM32.6855 41.734L37.3992 50.3881H31.8385L27.2352 41.734H32.6855Z" fill="#FF7F30"/>
<path d="M5.90183 50.3881H0.37793L6.60152 31.5332H13.5985L19.8221 50.3881H14.2982L10.1736 36.7257H10.0263L5.90183 50.3881ZM4.8707 42.9493H15.2556V46.7792H4.8707V42.9493Z" fill="#FF7F30"/>
<path d="M75.5803 18.9467L70.0195 0.0917969H75.7276L78.3054 11.692H78.4527L81.5092 0.0917969H86.002L89.0586 11.7288H89.2059L91.7837 0.0917969H97.4917L91.931 18.9467H87.0331L83.8293 8.41447H83.682L80.4781 18.9467H75.5803Z" fill="#FF7F30"/>
<path d="M54.665 18.9467V0.0917969H68.2538V4.21631H59.7838V7.45699H67.5541V11.5815H59.7838V14.8222H68.217V18.9467H54.665Z" fill="#FF7F30"/>
<path d="M52.2436 0.0917969V18.9467H47.9718L41.159 9.04051H41.0485V18.9467H35.9297V0.0917969H40.2752L46.9775 9.96116H47.1248V0.0917969H52.2436Z" fill="#FF7F30"/>
</svg>
