<svg width="60" height="70" viewBox="0 0 60 70" fill="none" xmlns="http://www.w3.org/2000/svg">
<path d="M33.2507 55.5084V52.0361C33.2507 49.5498 33.7651 47.2778 34.7939 45.2202C35.8442 43.1411 37.366 41.48 39.3593 40.2368C41.3741 38.9722 43.8068 38.3399 46.6575 38.3399C49.5725 38.3399 52.0159 38.9615 53.9878 40.2047C55.9597 41.4478 57.4494 43.1089 58.4568 45.188C59.4856 47.2671 60 49.5498 60 52.0361V55.5084C60 57.9947 59.4856 60.2774 58.4568 62.3564C57.428 64.4141 55.9169 66.0752 53.9235 67.3398C51.9516 68.5829 49.5296 69.2045 46.6575 69.2045C43.7639 69.2045 41.3205 68.5829 39.3272 67.3398C37.3338 66.0752 35.8227 64.4141 34.7939 62.3564C33.7651 60.2774 33.2507 57.9947 33.2507 55.5084ZM40.7418 52.0361V55.5084C40.7418 57.3517 41.1812 59.0235 42.06 60.5239C42.9387 62.0242 44.4713 62.7744 46.6575 62.7744C48.8223 62.7744 50.3334 62.0242 51.1907 60.5239C52.0481 59.0235 52.4768 57.3517 52.4768 55.5084V52.0361C52.4768 50.1928 52.0588 48.521 51.2229 47.0206C50.4084 45.5202 48.8866 44.7701 46.6575 44.7701C44.5141 44.7701 42.9923 45.5202 42.0921 47.0206C41.1919 48.521 40.7418 50.1928 40.7418 52.0361ZM0.135559 17.8279V14.3556C0.135559 11.8693 0.649968 9.58657 1.67879 7.5075C2.72904 5.42843 4.25084 3.76732 6.24417 2.52416C8.25895 1.281 10.6917 0.659424 13.5424 0.659424C16.4574 0.659424 18.9008 1.281 20.8727 2.52416C22.8446 3.76732 24.3343 5.42843 25.3416 7.5075C26.349 9.58657 26.8527 11.8693 26.8527 14.3556V17.8279C26.8527 20.3142 26.3383 22.5969 25.3095 24.6759C24.3021 26.7336 22.8017 28.3947 20.8084 29.6593C18.8365 30.9024 16.4145 31.524 13.5424 31.524C10.6274 31.524 8.17321 30.9024 6.17987 29.6593C4.20797 28.3947 2.70761 26.7336 1.67879 24.6759C0.649968 22.5969 0.135559 20.3142 0.135559 17.8279ZM7.6588 14.3556V17.8279C7.6588 19.6712 8.08748 21.343 8.94483 22.8433C9.82361 24.3437 11.3561 25.0939 13.5424 25.0939C15.6857 25.0939 17.1861 24.3437 18.0435 22.8433C18.9222 21.343 19.3616 19.6712 19.3616 17.8279V14.3556C19.3616 12.5123 18.9437 10.8405 18.1077 9.34009C17.2718 7.83973 15.75 7.08954 13.5424 7.08954C11.399 7.08954 9.87719 7.83973 8.97698 9.34009C8.09819 10.8405 7.6588 12.5123 7.6588 14.3556ZM3.18987 67.8542L48.4579 2.00975H56.1419L10.8739 67.8542H3.18987Z" fill="#F82D8B"/>
</svg>
