<svg width="201" height="48" viewBox="0 0 201 48" fill="none" xmlns="http://www.w3.org/2000/svg">
<path d="M32.793 18C32.793 15.7909 31.0021 14 28.793 14C26.5838 14 24.793 15.7909 24.793 18" stroke="#473A3F" stroke-width="1.5" stroke-linecap="round" stroke-linejoin="round"/>
<path d="M21.3547 21.5039C21.6049 19.5021 23.3065 18 25.3238 18H32.2616C34.2789 18 35.9805 19.5021 36.2307 21.5039L37.2307 29.5039C37.5291 31.8913 35.6676 34 33.2616 34H24.3238C21.9178 34 20.0563 31.8913 20.3547 29.5039L21.3547 21.5039Z" stroke="#473A3F" stroke-width="1.5" stroke-linejoin="round"/>
<path d="M25.793 26L27.5458 27.4023C27.9637 27.7366 28.5707 27.6826 28.9231 27.2799L31.793 24" stroke="#473A3F" stroke-width="1.5" stroke-linecap="round" stroke-linejoin="round"/>
<path d="M65.4237 23.9545C65.4237 25.3352 65.1744 26.5284 64.6758 27.5341C64.1772 28.5398 63.4933 29.3153 62.6239 29.8608C61.7546 30.4062 60.7617 30.679 59.6452 30.679C58.5288 30.679 57.5359 30.4062 56.6665 29.8608C55.7972 29.3153 55.1133 28.5398 54.6147 27.5341C54.1161 26.5284 53.8668 25.3352 53.8668 23.9545C53.8668 22.5739 54.1161 21.3807 54.6147 20.375C55.1133 19.3693 55.7972 18.5938 56.6665 18.0483C57.5359 17.5028 58.5288 17.2301 59.6452 17.2301C60.7617 17.2301 61.7546 17.5028 62.6239 18.0483C63.4933 18.5938 64.1772 19.3693 64.6758 20.375C65.1744 21.3807 65.4237 22.5739 65.4237 23.9545ZM63.8896 23.9545C63.8896 22.821 63.6999 21.8643 63.3207 21.0845C62.9457 20.3047 62.4364 19.7145 61.793 19.3139C61.1538 18.9134 60.4379 18.7131 59.6452 18.7131C58.8526 18.7131 58.1346 18.9134 57.4911 19.3139C56.8519 19.7145 56.3427 20.3047 55.9634 21.0845C55.5884 21.8643 55.4009 22.821 55.4009 23.9545C55.4009 25.0881 55.5884 26.0447 55.9634 26.8246C56.3427 27.6044 56.8519 28.1946 57.4911 28.5952C58.1346 28.9957 58.8526 29.196 59.6452 29.196C60.4379 29.196 61.1538 28.9957 61.793 28.5952C62.4364 28.1946 62.9457 27.6044 63.3207 26.8246C63.6999 26.0447 63.8896 25.0881 63.8896 23.9545ZM67.8846 30.5V20.6818H69.342V22.1648H69.4442C69.6232 21.679 69.9471 21.2848 70.4158 20.9822C70.8846 20.6797 71.413 20.5284 72.0011 20.5284C72.1119 20.5284 72.2504 20.5305 72.4165 20.5348C72.5827 20.5391 72.7085 20.5455 72.7937 20.554V22.0881C72.7425 22.0753 72.6254 22.0561 72.4421 22.0305C72.2631 22.0007 72.0735 21.9858 71.8732 21.9858C71.396 21.9858 70.9698 22.0859 70.5948 22.2862C70.2241 22.4822 69.93 22.755 69.7127 23.1044C69.4996 23.4496 69.3931 23.8437 69.3931 24.2869V30.5H67.8846ZM77.9904 30.7045C77.1722 30.7045 76.4499 30.4979 75.8235 30.0845C75.1971 29.6669 74.707 29.0788 74.3533 28.3203C73.9996 27.5575 73.8228 26.6562 73.8228 25.6165C73.8228 24.5852 73.9996 23.6903 74.3533 22.9318C74.707 22.1733 75.1992 21.5874 75.8299 21.174C76.4606 20.7607 77.1893 20.554 78.016 20.554C78.6552 20.554 79.1602 20.6605 79.5309 20.8736C79.9059 21.0824 80.1914 21.321 80.3874 21.5895C80.5877 21.8537 80.7433 22.071 80.854 22.2415H80.9819V17.4091H82.4904V30.5H81.033V28.9915H80.854C80.7433 29.1705 80.5856 29.3963 80.381 29.669C80.1765 29.9375 79.8846 30.1783 79.5053 30.3913C79.1261 30.6001 78.6211 30.7045 77.9904 30.7045ZM78.195 29.3494C78.8001 29.3494 79.3114 29.1918 79.729 28.8764C80.1467 28.5568 80.4641 28.1158 80.6815 27.5533C80.8988 26.9865 81.0075 26.3324 81.0075 25.5909C81.0075 24.858 80.9009 24.2166 80.6879 23.6669C80.4748 23.1129 80.1594 22.6825 79.7418 22.3757C79.3242 22.0646 78.8086 21.9091 78.195 21.9091C77.5558 21.9091 77.0231 22.0732 76.5969 22.4013C76.1751 22.7251 75.8576 23.1662 75.6445 23.7244C75.4357 24.2784 75.3313 24.9006 75.3313 25.5909C75.3313 26.2898 75.4379 26.9247 75.6509 27.4957C75.8683 28.0625 76.1879 28.5142 76.6097 28.8509C77.0359 29.1832 77.5643 29.3494 78.195 29.3494ZM89.5792 30.7045C88.6332 30.7045 87.8171 30.4957 87.131 30.0781C86.4492 29.6562 85.9229 29.0682 85.5522 28.3139C85.1857 27.5554 85.0025 26.6733 85.0025 25.6676C85.0025 24.6619 85.1857 23.7756 85.5522 23.0085C85.9229 22.2372 86.4386 21.6364 87.0991 21.206C87.7638 20.7713 88.5394 20.554 89.4258 20.554C89.9371 20.554 90.4421 20.6392 90.9407 20.8097C91.4393 20.9801 91.8931 21.2571 92.3022 21.6406C92.7113 22.0199 93.0373 22.5227 93.2802 23.1491C93.5231 23.7756 93.6445 24.5469 93.6445 25.4631V26.1023H86.0763V24.7983H92.1104C92.1104 24.2443 91.9996 23.75 91.7781 23.3153C91.5607 22.8807 91.2496 22.5376 90.8448 22.2862C90.4442 22.0348 89.9712 21.9091 89.4258 21.9091C88.8249 21.9091 88.305 22.0582 87.8661 22.3565C87.4315 22.6506 87.0969 23.0341 86.8626 23.5071C86.6282 23.9801 86.511 24.4872 86.511 25.0284V25.8977C86.511 26.6392 86.6388 27.2678 86.8945 27.7834C87.1545 28.2947 87.5146 28.6847 87.9748 28.9531C88.435 29.2173 88.9698 29.3494 89.5792 29.3494C89.9755 29.3494 90.3335 29.294 90.6531 29.1832C90.9769 29.0682 91.256 28.8977 91.4904 28.6719C91.7248 28.4418 91.9059 28.1562 92.0337 27.8153L93.4911 28.2244C93.3377 28.7188 93.0799 29.1534 92.7177 29.5284C92.3555 29.8991 91.908 30.1889 91.3754 30.3977C90.8427 30.6023 90.244 30.7045 89.5792 30.7045ZM95.9393 30.5V20.6818H97.3967V22.1648H97.4989C97.6779 21.679 98.0018 21.2848 98.4705 20.9822C98.9393 20.6797 99.4677 20.5284 100.056 20.5284C100.167 20.5284 100.305 20.5305 100.471 20.5348C100.637 20.5391 100.763 20.5455 100.848 20.554V22.0881C100.797 22.0753 100.68 22.0561 100.497 22.0305C100.318 22.0007 100.128 21.9858 99.9279 21.9858C99.4506 21.9858 99.0245 22.0859 98.6495 22.2862C98.2788 22.4822 97.9847 22.755 97.7674 23.1044C97.5543 23.4496 97.4478 23.8437 97.4478 24.2869V30.5H95.9393ZM109.591 22.8807L108.236 23.2642C108.151 23.0384 108.025 22.8189 107.859 22.6058C107.697 22.3885 107.475 22.2095 107.194 22.0689C106.913 21.9283 106.553 21.858 106.114 21.858C105.513 21.858 105.012 21.9964 104.612 22.2734C104.215 22.5462 104.017 22.8935 104.017 23.3153C104.017 23.6903 104.154 23.9865 104.426 24.2038C104.699 24.4212 105.125 24.6023 105.705 24.7472L107.162 25.1051C108.04 25.3182 108.694 25.6442 109.124 26.0831C109.555 26.5178 109.77 27.0781 109.77 27.7642C109.77 28.3267 109.608 28.8295 109.284 29.2727C108.965 29.7159 108.517 30.0653 107.942 30.321C107.367 30.5767 106.698 30.7045 105.935 30.7045C104.933 30.7045 104.105 30.4872 103.448 30.0526C102.792 29.6179 102.377 28.983 102.202 28.1477L103.634 27.7898C103.77 28.3182 104.028 28.7145 104.407 28.9787C104.791 29.2429 105.291 29.375 105.909 29.375C106.612 29.375 107.171 29.2259 107.584 28.9276C108.002 28.625 108.21 28.2628 108.21 27.8409C108.21 27.5 108.091 27.2145 107.852 26.9844C107.614 26.75 107.247 26.5753 106.753 26.4602L105.117 26.0767C104.218 25.8636 103.557 25.5334 103.135 25.0859C102.718 24.6342 102.509 24.0696 102.509 23.392C102.509 22.8381 102.664 22.348 102.975 21.9219C103.291 21.4957 103.719 21.1612 104.26 20.9183C104.806 20.6754 105.423 20.554 106.114 20.554C107.085 20.554 107.848 20.767 108.402 21.1932C108.96 21.6193 109.357 22.1818 109.591 22.8807Z" fill="#473A3F"/>
</svg>
