<svg width="25" height="24" viewBox="0 0 25 24" fill="none" xmlns="http://www.w3.org/2000/svg">
<g id="Cashback">
<path id="Vector" d="M18.3788 22L17.0859 20.7071C16.6953 20.3166 16.6953 19.6834 17.0859 19.2929L18.3788 18M22.793 20L17.3788 20" stroke="#473A3F" stroke-width="1.5" stroke-linecap="round"/>
<path id="Rectangle 830" d="M22.793 15V6H6.79297C4.58383 6 2.79297 7.79086 2.79297 10V18C2.79297 20.2091 4.58383 22 6.79297 22H13.793" stroke="#473A3F" stroke-width="1.5" stroke-linecap="round" stroke-linejoin="round"/>
<path id="Rectangle 831" d="M22.793 6C22.793 3.79086 21.0021 2 18.793 2H12.793C10.5838 2 8.79297 3.79086 8.79297 6V6H22.793V6Z" stroke="#473A3F" stroke-width="1.5" stroke-linejoin="round"/>
<path id="Rectangle 828" d="M2.79297 12L2.79297 16L6.79297 16C7.89754 16 8.79297 15.1046 8.79297 14V14C8.79297 12.8954 7.89754 12 6.79297 12L2.79297 12Z" stroke="#473A3F" stroke-width="1.5" stroke-linejoin="round"/>
</g>
</svg>
