<svg width="41" height="40" viewBox="0 0 41 40" fill="none" xmlns="http://www.w3.org/2000/svg">
<path d="M23.0735 14.6667L17.5111 14.6667L15.643 12.5239C13.8118 10.4235 15.9481 7.28397 18.6217 8.14646L19.8588 8.54552C20.1404 8.63638 20.4442 8.63638 20.7259 8.54552L21.9629 8.14646C24.6365 7.28397 26.7729 10.4235 24.9416 12.5239L23.0735 14.6667Z" stroke="#473A3F" stroke-width="2" stroke-linejoin="round"/>
<path d="M11.8023 20.1367C12.8912 16.8699 15.9483 14.6665 19.3917 14.6665H21.1929C24.6364 14.6665 27.6935 16.8699 28.7824 20.1367L30.1157 24.1367C31.8425 29.3169 27.9867 34.6665 22.5262 34.6665H18.0584C12.5979 34.6665 8.74218 29.3169 10.4689 24.1367L11.8023 20.1367Z" stroke="#473A3F" stroke-width="2" stroke-linejoin="round"/>
<path d="M24.4603 24.1668C24.4603 21.8656 22.5948 20.0002 20.2936 20.0002C17.9924 20.0002 16.127 21.8656 16.127 24.1668C16.127 26.468 17.9924 28.3335 20.2936 28.3335C22.5948 28.3335 24.4603 26.468 24.4603 24.1668Z" stroke="#473A3F" stroke-width="2"/>
</svg>
