<svg width="25" height="24" viewBox="0 0 25 24" fill="none" xmlns="http://www.w3.org/2000/svg">
<g id="Coupon">
<path id="Ellipse 685" d="M10.793 9C10.793 9.55228 10.3453 10 9.79297 10C9.24068 10 8.79297 9.55228 8.79297 9C8.79297 8.44772 9.24068 8 9.79297 8C10.3453 8 10.793 8.44772 10.793 9Z" fill="#473A3F"/>
<path id="Ellipse 686" d="M16.793 15C16.793 15.5523 16.3453 16 15.793 16C15.2407 16 14.793 15.5523 14.793 15C14.793 14.4477 15.2407 14 15.793 14C16.3453 14 16.793 14.4477 16.793 15Z" fill="#473A3F"/>
<path id="Star 6" d="M10.8469 2.65806C11.9682 1.70252 13.6174 1.70252 14.7386 2.65806L15.4213 3.23978C15.9017 3.64925 16.4992 3.89671 17.1285 3.94693L18.0225 4.01827C19.491 4.13546 20.6571 5.3016 20.7743 6.77012L20.8457 7.66414C20.8959 8.29344 21.1434 8.89086 21.5528 9.37135L22.1345 10.054C23.0901 11.1752 23.0901 12.8244 22.1345 13.9457L21.5528 14.6283C21.1434 15.1088 20.8959 15.7062 20.8457 16.3355L20.7743 17.2295C20.6571 18.698 19.491 19.8642 18.0225 19.9814L17.1285 20.0527C16.4992 20.1029 15.9017 20.3504 15.4213 20.7599L14.7386 21.3416C13.6174 22.2971 11.9682 22.2971 10.8469 21.3416L10.1643 20.7599C9.68383 20.3504 9.08641 20.1029 8.45711 20.0527L7.56309 19.9814C6.09456 19.8642 4.92843 18.698 4.81124 17.2295L4.7399 16.3355C4.68968 15.7062 4.44222 15.1088 4.03275 14.6283L3.45103 13.9457C2.49549 12.8244 2.49549 11.1752 3.45103 10.054L4.03275 9.37135C4.44222 8.89086 4.68968 8.29344 4.7399 7.66414L4.81124 6.77012C4.92843 5.3016 6.09456 4.13546 7.56309 4.01827L8.45711 3.94693C9.08641 3.89671 9.68383 3.64925 10.1643 3.23978L10.8469 2.65806Z" stroke="#473A3F" stroke-width="1.5"/>
<path id="Vector 1887" d="M9.79297 15L15.793 9" stroke="#473A3F" stroke-width="1.5" stroke-linecap="round"/>
</g>
</svg>
