<svg width="25" height="24" viewBox="0 0 25 24" fill="none" xmlns="http://www.w3.org/2000/svg">
<g id="Dashboard">
<g id="Vector">
<path d="M2.79297 4C2.79297 2.89543 3.6884 2 4.79297 2H8.79297C9.89754 2 10.793 2.89543 10.793 4V8C10.793 9.10457 9.89754 10 8.79297 10H4.79297C3.6884 10 2.79297 9.10457 2.79297 8V4Z" stroke="white" stroke-width="1.5" stroke-linejoin="round"/>
<path d="M14.793 4C14.793 2.89543 15.6884 2 16.793 2H20.793C21.8975 2 22.793 2.89543 22.793 4V8C22.793 9.10457 21.8975 10 20.793 10H16.793C15.6884 10 14.793 9.10457 14.793 8V4Z" stroke="white" stroke-width="1.5" stroke-linejoin="round"/>
<path d="M2.79297 16C2.79297 14.8954 3.6884 14 4.79297 14H8.79297C9.89754 14 10.793 14.8954 10.793 16V20C10.793 21.1046 9.89754 22 8.79297 22H4.79297C3.6884 22 2.79297 21.1046 2.79297 20V16Z" stroke="white" stroke-width="1.5" stroke-linejoin="round"/>
<path d="M14.793 16C14.793 14.8954 15.6884 14 16.793 14H20.793C21.8975 14 22.793 14.8954 22.793 16V20C22.793 21.1046 21.8975 22 20.793 22H16.793C15.6884 22 14.793 21.1046 14.793 20V16Z" stroke="white" stroke-width="1.5" stroke-linejoin="round"/>
</g>
</g>
</svg>
