<svg width="22" height="22" viewBox="0 0 22 22" fill="none" xmlns="http://www.w3.org/2000/svg">
<g id="map">
<g id="Vector">
<path d="M18.6863 5.26999C18.6863 7.63148 16.4593 11.6838 14.2323 11.6838C12.0053 11.6838 9.77832 7.63148 9.77832 5.26999C9.77832 2.90851 11.7725 0.994141 14.2323 0.994141C16.6922 0.994141 18.6863 2.90851 18.6863 5.26999Z" stroke="#473A3F" stroke-width="1.5"/>
<path d="M15.5685 5.00275C15.5685 5.74072 14.9703 6.33896 14.2323 6.33896C13.4944 6.33896 12.8961 5.74072 12.8961 5.00275C12.8961 4.26479 13.4944 3.66655 14.2323 3.66655C14.9703 3.66655 15.5685 4.26479 15.5685 5.00275Z" stroke="#473A3F" stroke-width="1.5"/>
</g>
<path id="Vector_2" d="M6.79297 5.03552C4.92569 5.24453 2.65294 6.79263 1.51512 7.65296C1.04834 8.0059 0.792969 8.56261 0.792969 9.1478V18.8172C0.792969 19.6707 1.82087 20.1656 2.52924 19.6895C3.73872 18.8768 5.38166 17.9538 6.79297 17.7959M6.79297 5.03552V17.7959M6.79297 5.03552C8.01219 4.89905 8.9675 5.34367 9.85283 5.94236M6.79297 17.7959C10.1113 17.4244 11.4747 21.3574 14.793 20.986M14.793 20.986C16.6602 20.777 18.933 19.2289 20.0708 18.3685C20.5376 18.0156 20.793 17.4589 20.793 16.8737C20.793 16.8737 20.793 16.8737 20.793 16.8737C20.793 16.8737 20.793 8.05772 20.793 7.20427C20.793 6.35082 19.7651 5.85591 19.0567 6.33194C18.8302 6.48416 18.5885 6.64025 18.3359 6.79445M14.793 20.986V11.5604" stroke="#473A3F" stroke-width="1.5"/>
</g>
</svg>
