<svg width="25" height="24" viewBox="0 0 25 24" fill="none" xmlns="http://www.w3.org/2000/svg">
<g id="Reviews">
<path id="Star 2" d="M10.8258 3.27141C11.6305 1.5762 13.9555 1.57619 14.7602 3.27141L16.1509 6.20118C16.4704 6.87435 17.0881 7.34094 17.8026 7.44888L20.9123 7.91869C22.7116 8.19053 23.4301 10.4895 22.1281 11.8091L19.8779 14.0896C19.3609 14.6136 19.1249 15.3685 19.247 16.1084L19.7782 19.3285C20.0855 21.1918 18.2046 22.6126 16.5952 21.7329L13.8138 20.2126C13.1747 19.8633 12.4112 19.8633 11.7721 20.2126L8.99073 21.7329C7.38136 22.6126 5.50039 21.1918 5.80775 19.3286L6.33896 16.1084C6.46101 15.3685 6.22508 14.6136 5.70805 14.0896L3.45784 11.8091C2.15583 10.4895 2.8743 8.19053 4.67363 7.91869L7.78334 7.44888C8.49786 7.34094 9.11553 6.87435 9.43508 6.20118L10.8258 3.27141Z" stroke="#473A3F" stroke-width="1.5" stroke-linejoin="round"/>
</g>
</svg>
