<svg width="33" height="32" viewBox="0 0 33 32" fill="none" xmlns="http://www.w3.org/2000/svg">
<g id="finance and payment/outline/wallet-check">
<path id="Vector 2132" d="M21.627 26.6667L23.964 28.5363C24.5212 28.9821 25.3306 28.9102 25.8004 28.3732L29.627 24" stroke="#473A3F" stroke-width="2" stroke-linecap="round" stroke-linejoin="round"/>
<path id="Rectangle 830" d="M29.627 18.6667V8H8.29362C5.3481 8 2.96029 10.3878 2.96029 13.3333V24C2.96029 26.9455 5.3481 29.3333 8.29362 29.3333H17.627" stroke="#473A3F" stroke-width="2" stroke-linecap="round" stroke-linejoin="round"/>
<path id="Rectangle 831" d="M29.627 7.99984C29.627 5.05432 27.2391 2.6665 24.2936 2.6665H16.2936C13.3481 2.6665 10.9603 5.05432 10.9603 7.99984V7.99984H29.627V7.99984Z" stroke="#473A3F" stroke-width="2" stroke-linejoin="round"/>
<path id="Rectangle 828" d="M2.96094 16L2.96094 21.3333L8.29427 21.3333C9.76703 21.3333 10.9609 20.1394 10.9609 18.6667V18.6667C10.9609 17.1939 9.76703 16 8.29427 16L2.96094 16Z" stroke="#473A3F" stroke-width="2" stroke-linejoin="round"/>
</g>
</svg>
