<svg width="33" height="32" viewBox="0 0 33 32" fill="none" xmlns="http://www.w3.org/2000/svg">
<g id="finance and payment/outline/wallet-arrow-down">
<path id="Vector" d="M29.627 27.2191L27.9031 28.943C27.3824 29.4637 26.5382 29.4637 26.0175 28.943L24.2936 27.2191M26.9603 21.3335V28.5524" stroke="#473A3F" stroke-width="2" stroke-linecap="round"/>
<path id="Rectangle 830" d="M29.627 17.3333V8H8.29362C5.3481 8 2.96029 10.3878 2.96029 13.3333V24C2.96029 26.9455 5.3481 29.3333 8.29362 29.3333H20.2936" stroke="#473A3F" stroke-width="2" stroke-linecap="round" stroke-linejoin="round"/>
<path id="Rectangle 831" d="M29.627 7.99984C29.627 5.05432 27.2391 2.6665 24.2936 2.6665H16.2936C13.3481 2.6665 10.9603 5.05432 10.9603 7.99984V7.99984H29.627V7.99984Z" stroke="#473A3F" stroke-width="2" stroke-linejoin="round"/>
<path id="Rectangle 828" d="M2.95898 16L2.95898 21.3333L8.29232 21.3333C9.76508 21.3333 10.959 20.1394 10.959 18.6667V18.6667C10.959 17.1939 9.76508 16 8.29232 16L2.95898 16Z" stroke="#473A3F" stroke-width="2" stroke-linejoin="round"/>
</g>
</svg>
