<svg width="33" height="32" viewBox="0 0 33 32" fill="none" xmlns="http://www.w3.org/2000/svg">
<g id="finance and payment/outline/wallet-arrow-left">
<path id="Vector" d="M24.2413 29.3335L22.5175 27.6096C21.9968 27.0889 21.9968 26.2447 22.5175 25.724L24.2413 24.0002M30.127 26.6668L22.908 26.6668" stroke="#473A3F" stroke-width="2" stroke-linecap="round"/>
<path id="Rectangle 830" d="M30.127 20V8H8.79362C5.8481 8 3.46029 10.3878 3.46029 13.3333V24C3.46029 26.9455 5.8481 29.3333 8.79362 29.3333H18.127" stroke="#473A3F" stroke-width="2" stroke-linecap="round" stroke-linejoin="round"/>
<path id="Rectangle 831" d="M30.127 7.99984C30.127 5.05432 27.7391 2.6665 24.7936 2.6665H16.7936C13.8481 2.6665 11.4603 5.05432 11.4603 7.99984V7.99984H30.127V7.99984Z" stroke="#473A3F" stroke-width="2" stroke-linejoin="round"/>
<path id="Rectangle 828" d="M3.46094 16L3.46094 21.3333L8.79427 21.3333C10.267 21.3333 11.4609 20.1394 11.4609 18.6667V18.6667C11.4609 17.1939 10.267 16 8.79427 16L3.46094 16Z" stroke="#473A3F" stroke-width="2" stroke-linejoin="round"/>
</g>
</svg>
