<svg width="25" height="24" viewBox="0 0 25 24" fill="none" xmlns="http://www.w3.org/2000/svg">
<g id="ecommerce/outline/wallet 01">
<path id="Rectangle 830" d="M2.79297 6H18.793C21.0021 6 22.793 7.79086 22.793 10V18C22.793 20.2091 21.0021 22 18.793 22H6.79297C4.58383 22 2.79297 20.2091 2.79297 18V6Z" stroke="#473A3F" stroke-width="1.5" stroke-linejoin="round"/>
<path id="Rectangle 831" d="M2.79297 6C2.79297 3.79086 4.58383 2 6.79297 2H12.793C15.0021 2 16.793 3.79086 16.793 6H2.79297Z" stroke="#473A3F" stroke-width="1.5" stroke-linejoin="round"/>
<path id="Rectangle 828" d="M22.793 12L22.793 16H18.793C17.6884 16 16.793 15.1046 16.793 14C16.793 12.8954 17.6884 12 18.793 12L22.793 12Z" stroke="#473A3F" stroke-width="1.5" stroke-linejoin="round"/>
</g>
</svg>
