<svg width="25" height="24" viewBox="0 0 25 24" fill="none" xmlns="http://www.w3.org/2000/svg">
<g id="Wishlist">
<path id="Vector 1874" d="M17.793 7L7.79297 7" stroke="#473A3F" stroke-width="1.5" stroke-linecap="round" stroke-linejoin="round"/>
<path id="Vector 1875" d="M17.793 11L7.79297 11" stroke="#473A3F" stroke-width="1.5" stroke-linecap="round" stroke-linejoin="round"/>
<path id="Vector 1876" d="M12.793 15L7.79297 15" stroke="#473A3F" stroke-width="1.5" stroke-linecap="round" stroke-linejoin="round"/>
<path id="Vector 1877" d="M19.793 2H5.79297C4.6884 2 3.79297 2.89543 3.79297 4V19.1543C3.79297 20.5396 5.16709 21.5053 6.47041 21.0361L8.03217 20.4739C8.52018 20.2982 9.05736 20.319 9.53034 20.5318L11.9722 21.6307C12.4942 21.8655 13.0918 21.8655 13.6137 21.6307L16.0556 20.5318C16.5286 20.319 17.0658 20.2982 17.5538 20.4739L19.1155 21.0361C20.4189 21.5053 21.793 20.5396 21.793 19.1543V4C21.793 2.89543 20.8975 2 19.793 2Z" stroke="#473A3F" stroke-width="1.5" stroke-linecap="round"/>
</g>
</svg>
