<svg width="301" height="284" viewBox="0 0 301 284" fill="none" xmlns="http://www.w3.org/2000/svg">
<path d="M29.2011 163.672C28.6779 110.025 42.0339 55.7574 102.187 45.5945C134.141 39.361 167.253 38.9651 199.175 45.6526C261.42 56.6352 272.706 112.775 271.759 167.27C270.785 238.26 246.813 278.256 171.881 282.719C77.5427 287.873 29.3035 265.368 29.2011 163.672Z" fill="#FAFAFA"/>
<circle cx="6.75938" cy="83.5934" r="4.07774" fill="#E2E8F0"/>
<circle cx="269.773" cy="71.36" r="4.07774" fill="#E2E8F0"/>
<circle cx="293.22" cy="90.7298" r="7.13604" fill="#E2E8F0"/>
<circle cx="4.72031" cy="271.17" r="4.07774" fill="#E2E8F0"/>
<path d="M253.646 89.9932H169.443C169.438 89.9932 169.432 89.9985 169.427 89.9985C169.422 90.0038 169.422 90.0038 169.416 90.0091C169.416 90.0091 169.411 90.0144 169.411 90.0197C169.411 90.0251 169.411 90.0304 169.411 90.0357L172.792 101.597L207.996 175.849L252.562 237.408C252.567 237.414 252.567 237.414 252.567 237.419C252.572 237.419 252.572 237.419 252.578 237.419H260.785C260.79 237.419 260.796 237.419 260.801 237.408C260.806 237.408 260.806 237.403 260.806 237.398V97.1478C260.806 95.2555 260.051 93.4323 258.707 92.0875C257.362 90.748 255.544 89.9932 253.646 89.9932Z" fill="#0F172A"/>
<path d="M157.781 101.597L152.157 90.0144C152.157 90.0091 152.152 90.0038 152.146 90.0038C152.141 89.9985 152.136 89.9932 152.13 89.9932H45.3734C44.4326 89.9932 43.5024 90.1792 42.6359 90.5407C41.7642 90.9021 40.9775 91.423 40.3131 92.0875C39.6486 92.7572 39.1224 93.5439 38.7609 94.4104C38.4048 95.2821 38.2188 96.2123 38.2188 97.1478V237.414H46.4525L112.29 161.168L157.781 101.597Z" fill="#0F172A"/>
<path d="M252.551 101.595H172.791L174.173 106.804C174.179 106.809 174.179 106.815 174.173 106.82C174.173 106.831 174.168 106.831 174.163 106.836L159.71 116.967C159.705 116.973 159.699 116.973 159.694 116.983C159.694 116.988 159.694 116.994 159.694 116.999L162.75 131.197C162.75 131.202 162.75 131.213 162.75 131.218C162.745 131.223 162.74 131.229 162.734 131.229C162.729 131.234 162.724 131.234 162.718 131.234C162.708 131.234 162.702 131.229 162.697 131.223L150.902 116.994C150.897 116.994 150.897 116.983 150.897 116.978C150.897 116.973 150.897 116.967 150.902 116.962L159.678 105.161C159.683 105.156 159.683 105.151 159.683 105.146C159.689 105.14 159.683 105.135 159.683 105.13L157.78 101.595H46.4734C46.4681 101.595 46.4628 101.595 46.4575 101.6C46.4575 101.605 46.4521 101.611 46.4521 101.611V236.178C46.4521 236.184 46.4575 236.189 46.4575 236.194C46.4628 236.194 46.4681 236.2 46.4734 236.2H252.551C252.556 236.2 252.561 236.194 252.561 236.194C252.567 236.189 252.567 236.184 252.567 236.178V101.611C252.567 101.611 252.567 101.605 252.561 101.6C252.561 101.595 252.556 101.595 252.551 101.595Z" fill="white"/>
<path d="M46.4521 222.505C80.5565 222.612 114.671 223.494 148.781 223.499C183.38 223.499 217.973 222.612 252.567 222.505C252.715 216.733 252.779 210.822 252.763 204.773C252.747 200.196 252.684 195.694 252.567 191.271C183.864 201.562 115.161 212.22 46.4521 222.505Z" fill="white"/>
<path d="M257.15 222.501H41.8716C40.4683 222.501 39.0863 222.777 37.7946 223.314C36.5029 223.846 35.3335 224.632 34.3448 225.621C33.3561 226.61 32.5694 227.779 32.0326 229.071C31.501 230.363 31.2246 231.75 31.2246 233.148V238.554C31.2246 238.564 31.2246 238.57 31.2352 238.575C31.2406 238.58 31.2459 238.58 31.2512 238.58H267.765C267.776 238.58 267.781 238.58 267.786 238.575C267.792 238.57 267.797 238.564 267.797 238.554V233.148C267.797 230.325 266.675 227.615 264.677 225.621C262.683 223.628 259.978 222.501 257.15 222.501Z" fill="#0F172A"/>
<path d="M119.835 151.245L129.254 141.826C130.827 140.253 130.944 137.664 129.398 136.059C129.026 135.671 128.574 135.363 128.085 135.15C127.585 134.937 127.059 134.826 126.522 134.821C125.985 134.815 125.448 134.916 124.949 135.124C124.454 135.325 124.002 135.628 123.62 136.006L114.105 145.521C114.1 145.526 114.094 145.531 114.084 145.531C114.078 145.531 114.068 145.526 114.062 145.521L104.553 136.006C103.787 135.267 102.762 134.858 101.704 134.868C100.641 134.874 99.6201 135.299 98.8706 136.048C98.1158 136.803 97.6905 137.818 97.6852 138.882C97.6746 139.945 98.0839 140.971 98.828 141.731L108.338 151.245C108.343 151.245 108.348 151.251 108.348 151.256C108.348 151.261 108.348 151.261 108.348 151.267C108.348 151.272 108.348 151.277 108.348 151.277C108.348 151.283 108.343 151.288 108.338 151.288L98.828 160.803C98.0732 161.563 97.6533 162.589 97.6533 163.663C97.6586 164.731 98.0839 165.757 98.844 166.517C99.5988 167.266 100.625 167.697 101.698 167.697C102.767 167.702 103.793 167.282 104.553 166.528L114.068 157.013C114.068 157.013 114.073 157.008 114.078 157.008C114.084 157.008 114.084 157.008 114.089 157.008C114.094 157.008 114.094 157.008 114.1 157.008C114.105 157.008 114.11 157.013 114.11 157.013L123.625 166.528C124.385 167.282 125.411 167.702 126.479 167.697C127.553 167.697 128.579 167.266 129.334 166.517C130.094 165.757 130.519 164.731 130.524 163.663C130.524 162.589 130.105 161.563 129.355 160.803L119.835 151.288C119.83 151.288 119.824 151.283 119.824 151.277C119.824 151.277 119.824 151.272 119.824 151.267C119.824 151.261 119.824 151.261 119.824 151.256C119.824 151.251 119.83 151.245 119.835 151.245Z" fill="#0F172A"/>
<path d="M187.815 151.245L197.234 141.826C198.813 140.253 198.93 137.664 197.378 136.059C197.006 135.671 196.559 135.363 196.065 135.15C195.571 134.937 195.039 134.826 194.502 134.821C193.965 134.815 193.428 134.916 192.934 135.124C192.434 135.325 191.983 135.628 191.6 136.006L182.091 145.521C182.085 145.526 182.085 145.526 182.08 145.531C182.075 145.531 182.069 145.531 182.069 145.531C182.064 145.531 182.059 145.531 182.059 145.531C182.053 145.526 182.048 145.526 182.048 145.521L172.533 136.006C172.156 135.634 171.709 135.336 171.22 135.129C170.731 134.927 170.205 134.821 169.673 134.821C169.142 134.821 168.616 134.927 168.121 135.129C167.632 135.336 167.186 135.634 166.808 136.006C166.431 136.383 166.133 136.83 165.931 137.319C165.724 137.813 165.623 138.339 165.623 138.871C165.623 139.403 165.724 139.929 165.931 140.418C166.133 140.912 166.431 141.359 166.808 141.731L176.323 151.245C176.323 151.251 176.328 151.256 176.328 151.256C176.328 151.261 176.328 151.261 176.328 151.267C176.328 151.272 176.328 151.277 176.328 151.283L176.323 151.288L166.808 160.803C166.054 161.563 165.634 162.594 165.639 163.663C165.644 164.731 166.07 165.757 166.824 166.517C167.584 167.272 168.605 167.697 169.679 167.697C170.747 167.702 171.778 167.282 172.539 166.528L182.048 157.013C182.059 157.007 182.064 157.008 182.069 157.008C182.08 157.008 182.085 157.007 182.091 157.013L191.605 166.528C191.983 166.905 192.429 167.203 192.918 167.405C193.413 167.612 193.939 167.713 194.47 167.713C195.002 167.718 195.528 167.612 196.017 167.405C196.512 167.203 196.958 166.905 197.33 166.528C197.713 166.155 198.01 165.709 198.212 165.215C198.414 164.726 198.521 164.199 198.521 163.668C198.521 163.136 198.414 162.61 198.212 162.116C198.01 161.627 197.713 161.18 197.335 160.803L187.815 151.288C187.81 151.288 187.81 151.283 187.81 151.283C187.805 151.277 187.805 151.272 187.805 151.267C187.805 151.261 187.805 151.261 187.81 151.256C187.81 151.251 187.81 151.245 187.815 151.245Z" fill="#0F172A"/>
<path d="M176.083 189.861C174.478 184.03 171.001 178.884 166.191 175.211C161.375 171.544 155.496 169.55 149.442 169.545C143.424 169.524 137.567 171.491 132.777 175.137C128.089 178.698 124.655 183.652 122.965 189.292C122.806 189.818 122.758 190.366 122.811 190.913C122.869 191.456 123.034 191.987 123.295 192.471C123.555 192.949 123.911 193.375 124.336 193.72C124.762 194.066 125.251 194.326 125.777 194.48C126.303 194.64 126.856 194.693 127.398 194.634C127.946 194.576 128.477 194.411 128.956 194.151C129.439 193.89 129.87 193.534 130.215 193.109C130.561 192.678 130.816 192.189 130.97 191.663C132.166 187.655 134.638 184.136 138.008 181.654C141.373 179.166 145.466 177.848 149.649 177.896C153.837 177.938 157.899 179.347 161.21 181.904C164.527 184.46 166.924 188.027 168.035 192.062C168.274 192.944 168.801 193.72 169.529 194.278C170.252 194.836 171.145 195.139 172.059 195.139C172.431 195.139 172.803 195.086 173.159 194.99C174.228 194.698 175.137 193.991 175.684 193.029C176.232 192.072 176.375 190.929 176.083 189.861Z" fill="#0F172A"/>
<path d="M71.389 137.019C71.389 137.014 71.3836 137.014 71.3783 137.009C71.373 137.009 71.3677 137.009 71.3677 137.009C71.3624 137.009 71.3571 137.009 71.3571 137.009C71.3517 137.014 71.3464 137.014 71.3464 137.019C70.8361 137.636 61.736 148.841 62.9266 158.032C64.1811 167.743 78.5489 167.743 79.8034 158.032C80.9941 148.846 71.8939 137.636 71.389 137.019Z" fill="#F1F5F9"/>
<path d="M62.6707 93.1479L62.6654 93.1426C62.6601 93.1426 62.6548 93.1426 62.6548 93.1426C62.6495 93.1426 62.6442 93.1426 62.6388 93.1426L62.6335 93.1479C62.1232 93.7698 53.0231 104.975 54.2138 114.165C55.4629 123.872 69.8361 123.872 71.0905 114.165C72.2812 104.975 63.181 93.7698 62.6707 93.1479Z" fill="#F1F5F9"/>
<path d="M86.5174 105.136C86.512 105.13 86.5121 105.13 86.5067 105.13C86.5014 105.125 86.4961 105.125 86.4961 105.125C86.4908 105.125 86.4855 105.125 86.4855 105.13C86.4748 105.13 86.4748 105.13 86.4695 105.136C85.9646 105.752 76.8644 116.957 78.0497 126.148C79.3095 135.859 93.6774 135.859 94.9318 126.148C96.1225 116.957 87.0223 105.752 86.5174 105.136Z" fill="white"/>
<path d="M94.7394 0H110.085C110.096 0 110.101 5.19105e-06 110.107 0.00532071C110.112 0.0106362 110.117 0.0159563 110.117 0.0265873V35.6724C110.117 35.6831 110.117 35.6884 110.122 35.6937C110.128 35.7043 110.138 35.7043 110.144 35.7043H118.734C118.744 35.7043 118.75 35.7096 118.755 35.715C118.76 35.7203 118.766 35.7256 118.766 35.7362V49.0516C118.766 49.0622 118.76 49.0675 118.755 49.0729C118.75 49.0782 118.744 49.0835 118.734 49.0835H110.144C110.138 49.0835 110.128 49.0835 110.122 49.0888C110.117 49.0994 110.117 49.1048 110.117 49.1101V62.9357C110.117 62.941 110.112 62.9464 110.107 62.957C110.101 62.9623 110.096 62.9623 110.085 62.9623H94.0537C94.0484 62.9623 94.0431 62.9623 94.0378 62.9623L94.0324 62.957C94.0271 62.9517 94.0271 62.9464 94.0271 62.9464C94.0218 62.941 94.0218 62.9357 94.0218 62.9357V49.1101C94.0218 49.1048 94.0218 49.0994 94.0112 49.0888C94.0059 49.0835 94.0005 49.0835 93.9899 49.0835H66.9977C66.9871 49.0835 66.9765 49.0782 66.9765 49.0729C66.9658 49.0675 66.9658 49.0622 66.9658 49.0516V34.0034C66.9658 33.998 66.9658 33.9927 66.9711 33.9874L94.7181 0.00532071C94.7235 0.00532071 94.7235 0 94.7288 0H94.7394ZM78.9736 35.9542C78.9736 35.9595 78.9683 35.9648 78.9683 35.9701C78.9683 35.9754 78.9683 35.9807 78.9736 35.9861C78.9736 35.9914 78.9789 35.9967 78.9842 36.002C78.9895 36.002 78.9948 36.002 79.0002 36.002L87.9887 35.7043H93.9899C94.0005 35.7043 94.0059 35.7043 94.0112 35.6937C94.0218 35.6884 94.0218 35.6831 94.0218 35.6724V26.1523L94.1228 17.0841C94.1228 17.0734 94.1175 17.0681 94.1175 17.0681C94.1122 17.0628 94.1069 17.0575 94.1015 17.0575C94.0962 17.0522 94.0909 17.0522 94.0803 17.0575C94.075 17.0575 94.0696 17.0575 94.0696 17.0628L78.9736 35.9542Z" fill="#FD71AF"/>
<path d="M150.054 72.2816C133.661 72.2816 123.599 57.5949 123.599 39.4902C123.599 21.3909 133.757 6.7041 150.054 6.7041C166.543 6.7041 176.504 21.2846 176.504 39.8942C176.504 57.7012 166.245 72.2816 150.054 72.2816ZM150.15 59.4128C157.193 59.4128 161.318 52.2687 161.318 39.6975C161.318 28.131 157.995 19.5783 150.054 19.5783C142.208 19.5783 138.785 28.1309 138.785 39.3945C138.785 50.8601 142.203 59.4128 150.15 59.4128Z" fill="#FD71AF"/>
<path d="M210.006 16.0205H225.351C225.357 16.0205 225.367 16.0258 225.373 16.0311C225.378 16.0364 225.383 16.0471 225.383 16.0524V51.6983C225.383 51.7036 225.383 51.7089 225.383 51.7089C225.389 51.7142 225.389 51.7142 225.394 51.7195C225.394 51.7248 225.399 51.7248 225.399 51.7301C225.405 51.7301 225.405 51.7301 225.415 51.7301H234.005C234.01 51.7301 234.021 51.7301 234.026 51.7355C234.032 51.7461 234.032 51.7514 234.032 51.7567V65.0774C234.032 65.0827 234.032 65.0933 234.026 65.0987C234.021 65.104 234.01 65.104 234.005 65.104H225.415C225.405 65.104 225.405 65.1093 225.399 65.1093C225.399 65.1093 225.394 65.1093 225.394 65.1146C225.389 65.1199 225.389 65.1199 225.383 65.1253C225.383 65.1306 225.383 65.1306 225.383 65.1359V78.9562C225.383 78.9669 225.378 78.9775 225.373 78.9775C225.367 78.9828 225.357 78.9881 225.351 78.9881H209.325C209.315 78.9881 209.309 78.9828 209.304 78.9775C209.299 78.9775 209.293 78.9669 209.293 78.9562V65.1359C209.293 65.1306 209.288 65.1199 209.283 65.1146C209.277 65.1093 209.272 65.104 209.261 65.104H182.264C182.259 65.104 182.248 65.104 182.243 65.0987C182.237 65.0933 182.237 65.0827 182.237 65.0774V50.0292C182.237 50.0239 182.237 50.0186 182.243 50.0079L209.984 16.0311C209.99 16.0311 209.99 16.0258 209.995 16.0258C210 16.0258 210.006 16.0205 210.006 16.0205ZM194.245 51.98C194.245 51.9853 194.24 51.9906 194.24 51.9959C194.24 52.0012 194.24 52.0065 194.245 52.0119C194.245 52.0172 194.25 52.0225 194.256 52.0225C194.261 52.0278 194.266 52.0278 194.272 52.0278L203.26 51.7301H209.261C209.272 51.7301 209.277 51.7248 209.283 51.7195C209.288 51.7142 209.293 51.7089 209.293 51.6983V42.1729L209.394 33.1099C209.394 33.1046 209.389 33.0939 209.384 33.0886C209.384 33.0833 209.378 33.0833 209.373 33.078C209.368 33.078 209.357 33.078 209.352 33.078C209.346 33.0833 209.341 33.0833 209.336 33.0886L194.245 51.98Z" fill="#FD71AF"/>
<path d="M266.52 191.718L244.881 159.219C244.19 158.183 243.254 157.332 242.154 156.742C241.059 156.152 239.831 155.844 238.587 155.844C237.338 155.844 236.11 156.152 235.015 156.742C233.915 157.332 232.979 158.183 232.288 159.219L210.649 191.718C209.894 192.856 209.458 194.179 209.389 195.545C209.325 196.911 209.634 198.272 210.277 199.479C210.925 200.685 211.887 201.69 213.062 202.392C214.237 203.099 215.576 203.471 216.942 203.471H260.216C261.587 203.471 262.927 203.099 264.102 202.397C265.276 201.695 266.239 200.685 266.887 199.484C267.536 198.272 267.844 196.917 267.775 195.551C267.711 194.185 267.275 192.856 266.52 191.718Z" fill="#94A3B8"/>
<path d="M242.66 165.224H234.522C234.501 165.224 234.49 165.24 234.49 165.256V186.459C234.49 186.475 234.501 186.491 234.522 186.491H242.66C242.676 186.491 242.692 186.475 242.692 186.459V165.256C242.692 165.24 242.676 165.224 242.66 165.224Z" fill="white"/>
<path d="M238.587 198.859C241.5 198.859 243.866 196.493 243.866 193.575C243.866 190.657 241.5 188.297 238.587 188.297C235.669 188.297 233.304 190.657 233.304 193.575C233.304 196.493 235.669 198.859 238.587 198.859Z" fill="white"/>
</svg>
