<svg width="43" height="42" viewBox="0 0 43 42" fill="none" xmlns="http://www.w3.org/2000/svg">
<g id="2x Cashback">
<path id="Vector" d="M30.1434 31.6064L25.6836 35.8782L30.1434 40.15" stroke="#1F1F1F" stroke-width="2" stroke-linecap="round" stroke-linejoin="round"/>
<path id="Vector_2" d="M24.4349 11.6315C24.8594 12.0223 25.199 12.4898 25.4339 13.007C25.6596 13.5269 25.7758 14.0843 25.7758 14.6474C25.7758 15.2104 25.6596 15.7679 25.4339 16.2877C25.2107 16.8085 24.8823 17.2819 24.4674 17.6808C24.0526 18.0796 23.5596 18.3959 23.0167 18.6116C22.4694 18.8222 21.8849 18.9296 21.2952 18.9277C20.7065 18.9214 20.1248 18.8053 19.5826 18.5859C18.9627 18.3533 18.4051 17.9906 17.9507 17.5246C17.4962 17.0586 17.1565 16.5011 16.9563 15.8929C16.7562 15.2847 16.7007 14.6414 16.794 14.01C16.8873 13.3786 17.127 12.7753 17.4955 12.2442C17.864 11.7131 18.352 11.2678 18.9236 10.9409C19.4952 10.614 20.136 10.4138 20.7989 10.3551C21.4618 10.2963 22.1301 10.3805 22.7546 10.6013C23.3792 10.8222 23.9441 11.1742 24.4081 11.6315" stroke="#E278A1" stroke-width="2" stroke-linecap="round" stroke-linejoin="round"/>
<path id="Vector_3" d="M9.11719 11.4268V17.7917" stroke="#A0A0A0" stroke-width="2" stroke-linecap="round" stroke-linejoin="round"/>
<path id="Vector_4" d="M33.4883 11.4268V17.7917" stroke="#A0A0A0" stroke-width="2" stroke-linecap="round" stroke-linejoin="round"/>
<path id="Vector_5" d="M19.0901 27.3604H5.79969C4.61687 27.3604 3.4825 26.9103 2.64611 26.1092C1.80973 25.3081 1.33984 24.2215 1.33984 23.0886V6.14677C1.33984 5.01382 1.80973 3.92728 2.64611 3.12617C3.4825 2.32506 4.61687 1.875 5.79969 1.875H36.8135C37.9963 1.875 39.1307 2.32506 39.9671 3.12617C40.8035 3.92728 41.2733 5.01382 41.2733 6.14677V18.8766" stroke="#A0A0A0" stroke-width="2" stroke-linecap="round" stroke-linejoin="round"/>
<path id="Vector_6" d="M34.5916 27.3604H36.8126C37.9044 27.4754 38.9134 27.9723 39.6464 28.7559C40.3794 29.5394 40.7847 30.5544 40.7847 31.6065C40.7847 32.6585 40.3794 33.6736 39.6464 34.4571C38.9134 35.2406 37.9044 35.7375 36.8126 35.8526H25.7344" stroke="#1F1F1F" stroke-width="2" stroke-linecap="round" stroke-linejoin="round"/>
</g>
</svg>
