<svg width="43" height="42" viewBox="0 0 43 42" fill="none" xmlns="http://www.w3.org/2000/svg">
<g id="24/7 Support">
<path id="Vector" d="M37.3553 31.0759H35.1282C34.5392 31.0737 33.975 30.8486 33.5593 30.4499C33.1436 30.0511 32.9102 29.5113 32.9102 28.9486V18.3461C32.9102 17.7834 33.1436 17.2436 33.5593 16.8448C33.975 16.4461 34.5392 16.221 35.1282 16.2188H37.3553C38.5413 16.2188 39.6788 16.6688 40.5175 17.4699C41.3561 18.271 41.8273 19.3576 41.8273 20.4905V26.8042C41.8273 27.9371 41.3561 29.0237 40.5175 29.8248C39.6788 30.6259 38.5413 31.0759 37.3553 31.0759V31.0759Z" stroke="#A0A0A0" stroke-width="2" stroke-linecap="round" stroke-linejoin="round"/>
<path id="Vector_2" d="M8.47523 31.0762H6.25712C5.07108 31.0762 3.93363 30.6261 3.09498 29.825C2.25632 29.0239 1.78516 27.9374 1.78516 26.8044V20.4651C1.78516 19.3322 2.25632 18.2456 3.09498 17.4445C3.93363 16.6434 5.07108 16.1934 6.25712 16.1934H8.47523C9.06588 16.1934 9.63233 16.4175 10.05 16.8164C10.4676 17.2154 10.7023 17.7565 10.7023 18.3207V28.9489C10.699 29.5124 10.4646 30.0522 10.0494 30.4525C9.84298 30.6505 9.59765 30.8075 9.32749 30.9145C9.05734 31.0216 8.7677 31.0765 8.47523 31.0762Z" stroke="#A0A0A0" stroke-width="2" stroke-linecap="round" stroke-linejoin="round"/>
<path id="Vector_3" d="M36.2472 16.219V15.1596C36.1534 11.5607 34.5909 8.13941 31.8931 5.62573C29.1953 3.11205 25.5758 1.70508 21.8072 1.70508C18.0385 1.70508 14.4191 3.11205 11.7213 5.62573C9.02347 8.13941 7.46096 11.5607 7.36719 15.1596V16.219" stroke="#A0A0A0" stroke-width="2" stroke-linecap="round" stroke-linejoin="round"/>
<path id="Vector_4" d="M25.9688 37.4411H30.6911C31.8772 37.4411 33.0147 36.991 33.8533 36.1899C34.692 35.3888 35.1631 34.3023 35.1631 33.1693V31.0762" stroke="#1F1F1F" stroke-width="2" stroke-linecap="round" stroke-linejoin="round"/>
<path id="Vector_5" d="M23.1956 40.0897H20.4141C19.6791 40.0888 18.9746 39.8092 18.4554 39.3123C18.1971 39.0662 17.9922 38.7739 17.8524 38.4521C17.7126 38.1303 17.6406 37.7854 17.6406 37.4369C17.6406 37.0885 17.7126 36.7436 17.8524 36.4218C17.9922 36.1 18.1971 35.8077 18.4554 35.5616C18.9746 35.0647 19.6791 34.7851 20.4141 34.7842H23.1956C23.9049 34.8226 24.5719 35.1189 25.0598 35.6122C25.5477 36.1054 25.8195 36.7583 25.8195 37.4369C25.8195 38.1156 25.5477 38.7685 25.0598 39.2617C24.5719 39.755 23.9049 40.0513 23.1956 40.0897V40.0897Z" stroke="#E278A1" stroke-width="2" stroke-linecap="round" stroke-linejoin="round"/>
</g>
</svg>
