<svg width="33" height="15" viewBox="0 0 33 15" fill="none" xmlns="http://www.w3.org/2000/svg">
<path fill-rule="evenodd" clip-rule="evenodd" d="M6.40591 2.17337C6.03253 2.63378 5.43511 2.99692 4.83769 2.94504C4.76301 2.32251 5.0555 1.66108 5.39777 1.25254C5.77116 0.779158 6.42458 0.441954 6.95354 0.416016C7.01578 1.06448 6.77307 1.69998 6.40591 2.17337ZM6.94732 3.0683C6.42101 3.03673 5.94077 3.23323 5.55287 3.39195C5.30325 3.49409 5.09186 3.58059 4.93104 3.58059C4.75057 3.58059 4.53046 3.48947 4.28332 3.38716C3.95949 3.25311 3.58926 3.09985 3.20102 3.1072C2.31112 3.12017 1.48345 3.64543 1.02916 4.48196C0.0956958 6.155 0.786459 8.63215 1.68881 9.99394C2.13065 10.6683 2.65961 11.4076 3.3566 11.3817C3.66323 11.3696 3.8838 11.2721 4.11208 11.1711C4.37488 11.0549 4.64789 10.9342 5.07417 10.9342C5.48568 10.9342 5.74675 11.0518 5.99736 11.1646C6.23565 11.272 6.46448 11.375 6.80419 11.3687C7.52607 11.3557 7.98036 10.6943 8.4222 10.0199C8.89899 9.29609 9.10853 8.58971 9.14035 8.48245L9.14035 8.48244L9.14035 8.48243L9.14408 8.47004C9.14331 8.46924 9.13742 8.46643 9.12703 8.46147C8.96762 8.38543 7.74934 7.80425 7.73766 6.24579C7.72592 4.93768 8.70398 4.27492 8.85794 4.17059L8.85795 4.17058C8.86731 4.16423 8.87363 4.15995 8.87648 4.15772C8.25417 3.19799 7.28337 3.09423 6.94732 3.0683ZM11.9445 11.2974V1.18779H15.585C17.4644 1.18779 18.7775 2.5366 18.7775 4.50794C18.7775 6.47929 17.4395 7.84107 15.5352 7.84107H13.4505V11.2974H11.9445ZM13.4505 2.51038H15.1867C16.4935 2.51038 17.2403 3.23666 17.2403 4.51414C17.2403 5.79162 16.4935 6.52439 15.1805 6.52439H13.4505V2.51038ZM23.7498 10.0845C23.3515 10.8757 22.4741 11.375 21.5282 11.375C20.128 11.375 19.1509 10.506 19.1509 9.19612C19.1509 7.89919 20.0968 7.15345 21.8455 7.04321L23.7249 6.92649V6.3688C23.7249 5.54525 23.2084 5.09781 22.2874 5.09781C21.5282 5.09781 20.9743 5.50634 20.8623 6.12887H19.5056C19.5492 4.81897 20.7316 3.86572 22.3309 3.86572C24.0547 3.86572 25.1749 4.806 25.1749 6.26505V11.2972H23.7809V10.0845H23.7498ZM21.9326 10.1756C21.1298 10.1756 20.6195 9.77353 20.6195 9.15748C20.6195 8.52198 21.1111 8.15236 22.0508 8.094L23.7248 7.98376V8.55441C23.7248 9.50117 22.9532 10.1756 21.9326 10.1756ZM29.7987 11.6929C29.195 13.4632 28.5043 14.0468 27.0356 14.0468C26.9236 14.0468 26.5502 14.0338 26.4631 14.0079V12.7953C26.5564 12.8082 26.7867 12.8212 26.9049 12.8212C27.5708 12.8212 27.9442 12.5294 28.1744 11.7707L28.3114 11.3232L25.7599 3.96312H27.3343L29.1079 9.93551H29.139L30.9126 3.96312H32.4435L29.7987 11.6929Z" fill="black"/>
</svg>
