<svg width="21" height="20" viewBox="0 0 21 20" fill="none" xmlns="http://www.w3.org/2000/svg">
<g id="Iconspace_Call_25px">
<path id="Path" fill-rule="evenodd" clip-rule="evenodd" d="M7.95528 9.26262L10.7463 12.2005C11.0489 12.519 11.5969 12.5645 12.2074 12.2644C13.7612 11.6218 14.2782 11.4651 14.5733 11.7758L17.7816 15.1529C18.1608 15.5521 18.0596 16.2171 17.6355 16.6635C15.4334 18.9815 11.8542 18.9815 9.65214 16.6635L3.65892 10.3548C1.46786 8.04845 1.46786 4.31716 3.65892 2.01078C4.09195 1.55496 4.75696 1.4428 5.15049 1.85704L8.35878 5.23418C8.63686 5.5269 8.48775 6.0721 7.88062 7.69655C7.59838 8.33065 7.64361 8.93454 7.95528 9.26262Z" fill="white"/>
</g>
</svg>
