<svg width="19" height="19" viewBox="0 0 19 19" fill="none" xmlns="http://www.w3.org/2000/svg">
<g clip-path="url(#clip0_4379_31302)">
<path d="M1.625 4.81836H3.68573L4.303 7.568L5.63521 13.501H15.2469L16.8343 8.12428" stroke="#7F8599" stroke-width="1.5" stroke-linecap="round" stroke-linejoin="round"/>
<path d="M7.44448 16.7522C8.00656 16.7522 8.46221 16.2966 8.46221 15.7345C8.46221 15.1724 8.00656 14.7168 7.44448 14.7168C6.88241 14.7168 6.42676 15.1724 6.42676 15.7345C6.42676 16.2966 6.88241 16.7522 7.44448 16.7522Z" fill="#7F8599"/>
<path d="M13.8429 16.7522C14.405 16.7522 14.8606 16.2966 14.8606 15.7345C14.8606 15.1724 14.405 14.7168 13.8429 14.7168C13.2808 14.7168 12.8252 15.1724 12.8252 15.7345C12.8252 16.2966 13.2808 16.7522 13.8429 16.7522Z" fill="#7F8599"/>
<path d="M10.6621 3.25195V9.2245" stroke="#7F8599" stroke-width="1.5" stroke-linecap="round"/>
<path d="M13.6486 6.23828H7.67578" stroke="#7F8599" stroke-width="1.5" stroke-linecap="round"/>
</g>
<defs>
<clipPath id="clip0_4379_31302">
<rect width="18" height="18" fill="white" transform="translate(0.5 0.251953)"/>
</clipPath>
</defs>
</svg>
