<svg width="45" height="41" viewBox="0 0 45 41" fill="none" xmlns="http://www.w3.org/2000/svg">
<g clip-path="url(#clip0_5478_4693)">
<path opacity="0.2" d="M20.5 25.6211C23.2614 25.6211 25.5 23.3825 25.5 20.6211C25.5 17.8597 23.2614 15.6211 20.5 15.6211C17.7386 15.6211 15.5 17.8597 15.5 20.6211C15.5 23.3825 17.7386 25.6211 20.5 25.6211Z" fill="white"/>
<path opacity="0.2" d="M38 10.6211H31.75C32.0146 12.1825 32.7584 13.623 33.8783 14.7428C34.9981 15.8627 36.4386 16.6064 38 16.8711V10.6211Z" fill="white"/>
<path opacity="0.2" d="M38 30.6211V24.3711C36.4386 24.6357 34.9981 25.3795 33.8783 26.4994C32.7584 27.6192 32.0146 29.0597 31.75 30.6211H38Z" fill="white"/>
<path opacity="0.2" d="M3 30.6211V24.3711C4.56143 24.6357 6.00188 25.3795 7.12173 26.4994C8.24157 27.6192 8.98535 29.0597 9.25 30.6211H3Z" fill="white"/>
<path opacity="0.2" d="M3 10.6211V16.8711C4.56143 16.6064 6.00188 15.8627 7.12173 14.7428C8.24157 13.623 8.98535 12.1825 9.25 10.6211H3Z" fill="white"/>
<path d="M20.5 25.6211C23.2614 25.6211 25.5 23.3825 25.5 20.6211C25.5 17.8597 23.2614 15.6211 20.5 15.6211C17.7386 15.6211 15.5 17.8597 15.5 20.6211C15.5 23.3825 17.7386 25.6211 20.5 25.6211Z" stroke="white" stroke-width="2" stroke-linecap="round" stroke-linejoin="round"/>
<path d="M38 10.6211H3V30.6211H38V10.6211Z" stroke="white" stroke-width="2" stroke-linecap="round" stroke-linejoin="round"/>
<path d="M38 16.8711C36.4386 16.6064 34.9981 15.8627 33.8783 14.7428C32.7584 13.623 32.0146 12.1825 31.75 10.6211" stroke="white" stroke-width="2" stroke-linecap="round" stroke-linejoin="round"/>
<path d="M31.75 30.6211C32.0146 29.0597 32.7584 27.6192 33.8783 26.4994C34.9981 25.3795 36.4386 24.6357 38 24.3711" stroke="white" stroke-width="2" stroke-linecap="round" stroke-linejoin="round"/>
<path d="M3 24.3711C4.56143 24.6357 6.00188 25.3795 7.12173 26.4994C8.24157 27.6192 8.98535 29.0597 9.25 30.6211" stroke="white" stroke-width="2" stroke-linecap="round" stroke-linejoin="round"/>
<path d="M9.25 10.6211C8.98535 12.1825 8.24157 13.623 7.12173 14.7428C6.00188 15.8627 4.56143 16.6064 3 16.8711" stroke="white" stroke-width="2" stroke-linecap="round" stroke-linejoin="round"/>
<path d="M37.9202 33.8482L37.9202 33.8482C37.8245 33.8583 37.7283 33.8634 37.632 33.8634H33.2339C33.9504 34.9141 33.8607 36.3577 32.9458 37.3129L31.682 36.1024L32.9458 37.3129C31.8953 38.4098 30.1545 38.4473 29.0576 37.3967L24.5978 33.1249C24.0562 32.6062 23.75 31.8888 23.75 31.139C23.75 30.3891 24.0562 29.6717 24.5978 29.153M37.9202 33.8482L24.5978 29.153M37.9202 33.8482C39.6528 33.6656 41.2779 32.8752 42.474 31.5965C43.673 30.3148 44.354 28.6322 44.354 26.8672C44.354 25.1022 43.673 23.4197 42.474 22.138C41.2779 20.8593 39.6528 20.0689 37.9202 19.8862L37.7368 21.6266L37.9202 19.8862C37.8245 19.8762 37.7283 19.8711 37.632 19.8711H35.411C33.8922 19.8711 32.661 21.1023 32.661 22.6211C32.661 24.1399 33.8922 25.3711 35.411 25.3711H37.4556C37.8595 25.4381 38.2102 25.6309 38.4575 25.8953L39.6955 24.7372L38.4575 25.8953C38.7242 26.1804 38.854 26.5279 38.854 26.8672C38.854 27.2066 38.7242 27.554 38.4575 27.8392C38.2102 28.1036 37.8595 28.2964 37.4556 28.3634H33.268M37.9202 33.8482L33.268 28.3634M24.5978 29.153L29.0576 24.8812M24.5978 29.153L29.0576 24.8812M29.0576 24.8812C30.1545 23.8307 31.8953 23.8682 32.9458 24.965C33.846 25.9047 33.9473 27.3173 33.268 28.3634M29.0576 24.8812L33.268 28.3634" fill="white" stroke="#1C2A54" stroke-width="3.5" stroke-linecap="round" stroke-linejoin="round"/>
</g>
<defs>
<clipPath id="clip0_5478_4693">
<rect width="44" height="40" fill="white" transform="translate(0.5 0.621094)"/>
</clipPath>
</defs>
</svg>
