<svg width="39" height="36" viewBox="0 0 39 36" fill="none" xmlns="http://www.w3.org/2000/svg">
<g clip-path="url(#clip0_5478_3690)">
<path opacity="0.5" d="M17.5463 22.1156C19.9321 22.1156 21.8662 20.1815 21.8662 17.7957C21.8662 15.4099 19.9321 13.4758 17.5463 13.4758C15.1605 13.4758 13.2264 15.4099 13.2264 17.7957C13.2264 20.1815 15.1605 22.1156 17.5463 22.1156Z" fill="#F396C1"/>
<path opacity="0.5" d="M32.6662 9.15601H27.2663C27.4949 10.505 28.1376 11.7496 29.1051 12.7171C30.0726 13.6846 31.3171 14.3272 32.6662 14.5559V9.15601Z" fill="#F396C1"/>
<path opacity="0.2" d="M32.6662 26.4362V21.0364C31.3171 21.265 30.0726 21.9076 29.1051 22.8752C28.1376 23.8427 27.4949 25.0872 27.2663 26.4362H32.6662Z" fill="#1F1F1F"/>
<path opacity="0.5" d="M2.42708 26.4362V21.0364C3.77612 21.265 5.02063 21.9076 5.98815 22.8752C6.95567 23.8427 7.59828 25.0872 7.82693 26.4362H2.42708Z" fill="#F396C1"/>
<path opacity="0.5" d="M2.42708 9.15601V14.5559C3.77612 14.3272 5.02063 13.6846 5.98815 12.7171C6.95567 11.7496 7.59828 10.505 7.82693 9.15601H2.42708Z" fill="#F396C1"/>
<path d="M17.5463 22.1156C19.9321 22.1156 21.8662 20.1815 21.8662 17.7957C21.8662 15.4099 19.9321 13.4758 17.5463 13.4758C15.1605 13.4758 13.2264 15.4099 13.2264 17.7957C13.2264 20.1815 15.1605 22.1156 17.5463 22.1156Z" stroke="#1F1F1F" stroke-width="1.72795" stroke-linecap="round" stroke-linejoin="round"/>
<path d="M32.6663 9.15601H2.42708V26.4355H32.6663V9.15601Z" stroke="#1F1F1F" stroke-width="1.72795" stroke-linecap="round" stroke-linejoin="round"/>
<path d="M32.6661 14.5559C31.3171 14.3272 30.0726 13.6846 29.1051 12.7171C28.1376 11.7496 27.4949 10.505 27.2663 9.15601" stroke="#1F1F1F" stroke-width="1.72795" stroke-linecap="round" stroke-linejoin="round"/>
<path d="M27.2663 26.4362C27.4949 25.0872 28.1376 23.8427 29.1051 22.8752C30.0726 21.9076 31.3171 21.265 32.6661 21.0364" stroke="#1F1F1F" stroke-width="1.17755" stroke-linecap="round" stroke-linejoin="round"/>
<path d="M2.42708 21.0364C3.77612 21.265 5.02063 21.9076 5.98815 22.8752C6.95567 23.8427 7.59828 25.0872 7.82693 26.4362" stroke="#1F1F1F" stroke-width="1.72795" stroke-linecap="round" stroke-linejoin="round"/>
<path d="M7.82693 9.15601C7.59828 10.505 6.95567 11.7496 5.98815 12.7171C5.02063 13.6846 3.77612 14.3272 2.42708 14.5559" stroke="#1F1F1F" stroke-width="1.72795" stroke-linecap="round" stroke-linejoin="round"/>
<path d="M28.4561 32.3663C29.224 31.5646 29.3751 30.3978 28.9221 29.4526H32.3488C32.4396 29.4526 32.5303 29.4478 32.6205 29.4383C34.1678 29.2752 35.6202 28.5693 36.69 27.4256C37.7625 26.2791 38.3725 24.773 38.3725 23.1921C38.3725 21.6112 37.7625 20.105 36.69 18.9586L35.4281 20.139L36.69 18.9586C35.6202 17.8149 34.1678 17.1089 32.6205 16.9459C32.5303 16.9364 32.4396 16.9316 32.3488 16.9316H30.4299C28.9985 16.9316 27.838 18.092 27.838 19.5235C27.838 20.955 28.9985 22.1155 30.4299 22.1155H32.178C32.474 22.1682 32.7273 22.3107 32.9043 22.4999L34.1662 21.3194L32.9043 22.4999C33.0981 22.7071 33.1886 22.9548 33.1886 23.1921C33.1886 23.4293 33.0981 23.6771 32.9043 23.8843C32.7273 24.0735 32.474 24.2159 32.178 24.2687H28.9428C29.3703 23.3315 29.2121 22.1884 28.4561 21.3992L27.2082 22.5944L28.4561 21.3992C27.4659 20.3654 25.8252 20.3301 24.7914 21.3202L20.9382 25.0109C20.4278 25.4998 20.1391 26.176 20.1391 26.8828C20.1391 27.5895 20.4278 28.2657 20.9382 28.7546L22.083 27.5593L20.9382 28.7546L24.7914 32.4453C25.8252 33.4355 27.4659 33.4001 28.4561 32.3663Z" fill="#1F1F1F" stroke="white" stroke-width="3.45591" stroke-linecap="round" stroke-linejoin="round"/>
</g>
<defs>
<clipPath id="clip0_5478_3690">
<rect width="38.015" height="34.5591" fill="white" transform="translate(0.268768 0.516846)"/>
</clipPath>
</defs>
</svg>
