<svg width="22" height="22" viewBox="0 0 22 22" fill="none" xmlns="http://www.w3.org/2000/svg">
<g clip-path="url(#clip0_7500_28841)">
<path d="M14.9033 18.8973L19.5586 19.932L18.5239 15.2767C19.2053 14.0021 19.5608 12.5788 19.5586 11.1335C19.5586 6.27405 15.6195 2.33496 10.7601 2.33496C5.90066 2.33496 1.96157 6.27405 1.96157 11.1335C1.96157 15.9929 5.90066 19.932 10.7601 19.932C12.2054 19.9342 13.6287 19.5787 14.9033 18.8973ZM14.6481 17.0381L14.0736 17.3461C13.0542 17.8908 11.9159 18.1747 10.7601 18.1723C9.36793 18.1723 8.00705 17.7595 6.84953 16.986C5.692 16.2126 4.78982 15.1133 4.25707 13.8271C3.72432 12.5409 3.58492 11.1257 3.85652 9.76027C4.12811 8.39487 4.79849 7.14068 5.78289 6.15628C6.76728 5.17189 8.02148 4.50151 9.38687 4.22991C10.7523 3.95832 12.1675 4.09771 13.4537 4.63046C14.7399 5.16321 15.8392 6.06539 16.6126 7.22292C17.3861 8.38044 17.7989 9.74132 17.7989 11.1335C17.7989 12.3072 17.5129 13.4369 16.9718 14.447L16.6648 15.0215L17.2411 17.6144L14.6481 17.0381Z" fill="#747474"/>
</g>
<defs>
<clipPath id="clip0_7500_28841">
<rect width="21.1164" height="21.1164" fill="white" transform="matrix(-1 0 0 1 21.3164 0.575195)"/>
</clipPath>
</defs>
</svg>
