<svg width="39" height="38" viewBox="0 0 39 38" fill="none" xmlns="http://www.w3.org/2000/svg">
<path fill-rule="evenodd" clip-rule="evenodd" d="M26.0239 4.76215C22.8679 3.38861 19.3394 3.04768 15.9666 3.792C12.594 4.53628 9.56414 6.32419 7.32583 8.88211C5.08802 11.4394 3.76046 14.6298 3.53453 17.9764C3.30861 21.3228 4.19579 24.6539 6.06865 27.4734C7.94193 30.2936 10.7028 32.4531 13.9445 33.6228C17.1865 34.7927 20.7304 34.9079 24.0457 33.9505C27.3606 32.9931 30.2634 31.0166 32.3252 28.3229C34.3865 25.6297 35.498 22.3626 35.5 19.0089V17.4372C35.5 16.6088 36.1716 15.9372 37 15.9372C37.8284 15.9372 38.5 16.6088 38.5 17.4372V19.0098C38.4977 23.0281 37.1653 26.9349 34.7075 30.1462C32.2501 33.3568 28.8008 35.6998 24.8781 36.8327C20.9556 37.9655 16.7639 37.8296 12.9262 36.4447C9.08808 35.0597 5.80436 32.4975 3.56971 29.1333C1.33465 25.7685 0.270662 21.7838 0.541345 17.7743C0.812019 13.7649 2.40221 9.95314 5.06816 6.90653C7.7336 3.86048 11.3308 1.74286 15.3201 0.86249C19.3092 -0.0178263 23.483 0.384536 27.2211 2.01138C27.9807 2.34197 28.3285 3.22574 27.9979 3.98535C27.6673 4.74496 26.7835 5.09274 26.0239 4.76215ZM38.074 4.11565C38.6523 4.7088 38.6403 5.65847 38.0472 6.2368L20.5158 23.3298C19.9335 23.8976 19.0047 23.8978 18.4221 23.3303L13.1627 18.2076C12.5692 17.6295 12.5568 16.6799 13.1348 16.0864C13.7128 15.493 14.6625 15.4805 15.2559 16.0585L19.4682 20.1614L35.9529 4.0888C36.546 3.51047 37.4957 3.52249 38.074 4.11565Z" fill="#61B582"/>
</svg>
