<svg width="56" height="31" viewBox="0 0 56 31" fill="none" xmlns="http://www.w3.org/2000/svg">
<path d="M4.50545 14.7073H3.70857C3.68585 14.5766 3.64394 14.4608 3.58286 14.36C3.52178 14.2577 3.44579 14.1711 3.35488 14.1001C3.26397 14.029 3.16028 13.9758 3.0438 13.9403C2.92874 13.9033 2.80445 13.8849 2.67093 13.8849C2.43372 13.8849 2.22349 13.9445 2.04025 14.0638C1.85701 14.1817 1.71355 14.355 1.60985 14.5837C1.50616 14.811 1.45431 15.0887 1.45431 15.4168C1.45431 15.7506 1.50616 16.0319 1.60985 16.2606C1.71497 16.4878 1.85843 16.6597 2.04025 16.7762C2.22349 16.8912 2.43301 16.9488 2.6688 16.9488C2.79948 16.9488 2.92164 16.9317 3.03528 16.8976C3.15034 16.8621 3.25332 16.8103 3.34423 16.7421C3.43656 16.6739 3.51397 16.5901 3.57647 16.4907C3.64039 16.3912 3.68443 16.2776 3.70857 16.1498L4.50545 16.154C4.47562 16.3614 4.41099 16.556 4.31156 16.7378C4.21355 16.9197 4.08499 17.0802 3.9259 17.2194C3.76681 17.3572 3.58073 17.4651 3.36766 17.5432C3.1546 17.6199 2.91809 17.6583 2.65815 17.6583C2.27463 17.6583 1.9323 17.5695 1.63116 17.392C1.33002 17.2144 1.09281 16.958 0.919511 16.6228C0.746216 16.2876 0.659568 15.8856 0.659568 15.4168C0.659568 14.9466 0.746926 14.5447 0.921642 14.2108C1.09636 13.8756 1.33428 13.6192 1.63542 13.4417C1.93656 13.2641 2.27747 13.1753 2.65815 13.1753C2.90105 13.1753 3.1269 13.2094 3.3357 13.2776C3.54451 13.3458 3.73059 13.4459 3.89394 13.578C4.0573 13.7087 4.19153 13.8692 4.29664 14.0596C4.40318 14.2485 4.47278 14.4644 4.50545 14.7073ZM9.1285 15.4168C9.1285 15.887 9.04043 16.2897 8.86429 16.6249C8.68958 16.9587 8.45094 17.2144 8.14838 17.392C7.84725 17.5695 7.50563 17.6583 7.12352 17.6583C6.74142 17.6583 6.39909 17.5695 6.09654 17.392C5.7954 17.213 5.55676 16.9566 5.38063 16.6228C5.20591 16.2876 5.11855 15.8856 5.11855 15.4168C5.11855 14.9466 5.20591 14.5447 5.38063 14.2108C5.55676 13.8756 5.7954 13.6192 6.09654 13.4417C6.39909 13.2641 6.74142 13.1753 7.12352 13.1753C7.50563 13.1753 7.84725 13.2641 8.14838 13.4417C8.45094 13.6192 8.68958 13.8756 8.86429 14.2108C9.04043 14.5447 9.1285 14.9466 9.1285 15.4168ZM8.33375 15.4168C8.33375 15.0858 8.2819 14.8067 8.17821 14.5795C8.07594 14.3508 7.93389 14.1782 7.75208 14.0617C7.57026 13.9438 7.36074 13.8849 7.12352 13.8849C6.88631 13.8849 6.67679 13.9438 6.49497 14.0617C6.31315 14.1782 6.1704 14.3508 6.06671 14.5795C5.96443 14.8067 5.9133 15.0858 5.9133 15.4168C5.9133 15.7478 5.96443 16.0276 6.06671 16.2563C6.1704 16.4836 6.31315 16.6562 6.49497 16.7741C6.67679 16.8905 6.88631 16.9488 7.12352 16.9488C7.36074 16.9488 7.57026 16.8905 7.75208 16.7741C7.93389 16.6562 8.07594 16.4836 8.17821 16.2563C8.2819 16.0276 8.33375 15.7478 8.33375 15.4168ZM13.4618 13.235V17.5986H12.7586L10.7025 14.6263H10.6663V17.5986H9.87583V13.235H10.5832L12.6372 16.2094H12.6755V13.235H13.4618ZM17.909 13.235V17.5986H17.2059L15.1498 14.6263H15.1136V17.5986H14.3231V13.235H15.0305L17.0845 16.2094H17.1228V13.235H17.909ZM18.7704 17.5986V13.235H21.6084V13.8976H19.5608V15.0823H21.4614V15.7449H19.5608V16.936H21.6255V17.5986H18.7704ZM26.15 14.7073H25.3531C25.3304 14.5766 25.2885 14.4608 25.2274 14.36C25.1663 14.2577 25.0903 14.1711 24.9994 14.1001C24.9085 14.029 24.8048 13.9758 24.6883 13.9403C24.5733 13.9033 24.449 13.8849 24.3155 13.8849C24.0782 13.8849 23.868 13.9445 23.6848 14.0638C23.5015 14.1817 23.3581 14.355 23.2544 14.5837C23.1507 14.811 23.0988 15.0887 23.0988 15.4168C23.0988 15.7506 23.1507 16.0319 23.2544 16.2606C23.3595 16.4878 23.503 16.6597 23.6848 16.7762C23.868 16.8912 24.0775 16.9488 24.3133 16.9488C24.444 16.9488 24.5662 16.9317 24.6798 16.8976C24.7949 16.8621 24.8978 16.8103 24.9888 16.7421C25.0811 16.6739 25.1585 16.5901 25.221 16.4907C25.2849 16.3912 25.329 16.2776 25.3531 16.1498L26.15 16.154C26.1202 16.3614 26.0555 16.556 25.9561 16.7378C25.8581 16.9197 25.7295 17.0802 25.5704 17.2194C25.4113 17.3572 25.2253 17.4651 25.0122 17.5432C24.7991 17.6199 24.5626 17.6583 24.3027 17.6583C23.9192 17.6583 23.5768 17.5695 23.2757 17.392C22.9746 17.2144 22.7373 16.958 22.564 16.6228C22.3907 16.2876 22.3041 15.8856 22.3041 15.4168C22.3041 14.9466 22.3915 14.5447 22.5662 14.2108C22.7409 13.8756 22.9788 13.6192 23.28 13.4417C23.5811 13.2641 23.922 13.1753 24.3027 13.1753C24.5456 13.1753 24.7714 13.2094 24.9802 13.2776C25.189 13.3458 25.3751 13.4459 25.5385 13.578C25.7018 13.7087 25.8361 13.8692 25.9412 14.0596C26.0477 14.2485 26.1173 14.4644 26.15 14.7073ZM26.6821 13.8976V13.235H30.1637V13.8976H28.8149V17.5986H28.0308V13.8976H26.6821ZM36.2222 15.4168C36.2222 15.887 36.1342 16.2897 35.958 16.6249C35.7833 16.9587 35.5447 17.2144 35.2421 17.392C34.941 17.5695 34.5994 17.6583 34.2173 17.6583C33.8352 17.6583 33.4928 17.5695 33.1903 17.392C32.8891 17.213 32.6505 16.9566 32.4744 16.6228C32.2997 16.2876 32.2123 15.8856 32.2123 15.4168C32.2123 14.9466 32.2997 14.5447 32.4744 14.2108C32.6505 13.8756 32.8891 13.6192 33.1903 13.4417C33.4928 13.2641 33.8352 13.1753 34.2173 13.1753C34.5994 13.1753 34.941 13.2641 35.2421 13.4417C35.5447 13.6192 35.7833 13.8756 35.958 14.2108C36.1342 14.5447 36.2222 14.9466 36.2222 15.4168ZM35.4275 15.4168C35.4275 15.0858 35.3757 14.8067 35.272 14.5795C35.1697 14.3508 35.0276 14.1782 34.8458 14.0617C34.664 13.9438 34.4545 13.8849 34.2173 13.8849C33.9801 13.8849 33.7705 13.9438 33.5887 14.0617C33.4069 14.1782 33.2641 14.3508 33.1605 14.5795C33.0582 14.8067 33.007 15.0858 33.007 15.4168C33.007 15.7478 33.0582 16.0276 33.1605 16.2563C33.2641 16.4836 33.4069 16.6562 33.5887 16.7741C33.7705 16.8905 33.9801 16.9488 34.2173 16.9488C34.4545 16.9488 34.664 16.8905 34.8458 16.7741C35.0276 16.6562 35.1697 16.4836 35.272 16.2563C35.3757 16.0276 35.4275 15.7478 35.4275 15.4168ZM40.5555 13.235V17.5986H39.8524L37.7963 14.6263H37.7601V17.5986H36.9696V13.235H37.677L39.7309 16.2094H39.7693V13.235H40.5555Z" fill="#1F1F1F"/>
<g clip-path="url(#clip0_5478_3518)">
<path fill-rule="evenodd" clip-rule="evenodd" d="M51.3649 12.7068C51.2985 12.8305 50.971 13.435 50.9252 13.5472C50.8795 13.6594 50.8543 13.7442 50.9779 13.8312C51.0993 13.9182 51.3741 14.1701 51.4542 14.2456C51.5344 14.3212 51.5435 14.3945 51.4748 14.5181C51.4084 14.6418 51.2596 15.0402 50.8153 15.5028C50.4696 15.8623 50.0505 16.0982 49.9223 16.1669C49.794 16.2356 49.7276 16.1669 49.6681 16.1028C49.6131 16.0432 49.5261 15.9722 49.4551 15.9058C49.3841 15.8417 49.3338 15.8188 49.2513 15.773C49.1689 15.7272 49.0956 15.7455 49.0315 15.7753C48.9674 15.8051 48.3422 16.0318 48.0858 16.1257C47.8316 16.2218 47.8682 16.3272 47.8659 16.4004C47.8637 16.4737 47.8499 16.5562 47.8476 16.6409C47.8453 16.7256 47.8705 16.8607 47.9919 16.9798C48.1133 17.0989 48.4041 17.4355 49.0201 17.4584C49.636 17.4813 50.2497 17.0554 50.3345 16.9958C50.4215 16.9363 51.7565 16.1806 52.3061 14.9257C52.8556 13.6709 52.6885 13.664 52.677 13.4327C52.6656 13.2014 52.4022 12.6794 52.1137 12.5649C51.8252 12.4504 51.5733 12.4412 51.5206 12.4687C51.468 12.4984 51.4336 12.5809 51.3649 12.7023L51.3649 12.7068ZM54.3372 15.0082C54.3372 15.8371 54.0876 16.6111 53.6617 17.2569L54.1655 18.8277L52.6473 18.3171C51.974 18.8071 51.1451 19.0957 50.252 19.0957C47.9965 19.0934 46.1623 17.2614 46.1623 15.0082C46.1623 12.7549 47.9965 10.9207 50.2497 10.9207C52.503 10.9207 54.3372 12.7549 54.3372 15.0082ZM45.3402 15.0082C45.3402 17.7194 47.5385 19.9177 50.2497 19.9177C51.1771 19.9177 52.045 19.6613 52.7846 19.2124L55.418 20.0986L54.5479 17.3805C54.9372 16.6775 55.1593 15.8692 55.1593 15.0082C55.1593 12.2969 52.961 10.0986 50.2497 10.0986C47.5385 10.0986 45.3402 12.2969 45.3402 15.0082Z" fill="#00C169"/>
</g>
<defs>
<clipPath id="clip0_5478_3518">
<rect width="10" height="10.0779" fill="white" transform="translate(45.34 20.0986) rotate(-90)"/>
</clipPath>
</defs>
</svg>
