<svg width="25" height="24" viewBox="0 0 25 24" fill="none" xmlns="http://www.w3.org/2000/svg">
<rect width="25" height="24" fill="#1E1E1E"/>
<g id="Dashboard">
<path d="M-1648.1 -1531C-1648.1 -1532.1 -1647.21 -1533 -1646.1 -1533H25712.9C25714 -1533 25714.9 -1532.1 25714.9 -1531V5914C25714.9 5915.1 25714 5916 25712.9 5916H-1646.1C-1647.21 5916 -1648.1 5915.1 -1648.1 5914V-1531Z" fill="#444444"/>
<path d="M-1646.1 -1533V-1532H25712.9V-1533V-1534H-1646.1V-1533ZM25714.9 -1531H25713.9V5914H25714.9H25715.9V-1531H25714.9ZM25712.9 5916V5915H-1646.1V5916V5917H25712.9V5916ZM-1648.1 5914H-1647.1V-1531H-1648.1H-1649.1V5914H-1648.1ZM-1646.1 5916V5915C-1646.66 5915 -1647.1 5914.55 -1647.1 5914H-1648.1H-1649.1C-1649.1 5915.66 -1647.76 5917 -1646.1 5917V5916ZM25714.9 5914H25713.9C25713.9 5914.55 25713.4 5915 25712.9 5915V5916V5917C25714.6 5917 25715.9 5915.66 25715.9 5914H25714.9ZM25712.9 -1533V-1532C25713.4 -1532 25713.9 -1531.55 25713.9 -1531H25714.9H25715.9C25715.9 -1532.66 25714.6 -1534 25712.9 -1534V-1533ZM-1646.1 -1533V-1534C-1647.76 -1534 -1649.1 -1532.66 -1649.1 -1531H-1648.1H-1647.1C-1647.1 -1531.55 -1646.66 -1532 -1646.1 -1532V-1533Z" fill="white" fill-opacity="0.1"/>
<g id="Order Tracking" clip-path="url(#clip0_3934_17554)">
<rect width="1440" height="5550" transform="translate(-999.207 -848)" fill="white"/>
<g id="Group 34985">
<g id="Frame 1000007082">
<g id="Frame 1000007070">
<g id="Frame 1000007065">
<rect x="-143.707" y="-48" width="184.5" height="88" rx="8" fill="#F8F8F8"/>
<g id="Frame 1000007062">
<g id="Icon/Glyph/25/Copy">
<g id="iconspace_Copy_25px">
<path id="Combined Shape" d="M6.55273 16.7998C6.55273 18.6555 8.05741 20.1602 9.91309 20.1602H18.0244C17.8019 21.2555 16.8338 22.0801 15.6729 22.0801H6.07324C4.74776 22.0801 3.67285 21.0052 3.67285 19.6797V7.2002C3.67285 5.87471 4.74776 4.7998 6.07324 4.7998H6.55273V16.7998ZM17.1348 6.27148C17.1348 7.06232 17.7935 7.69531 18.5967 7.69531H21.9131V16.7998C21.9131 18.1253 20.8382 19.2002 19.5127 19.2002H9.91309C8.5876 19.2002 7.5127 18.1253 7.5127 16.7998V4.32031C7.5127 2.99483 8.5876 1.91992 9.91309 1.91992H17.1348V6.27148ZM18.0947 2.21289C18.197 2.29046 18.2896 2.38203 18.3691 2.48633L21.6094 6.73535H18.5967C18.3155 6.73535 18.0948 6.52357 18.0947 6.27148V2.21289Z" fill="#BDBDBD"/>
</g>
</g>
</g>
</g>
</g>
</g>
</g>
</g>
</g>
<defs>
<clipPath id="clip0_3934_17554">
<rect width="1440" height="5550" fill="white" transform="translate(-999.207 -848)"/>
</clipPath>
</defs>
</svg>
