<svg width="48" height="46" viewBox="0 0 48 46" fill="none" xmlns="http://www.w3.org/2000/svg">
<g id="Free Shipping">
<path id="Vector" d="M30.4648 14.3848H40.0706C40.515 14.3848 40.949 14.5128 41.3159 14.7521C41.6829 14.9914 41.9658 15.3308 42.1277 15.7261L45.7053 24.2696C45.9185 24.7717 46.0278 25.3084 46.0273 25.8502V38.4348C46.0284 38.713 45.9712 38.9887 45.8591 39.2454C45.747 39.5022 45.5822 39.7349 45.3744 39.9299C45.168 40.1279 44.9227 40.2849 44.6525 40.3919C44.3824 40.499 44.0927 40.5539 43.8003 40.5536H39.7397" stroke="#A0A0A0" stroke-width="2" stroke-linecap="round" stroke-linejoin="round"/>
<path id="Vector_2" d="M46.0192 29.2413H37.1289V20.749H44.2393" stroke="#A0A0A0" stroke-width="2" stroke-linecap="round" stroke-linejoin="round"/>
<path id="Vector_3" d="M32.6928 40.7412H15.2969" stroke="#A0A0A0" stroke-width="2" stroke-linecap="round" stroke-linejoin="round"/>
<path id="Vector_4" d="M25.0358 10.1465H28.2467C28.835 10.1465 29.3991 10.3697 29.8151 10.7671C30.2311 11.1644 30.4648 11.7033 30.4648 12.2653V31.3601H1.59375" stroke="#A0A0A0" stroke-width="2" stroke-linecap="round" stroke-linejoin="round"/>
<path id="Vector_5" d="M8.25647 40.7323H3.7845C3.1954 40.7301 2.63125 40.5049 2.21553 40.1062C1.79981 39.7075 1.5664 39.1677 1.56641 38.605V12.2653C1.56876 11.704 1.8032 11.1664 2.21867 10.7696C2.63413 10.3727 3.19695 10.1487 3.7845 10.1465H6.55712" stroke="#A0A0A0" stroke-width="2" stroke-linecap="round" stroke-linejoin="round"/>
<path id="Vector_6" d="M38.6928 38.3573C39.0219 38.6649 39.2807 39.0344 39.453 39.4423C39.6311 39.8511 39.7223 40.2896 39.7213 40.7324C39.7223 41.1724 39.6311 41.6081 39.453 42.0139C39.2809 42.4244 39.0221 42.7967 38.6928 43.1075C38.3665 43.417 37.9809 43.6636 37.5569 43.8337C37.129 44.0037 36.6699 44.0909 36.2064 44.09C35.7457 44.0916 35.2894 44.0044 34.8648 43.8337C34.4376 43.6645 34.0489 43.4179 33.72 43.1075C33.3906 42.7967 33.1319 42.4244 32.9597 42.0139C32.7817 41.6081 32.6905 41.1724 32.6914 40.7324C32.6905 40.2896 32.7817 39.8511 32.9597 39.4423C33.132 39.0344 33.3909 38.6649 33.72 38.3573C34.0458 38.0411 34.4352 37.7912 34.8648 37.6225C35.2906 37.4554 35.7461 37.3684 36.2064 37.3662C36.6694 37.3696 37.1277 37.4566 37.5569 37.6225C37.9826 37.7934 38.3687 38.0431 38.6928 38.3573Z" stroke="#1F1F1F" stroke-width="2" stroke-linecap="round" stroke-linejoin="round"/>
<path id="Vector_7" d="M14.2561 38.3573C14.5868 38.6654 14.8485 39.0346 15.0253 39.4423C15.3801 40.2631 15.3801 41.1846 15.0253 42.0054C14.8507 42.4147 14.5923 42.7866 14.2652 43.0991C13.938 43.4116 13.5487 43.6585 13.1202 43.8252C12.6954 43.9952 12.2392 44.0824 11.7786 44.0815C11.3151 44.0824 10.856 43.9952 10.4281 43.8252C10.0041 43.6551 9.61844 43.4085 9.29219 43.099C8.80076 42.6299 8.46587 42.0322 8.3298 41.3815C8.19373 40.7307 8.26259 40.0561 8.52768 39.4427C8.79277 38.8293 9.24219 38.3046 9.81921 37.9351C10.3962 37.5655 11.075 37.3676 11.7697 37.3662C12.2316 37.3641 12.6894 37.4499 13.1163 37.6186C13.5432 37.7873 13.9307 38.0355 14.2561 38.3488" stroke="#1F1F1F" stroke-width="2" stroke-linecap="round" stroke-linejoin="round"/>
<path id="Vector_8" d="M15.8066 19.3053C14.5919 19.3086 13.3885 19.0827 12.2655 18.6405C11.1424 18.1983 10.1219 17.5485 9.26258 16.7284C8.40323 15.9083 7.72197 14.9341 7.25794 13.8618C6.79391 12.7895 6.55625 11.6401 6.55861 10.4798C6.59553 8.15013 7.58079 5.92577 9.30551 4.27826C11.0302 2.63074 13.3588 1.6896 15.7977 1.65433C18.2463 1.6482 20.5975 2.56993 22.3357 4.21739C23.1873 5.03979 23.8646 6.01163 24.3302 7.07947C25.2664 9.24244 25.2657 11.6719 24.3283 13.8344C23.3909 15.9969 21.5934 17.7156 19.3306 18.6132C18.209 19.0512 17.0093 19.2775 15.7977 19.2796" stroke="#1F1F1F" stroke-width="2"/>
<path id="Vector_9" d="M19.9019 8.52344L14.7771 13.4274L11.6914 10.4799" stroke="#E278A1" stroke-width="2" stroke-linecap="round" stroke-linejoin="round"/>
</g>
</svg>
