<svg width="94" height="24" viewBox="0 0 94 24" fill="none" xmlns="http://www.w3.org/2000/svg">
<path d="M9.93581 9.97421H9.93647C10.348 10.0784 10.7668 10.194 11.1875 10.2199C12.5419 10.3035 13.8984 10.3839 15.2541 10.4011C17.4666 10.4297 21.4603 10.419 23.641 10.4197C24.4952 10.4197 25.3493 10.4476 26.2028 10.4144C26.872 10.3885 27.5102 10.2046 28.0482 9.77237C28.3292 9.54664 28.3298 9.4092 28.0482 9.19143C27.5214 8.78312 26.9019 8.60187 26.2558 8.59456C25.1996 8.58261 24.142 8.63373 23.0851 8.65232C21.1297 8.68751 21.7963 8.72469 19.8408 8.75258C16.3044 8.80171 14.9407 8.87872 11.4141 9.17484C10.9185 9.21666 10.4275 9.33816 9.94111 9.45169C9.83244 9.47692 9.75292 9.62432 9.66016 9.71594C9.7516 9.80491 9.82979 9.94632 9.93647 9.97354L9.93581 9.97421Z" fill="#F82D8B"/>
<path d="M17.0509 13.9737V13.9724C16.6725 13.8084 16.2299 13.7101 15.8177 13.7161C13.7232 13.746 13.1168 13.8157 11.0236 13.8774C9.54989 13.9212 9.05424 13.9571 7.58188 14.0288C5.83319 14.1131 4.0845 14.2173 2.3378 14.3435C1.7474 14.386 1.15964 14.5042 0.57785 14.6243C0.463215 14.6482 0.298882 14.8408 0.304845 14.9483C0.312797 15.0864 0.440022 15.2776 0.566585 15.3354C0.803808 15.443 1.07482 15.508 1.33524 15.522C1.93227 15.5532 2.53195 15.5459 3.13031 15.5465C5.34218 15.5485 8.93696 15.5558 9.01184 15.5545C11.716 15.5014 12.932 15.4529 15.6362 15.3898C16.1451 15.3786 16.6659 15.3673 17.1119 15.0532C17.583 14.7206 17.5803 14.2041 17.0516 13.975L17.0509 13.9737Z" fill="#F82D8B"/>
<path d="M31.4099 19.269H31.4106C30.8964 19.0997 30.3795 18.8826 29.8494 18.8288C28.6573 18.7073 27.458 18.6516 26.1168 18.5686C25.8584 18.5526 25.5999 18.554 25.3408 18.5732C23.7419 18.6901 22.0032 18.8096 20.2664 18.9576C19.7144 19.0048 19.175 19.1615 18.7145 19.5014C18.4866 19.67 18.5005 19.8559 18.7689 19.9383C19.0823 20.0332 19.4123 20.1328 19.7343 20.1275C20.7044 20.1109 21.6732 20.014 22.6433 20.0033C24.6815 19.9814 26.7198 19.9854 28.758 19.998C29.634 20.004 30.5107 20.0405 31.3655 19.8148C31.4828 19.7836 31.6206 19.6528 31.6504 19.5419C31.6683 19.4742 31.5146 19.3036 31.4092 19.269H31.4099Z" fill="#F82D8B"/>
<path d="M32.2441 14.3869V14.3856C32.1679 14.3192 32.0513 14.2993 31.9526 14.2614C30.7943 13.8093 29.5697 13.7987 28.3565 13.7615C26.1015 13.6918 23.8492 13.7641 21.6056 14.0144C20.9058 14.0921 20.2008 14.1731 19.6011 14.5967C19.5163 14.6571 19.4156 14.7766 19.4222 14.8616C19.4281 14.9393 19.556 15.0362 19.6501 15.0754C20.1988 15.3005 20.7786 15.2832 21.3551 15.256C22.8162 15.1863 24.276 15.0714 25.7377 15.0482C27.2644 15.0229 31.5742 15.0389 32.1938 14.9399C32.3038 14.9227 32.4774 14.7839 32.4741 14.7076C32.4688 14.596 32.3448 14.4745 32.2448 14.3876L32.2441 14.3869Z" fill="#F82D8B"/>
<path d="M28.4772 0.886106C28.7826 1.02487 29.1166 1.14969 29.4459 1.17691C30.4876 1.26388 33.2196 1.31965 33.539 1.33094C34.2639 1.35683 34.9603 1.21541 35.6382 0.97972C35.7555 0.938556 35.8894 0.798467 35.9112 0.684271C35.9258 0.608583 35.7681 0.436626 35.6627 0.411396C35.0233 0.256701 34.3799 0.0369404 33.7325 0.0170225C32.3363 -0.0261329 30.9355 0.0203421 29.5387 0.0721286C29.1789 0.0860711 28.8098 0.218857 28.4732 0.364921C28.1836 0.491068 28.1876 0.755975 28.4758 0.886106H28.4772Z" fill="#F82D8B"/>
<path d="M14.7686 18.7593H14.7699C14.2166 18.7401 13.66 18.7281 13.1087 18.766C12.6217 18.7985 12.1313 18.8656 11.7032 19.1458C11.4269 19.327 11.409 19.657 11.696 19.817C11.9352 19.9504 12.1949 20.0766 12.4606 20.1244C12.9629 20.214 14.3087 20.2784 14.4671 20.2658C14.9323 20.2293 15.3722 20.1343 15.6996 19.7513C15.8533 19.5713 15.8639 19.4186 15.7095 19.244C15.4584 18.9592 15.1469 18.7726 14.7679 18.76L14.7686 18.7593Z" fill="#F82D8B"/>
<path d="M32.1478 4.01501C31.6607 4.04754 31.1704 4.1146 30.7423 4.39478C30.466 4.57603 30.4481 4.906 30.735 5.06601C30.9742 5.19946 31.234 5.32561 31.4997 5.37341C32.002 5.46238 33.3478 5.52744 33.5061 5.51416C33.9713 5.47765 34.4113 5.38271 34.7386 4.99962C34.8924 4.81969 34.903 4.66699 34.7486 4.49238C34.4974 4.20755 34.186 4.02099 33.807 4.00837H33.8083C33.255 3.98912 32.6984 3.97717 32.1471 4.01501H32.1478Z" fill="#F82D8B"/>
<path d="M33.3397 8.85158H33.3404C33.0064 8.55813 32.628 8.59132 32.2477 8.56543C31.9681 8.59796 31.6878 8.61788 31.4101 8.66568C31.1113 8.71747 30.8674 9.02952 30.8376 9.36546C30.8018 9.76714 30.9383 10.1303 31.2385 10.2492C31.8495 10.4902 32.479 10.5234 33.1098 10.358C33.1767 10.3408 33.239 10.2903 33.2986 10.2465C33.7691 9.90125 33.7837 9.24197 33.3397 8.85291V8.85158Z" fill="#F82D8B"/>
<path d="M22.166 5.48923H22.1673C23.8478 5.64924 27.0046 5.76344 27.7706 5.59812C27.8521 5.58085 27.9269 5.5304 27.9998 5.48658C28.571 5.14133 28.5883 4.48205 28.0495 4.09299C27.644 3.79953 27.1841 3.97614 26.7229 3.95024C26.3837 3.98278 24.2036 4.1076 23.8637 4.13548C21.3768 4.33466 18.5918 4.27159 18.556 4.60621C18.5129 5.00788 19.5281 5.21769 22.1654 5.4899L22.166 5.48923Z" fill="#F82D8B"/>
<path d="M37.9455 4.85691H41.4688L41.6702 3.96857H38.1463L38.738 1.44498H42.9703L43.1836 0.556641H37.9926L36.1836 8.37507H37.1298L37.9455 4.85691Z" fill="#F82D8B"/>
<path d="M45.2579 3.42947C45.5216 3.29137 45.8039 3.22232 46.1034 3.22232C46.2372 3.22232 46.3539 3.23228 46.4519 3.2522C46.5507 3.27212 46.6388 3.30133 46.7177 3.34116L47.0013 2.44088C46.9224 2.40171 46.8336 2.37382 46.7355 2.35789C46.6368 2.34195 46.5248 2.33398 46.3989 2.33398C46.1226 2.33398 45.845 2.38909 45.5653 2.49997C45.2857 2.61084 45.0352 2.77085 44.8146 2.97999C44.686 3.10215 44.5734 3.23892 44.4766 3.38897L44.5661 2.45283H43.7974L42.4258 8.3764H43.372L44.1168 5.16564C44.2189 4.7155 44.3693 4.34835 44.5661 4.06418C44.7629 3.78002 44.9935 3.56889 45.2579 3.43013V3.42947Z" fill="#F82D8B"/>
<path d="M51.5018 2.64182C51.1592 2.44463 50.747 2.3457 50.2659 2.3457C49.596 2.3457 49.0262 2.50571 48.5577 2.82572C48.0885 3.14574 47.732 3.56999 47.4875 4.09914C47.243 4.62829 47.1211 5.2006 47.1211 5.81672C47.1211 6.31401 47.2231 6.76481 47.4286 7.16715C47.6333 7.57016 47.9308 7.88951 48.3211 8.12653C48.7114 8.36355 49.1786 8.48173 49.7219 8.48173C50.0923 8.48173 50.4329 8.4326 50.7444 8.33368C51.0558 8.23475 51.3335 8.09267 51.578 7.90744C51.8225 7.7222 52.0312 7.5031 52.2048 7.25015L51.46 6.75286C51.2944 7.02109 51.0817 7.23886 50.8212 7.40418C50.5615 7.57016 50.2302 7.65713 49.828 7.6651C49.4734 7.6651 49.166 7.58809 48.9056 7.43405C48.6458 7.28002 48.4424 7.0669 48.2966 6.79403C48.1508 6.52182 48.0779 6.20778 48.0779 5.85191C48.0779 5.78087 48.0806 5.70983 48.0839 5.63879H52.3937C52.4487 5.45687 52.4904 5.2816 52.5176 5.11163C52.5454 4.94166 52.5587 4.77834 52.5587 4.61966C52.5587 4.18545 52.4679 3.79639 52.287 3.45247C52.1054 3.10922 51.8437 2.83834 51.5004 2.64115L51.5018 2.64182ZM49.2197 3.39405C49.4913 3.24002 49.8207 3.163 50.207 3.163C50.5065 3.163 50.7629 3.22209 50.9756 3.34093C51.1883 3.45911 51.352 3.62509 51.466 3.83822C51.5799 4.05134 51.6376 4.30031 51.6376 4.58447C51.6376 4.65684 51.6323 4.73186 51.6243 4.80954H48.2105C48.286 4.52007 48.4013 4.25516 48.557 4.01548C48.7267 3.75522 48.9473 3.54741 49.219 3.39338L49.2197 3.39405Z" fill="#F82D8B"/>
<path d="M55.0256 8.1272C55.4159 8.36422 55.883 8.4824 56.4264 8.4824C56.7968 8.4824 57.1374 8.43327 57.4488 8.33434C57.7603 8.23542 58.0379 8.09334 58.2824 7.9081C58.5269 7.72286 58.7357 7.50377 58.9093 7.25081L58.1645 6.75353C57.9988 7.02175 57.7861 7.23952 57.5257 7.40484C57.2659 7.57082 56.9346 7.6578 56.5324 7.66577C56.1779 7.66577 55.8704 7.58875 55.61 7.43472C55.3503 7.28069 55.1468 7.06756 55.0011 6.79469C54.8553 6.52248 54.7824 6.20844 54.7824 5.85258C54.7824 5.78154 54.785 5.71049 54.7883 5.63945H59.0981C59.1531 5.45754 59.1949 5.28226 59.222 5.11229C59.2499 4.94233 59.2631 4.779 59.2631 4.62032C59.2631 4.18611 59.1723 3.79705 58.9914 3.45314C58.8099 3.10989 58.5481 2.839 58.2049 2.64182C57.8623 2.44463 57.4501 2.3457 56.9691 2.3457C56.2992 2.3457 55.7293 2.50571 55.2608 2.82572C54.7917 3.14574 54.4352 3.56999 54.1907 4.09914C53.9461 4.62829 53.8242 5.2006 53.8242 5.81672C53.8242 6.31401 53.9263 6.76481 54.1317 7.16715C54.3364 7.57016 54.634 7.88951 55.0242 8.12653L55.0256 8.1272ZM55.9241 3.39471C56.1958 3.24068 56.5251 3.16366 56.9114 3.16366C57.2109 3.16366 57.4674 3.22275 57.6801 3.3416C57.8928 3.45978 58.0565 3.62576 58.1704 3.83888C58.2844 4.052 58.342 4.30097 58.342 4.58513C58.342 4.6575 58.3367 4.73253 58.3288 4.81021H54.9149C54.9905 4.52073 55.1058 4.25583 55.2615 4.01615C55.4311 3.75589 55.6518 3.54808 55.9234 3.39405L55.9241 3.39471Z" fill="#F82D8B"/>
<path d="M41.3608 10.8571C40.7353 10.5112 39.9719 10.3379 39.0708 10.3379H35.7973L33.5 20.2669H37.719C38.5797 20.2669 39.3504 20.1242 40.0316 19.838C40.7121 19.5519 41.2952 19.1462 41.7809 18.6197C42.2666 18.0932 42.637 17.4718 42.8922 16.7541C43.1473 16.0371 43.2752 15.2523 43.2752 14.3998C43.2752 13.5978 43.1121 12.8934 42.7875 12.2859C42.4621 11.679 41.9863 11.203 41.3608 10.8564V10.8571ZM40.9328 16.0025C40.7823 16.4992 40.5623 16.9427 40.2721 17.3337C39.9819 17.7248 39.624 18.0361 39.1986 18.2665C38.7732 18.4976 38.2849 18.6124 37.7349 18.6124H35.963L37.4943 11.9931H38.8309C39.3616 11.9931 39.797 12.0986 40.1369 12.3091C40.4769 12.5196 40.7326 12.8104 40.9029 13.1815C41.0732 13.5526 41.158 13.9842 41.158 14.4755C41.158 14.9973 41.0832 15.5059 40.9328 16.0025Z" fill="#F82D8B"/>
<path d="M50.2787 13.0157C49.793 12.7448 49.2053 12.6094 48.5148 12.6094C47.6441 12.6094 46.898 12.8052 46.2778 13.1963C45.6569 13.5873 45.1818 14.1138 44.8511 14.7758C44.5211 15.4377 44.3555 16.18 44.3555 17.0026C44.3555 17.6645 44.5032 18.2514 44.7981 18.7627C45.093 19.2739 45.5084 19.6756 46.0445 19.9664C46.5799 20.2572 47.2081 20.4026 47.929 20.4026C48.4598 20.4026 48.9475 20.3322 49.3928 20.1921C49.8381 20.052 50.2284 19.8535 50.5637 19.5979C50.899 19.3423 51.1614 19.0336 51.3522 18.6724L49.6704 17.9201C49.52 18.201 49.3153 18.434 49.0549 18.6199C48.7944 18.8058 48.4592 18.8981 48.049 18.8981C47.6984 18.8981 47.393 18.8257 47.1332 18.6797C46.8728 18.5343 46.67 18.3285 46.5249 18.0629C46.3898 17.8152 46.3182 17.5218 46.3089 17.1825H51.6226C51.6829 16.982 51.7226 16.7788 51.7425 16.573C51.7624 16.3679 51.7723 16.1647 51.7723 15.9635C51.7723 15.2717 51.6444 14.6749 51.3893 14.1736C51.1342 13.6723 50.7638 13.2859 50.2781 13.015L50.2787 13.0157ZM47.4261 14.3847C47.7011 14.2041 48.0443 14.1138 48.4545 14.1138C48.7348 14.1138 48.9747 14.1689 49.1755 14.2792C49.3756 14.3894 49.5306 14.5474 49.6406 14.7532C49.7506 14.959 49.8056 15.212 49.8056 15.5127C49.8056 15.5911 49.8016 15.6721 49.7957 15.7531H46.4911C46.56 15.522 46.6508 15.3036 46.7655 15.0984C46.9305 14.803 47.1505 14.5646 47.4261 14.3841V14.3847Z" fill="#F82D8B"/>
<path d="M57.1048 9.4502H55.048L53.1111 17.8296C52.9309 18.6018 53.0057 19.2212 53.3364 19.6873C53.667 20.1534 54.2422 20.3871 55.0632 20.3871C55.2931 20.3871 55.4933 20.3745 55.6636 20.3493C55.8339 20.324 55.9988 20.2815 56.1592 20.2211L56.5647 18.8222C56.4846 18.8421 56.3944 18.8574 56.2944 18.8674C56.1943 18.8773 56.079 18.8826 55.9492 18.8826C55.6086 18.8826 55.3713 18.7977 55.2362 18.627C55.101 18.4564 55.0785 18.1908 55.1686 17.8296L57.1054 9.4502H57.1048Z" fill="#F82D8B"/>
<path d="M57.375 20.2668H59.4318L61.1732 12.7451H59.1164L57.375 20.2668Z" fill="#F82D8B"/>
<path d="M61.6106 9.70581C61.4005 9.53518 61.1096 9.4502 60.7399 9.4502C60.3496 9.4502 60.0361 9.54779 59.8016 9.74365C59.5663 9.93951 59.4338 10.2429 59.404 10.6539C59.3742 10.9852 59.4643 11.2355 59.6744 11.4061C59.8844 11.5768 60.17 11.6617 60.5305 11.6617C60.9208 11.6617 61.2362 11.5668 61.4767 11.3756C61.7172 11.185 61.8524 10.8743 61.8822 10.4428C61.9121 10.1221 61.8219 9.87644 61.6119 9.70581H61.6106Z" fill="#F82D8B"/>
<path d="M67.8683 12.7451L64.7678 18.7836L64.2497 12.7451H62.2227L63.2888 20.2668H65.6763L70.1656 12.7451H67.8683Z" fill="#F82D8B"/>
<path d="M76.0756 13.0157C75.5899 12.7448 75.0022 12.6094 74.3117 12.6094C73.441 12.6094 72.6949 12.8052 72.0746 13.1963C71.4538 13.5873 70.9786 14.1138 70.648 14.7758C70.318 15.4377 70.1523 16.18 70.1523 17.0026C70.1523 17.6645 70.3001 18.2514 70.595 18.7627C70.8899 19.2739 71.3053 19.6756 71.8414 19.9664C72.3768 20.2572 73.005 20.4026 73.7259 20.4026C74.2567 20.4026 74.7444 20.3322 75.1897 20.1921C75.635 20.052 76.0253 19.8535 76.3606 19.5979C76.6958 19.3423 76.9582 19.0336 77.1491 18.6724L75.4673 17.9201C75.3169 18.201 75.1122 18.434 74.8517 18.6199C74.5913 18.8058 74.256 18.8981 73.8459 18.8981C73.4953 18.8981 73.1899 18.8257 72.9301 18.6797C72.6697 18.5343 72.4669 18.3285 72.3218 18.0629C72.1866 17.8152 72.1151 17.5218 72.1058 17.1825H77.4194C77.4797 16.982 77.5195 16.7788 77.5394 16.573C77.5592 16.3679 77.5692 16.1647 77.5692 15.9635C77.5692 15.2717 77.4413 14.6749 77.1862 14.1736C76.9311 13.6723 76.5607 13.2859 76.075 13.015L76.0756 13.0157ZM73.223 14.3847C73.498 14.2041 73.8412 14.1138 74.2514 14.1138C74.5317 14.1138 74.7716 14.1689 74.9723 14.2792C75.1724 14.3894 75.3275 14.5474 75.4375 14.7532C75.5475 14.959 75.6025 15.212 75.6025 15.5127C75.6025 15.5911 75.5985 15.6721 75.5926 15.7531H72.288C72.3569 15.522 72.4477 15.3036 72.5623 15.0984C72.7273 14.803 72.9473 14.5646 73.223 14.3841V14.3847Z" fill="#F82D8B"/>
<path d="M84.0855 14.3999C84.2154 14.4298 84.3307 14.4703 84.4307 14.5201L84.9562 12.7302C84.8661 12.6804 84.7634 12.6452 84.6481 12.6246C84.5328 12.6047 84.3903 12.5947 84.22 12.5947C83.7893 12.5947 83.3891 12.6903 83.0187 12.8809C82.6482 13.0714 82.3282 13.3397 82.0578 13.6856C81.9127 13.8715 81.7842 14.0753 81.6709 14.297L81.9074 12.7454H80.121L78.3789 20.2678H80.4357L81.2918 16.567C81.4118 16.0458 81.5867 15.6242 81.8173 15.3036C82.0472 14.9829 82.3176 14.7445 82.6284 14.5892C82.9385 14.4338 83.2638 14.3561 83.6044 14.3561C83.7946 14.3561 83.955 14.3714 84.0848 14.4013L84.0855 14.3999Z" fill="#F82D8B"/>
<path d="M91.0977 12.7451L88.8606 16.9577L87.9449 18.7331L87.7799 16.8827L87.3896 12.7458H85.3175L86.6388 20.3584L86.1882 21.0807C86.008 21.3715 85.8026 21.5847 85.5727 21.7201C85.3421 21.8555 85.0823 21.9233 84.7921 21.9233C84.3117 21.9233 83.9015 21.7726 83.5609 21.4718L82.9453 22.9915C83.1355 23.1422 83.3959 23.2644 83.7259 23.36C84.0559 23.455 84.4316 23.5028 84.8517 23.5028C85.3023 23.5028 85.7171 23.4277 86.0981 23.277C86.4785 23.1263 86.8389 22.8807 87.1789 22.5401C87.5188 22.1988 87.8495 21.7526 88.1702 21.2009L93.3056 12.7458H91.0983L91.0977 12.7451Z" fill="#F82D8B"/>
</svg>
