<svg width="17" height="17" viewBox="0 0 17 17" fill="none" xmlns="http://www.w3.org/2000/svg">
<g clip-path="url(#clip0_5478_3447)">
<g clip-path="url(#clip1_5478_3447)">
<path fill-rule="evenodd" clip-rule="evenodd" d="M9.25999 1.71863L10.688 6.14863L15.149 6.20263C15.533 6.20763 15.692 6.72063 15.384 6.96063L11.805 9.75263L13.135 14.2176C13.249 14.6016 12.833 14.9176 12.52 14.6856L8.87999 11.9806L5.23999 14.6856C4.92699 14.9186 4.51099 14.6016 4.62499 14.2176L5.95499 9.75263L2.37499 6.96063C2.06799 6.72063 2.22699 6.20763 2.61099 6.20363L7.07199 6.14863L8.49999 1.71863C8.62299 1.33663 9.13799 1.33663 9.25999 1.71863Z" fill="#FED130"/>
</g>
</g>
<defs>
<clipPath id="clip0_5478_3447">
<rect width="16" height="16" fill="white" transform="translate(0.879974 0.0986328)"/>
</clipPath>
<clipPath id="clip1_5478_3447">
<rect width="16" height="16" fill="white" transform="translate(0.879974 0.0986328)"/>
</clipPath>
</defs>
</svg>
