<svg width="17" height="16" viewBox="0 0 17 16" fill="none" xmlns="http://www.w3.org/2000/svg">
<g clip-path="url(#clip0_7539_4242)">
<path d="M2.52839 3.83625C2.46333 3.76465 2.42044 3.67571 2.40492 3.58022C2.38939 3.48473 2.40191 3.38678 2.44094 3.29826C2.47998 3.20974 2.54385 3.13445 2.62483 3.0815C2.7058 3.02856 2.8004 3.00025 2.89714 3H13.8971C13.994 3.00001 14.0888 3.02815 14.1699 3.08099C14.2511 3.13384 14.3151 3.20912 14.3543 3.29769C14.3935 3.38626 14.4061 3.48431 14.3907 3.57991C14.3752 3.67552 14.3323 3.76457 14.2671 3.83625L9.89714 8.5V12.1656C9.89719 12.248 9.87691 12.329 9.8381 12.4017C9.79928 12.4743 9.74313 12.5362 9.67464 12.5819L7.67464 13.915C7.59941 13.9652 7.51198 13.994 7.42165 13.9985C7.33132 14.0029 7.24148 13.9828 7.1617 13.9402C7.08192 13.8976 7.01518 13.8342 6.96859 13.7566C6.922 13.6791 6.89731 13.5904 6.89714 13.5V8.5L2.52839 3.83625Z" stroke="black" stroke-linecap="round" stroke-linejoin="round"/>
</g>
<defs>
<clipPath id="clip0_7539_4242">
<rect width="16" height="16" fill="white" transform="translate(0.396484)"/>
</clipPath>
</defs>
</svg>
