<svg width="31" height="14" viewBox="0 0 31 14" fill="none" xmlns="http://www.w3.org/2000/svg">
<path fill-rule="evenodd" clip-rule="evenodd" d="M14.3836 10.3715V6.6739H16.292C17.074 6.6739 17.7341 6.41187 18.2722 5.89507L18.4013 5.76405C19.3842 4.69408 19.3196 3.02724 18.2722 2.03733C17.7484 1.51326 17.031 1.22938 16.292 1.24394H13.2285V10.3715H14.3836ZM14.3838 5.55295V2.36485H16.3212C16.7374 2.36485 17.132 2.52498 17.4262 2.81613C18.0505 3.42755 18.0648 4.44658 17.4621 5.07983C17.1679 5.39282 16.7517 5.56751 16.3212 5.55295H14.3838ZM23.7894 4.61396C23.2944 4.1554 22.62 3.92247 21.7662 3.92247C20.6685 3.92247 19.8435 4.33009 19.2982 5.13803L20.317 5.78584C20.6901 5.23265 21.1995 4.95606 21.8452 4.95606C22.2541 4.95606 22.6487 5.10891 22.9572 5.38551C23.2585 5.64754 23.4307 6.02604 23.4307 6.42637V6.69569C22.9859 6.44821 22.4263 6.31719 21.7375 6.31719C20.934 6.31719 20.2883 6.50644 19.8076 6.89221C19.3269 7.27799 19.083 7.7875 19.083 8.43531C19.0686 9.02489 19.3197 9.58536 19.7646 9.96385C20.2166 10.3715 20.7905 10.5753 21.4649 10.5753C22.2613 10.5753 22.8926 10.2186 23.3733 9.50529H23.4235V10.3715H24.5284V6.52099C24.5284 5.71305 24.2845 5.07252 23.7894 4.61396ZM20.6543 9.22164C20.4176 9.04695 20.274 8.76307 20.274 8.45737C20.274 8.11527 20.4319 7.83139 20.7405 7.60575C21.0562 7.38011 21.4508 7.26365 21.9173 7.26365C22.5631 7.25637 23.0653 7.40195 23.4241 7.6931C23.4241 8.18805 23.2304 8.6175 22.8501 8.98144C22.5057 9.33082 22.0392 9.52735 21.5513 9.52735C21.2284 9.53462 20.9127 9.42544 20.6543 9.22164ZM27.0107 13.1155L30.8705 4.12619H29.615L27.8286 8.60991H27.807L25.9776 4.12619H24.722L27.2546 9.97104L25.8197 13.1155H27.0107Z" fill="#3C4043"/>
<path d="M10.396 5.87325C10.396 5.51659 10.3673 5.15993 10.3099 4.81055H5.43843V6.82677H8.22929C8.1145 7.47458 7.74143 8.05688 7.19617 8.42082V9.73099H8.86065C9.83637 8.82115 10.396 7.47458 10.396 5.87325Z" fill="#4285F4"/>
<path d="M5.43862 10.9975C6.83046 10.9975 8.00707 10.5316 8.86083 9.73097L7.19636 8.42079C6.73002 8.74106 6.13454 8.92303 5.43862 8.92303C4.08982 8.92303 2.94908 7.99862 2.54013 6.76123H0.825439V8.11508C1.70072 9.88382 3.48716 10.9975 5.43862 10.9975Z" fill="#34A853"/>
<path d="M2.54026 6.76127C2.325 6.11346 2.325 5.40742 2.54026 4.75233V3.40576H0.825296C0.0862091 4.88335 0.0862091 6.63026 0.825296 8.10785L2.54026 6.76127Z" fill="#FBBC04"/>
<path d="M5.43862 2.59063C6.17758 2.57608 6.88786 2.85995 7.41877 3.37674L8.8967 1.87732C7.95685 0.989306 6.72284 0.501628 5.43862 0.516186C3.48716 0.516186 1.70072 1.63712 0.825439 3.40586L2.54013 4.75971C2.94908 3.51504 4.08982 2.59063 5.43862 2.59063Z" fill="#EA4335"/>
</svg>
