<svg width="20" height="21" viewBox="0 0 20 21" fill="none" xmlns="http://www.w3.org/2000/svg">
<g id="Heart" clip-path="url(#clip0_4379_31581)">
<rect width="20" height="20" transform="translate(0 0.737793)" fill="white"/>
<path id="Vector" d="M10 18.2378C10 18.2378 1.875 13.8628 1.875 8.70654C1.875 7.58766 2.31947 6.51461 3.11064 5.72344C3.90181 4.93227 4.97487 4.48779 6.09375 4.48779C7.85859 4.48779 9.37031 5.44951 10 6.98779C10.6297 5.44951 12.1414 4.48779 13.9062 4.48779C15.0251 4.48779 16.0982 4.93227 16.8894 5.72344C17.6805 6.51461 18.125 7.58766 18.125 8.70654C18.125 13.8628 10 18.2378 10 18.2378Z" stroke="#7F8599" stroke-width="1.5" stroke-linecap="round" stroke-linejoin="round"/>
</g>
<defs>
<clipPath id="clip0_4379_31581">
<rect width="20" height="20" fill="white" transform="translate(0 0.737793)"/>
</clipPath>
</defs>
</svg>
