<svg width="13" height="12" viewBox="0 0 13 12" fill="none" xmlns="http://www.w3.org/2000/svg">
<g id="Group 34507">
<path id="Vector (Stroke)" fill-rule="evenodd" clip-rule="evenodd" d="M1.75987 0.871966C1.59741 0.871966 1.46572 1.00366 1.46572 1.16612V4.90988C1.46572 5.07234 1.59741 5.20403 1.75987 5.20403H5.50363C5.66609 5.20403 5.79778 5.07234 5.79778 4.90988V1.16612C5.79778 1.00366 5.66609 0.871966 5.50363 0.871966H1.75987ZM0.984375 1.16612C0.984375 0.737825 1.33158 0.390625 1.75987 0.390625H5.50363C5.93192 0.390625 6.27912 0.737825 6.27912 1.16612V4.90988C6.27912 5.33817 5.93192 5.68537 5.50363 5.68537H1.75987C1.33158 5.68537 0.984375 5.33817 0.984375 4.90988V1.16612Z" fill="#A0A0A0"/>
<path id="Vector (Stroke)_2" fill-rule="evenodd" clip-rule="evenodd" d="M1.75987 7.13564C1.59741 7.13564 1.46572 7.26733 1.46572 7.42979V11.1736C1.46572 11.336 1.59741 11.4677 1.75987 11.4677H5.50363C5.66609 11.4677 5.79778 11.336 5.79778 11.1736V7.42979C5.79778 7.26733 5.66609 7.13564 5.50363 7.13564H1.75987ZM0.984375 7.42979C0.984375 7.0015 1.33158 6.6543 1.75987 6.6543H5.50363C5.93192 6.6543 6.27912 7.0015 6.27912 7.42979V11.1736C6.27912 11.6018 5.93192 11.949 5.50363 11.949H1.75987C1.33158 11.949 0.984375 11.6018 0.984375 11.1736V7.42979Z" fill="#A0A0A0"/>
<path id="Vector (Stroke)_3" fill-rule="evenodd" clip-rule="evenodd" d="M8.02354 0.871966C7.86108 0.871966 7.72939 1.00366 7.72939 1.16612V4.90988C7.72939 5.07234 7.86108 5.20403 8.02354 5.20403H11.7673C11.9298 5.20403 12.0615 5.07234 12.0615 4.90988V1.16612C12.0615 1.00366 11.9298 0.871966 11.7673 0.871966H8.02354ZM7.24805 1.16612C7.24805 0.737825 7.59525 0.390625 8.02354 0.390625H11.7673C12.1956 0.390625 12.5428 0.737825 12.5428 1.16612V4.90988C12.5428 5.33817 12.1956 5.68537 11.7673 5.68537H8.02354C7.59525 5.68537 7.24805 5.33817 7.24805 4.90988V1.16612Z" fill="#A0A0A0"/>
<path id="Vector (Stroke)_4" fill-rule="evenodd" clip-rule="evenodd" d="M8.02354 7.13564C7.86108 7.13564 7.72939 7.26733 7.72939 7.42979V11.1736C7.72939 11.336 7.86108 11.4677 8.02354 11.4677H11.7673C11.9298 11.4677 12.0615 11.336 12.0615 11.1736V7.42979C12.0615 7.26733 11.9298 7.13564 11.7673 7.13564H8.02354ZM7.24805 7.42979C7.24805 7.0015 7.59525 6.6543 8.02354 6.6543H11.7673C12.1956 6.6543 12.5428 7.0015 12.5428 7.42979V11.1736C12.5428 11.6018 12.1956 11.949 11.7673 11.949H8.02354C7.59525 11.949 7.24805 11.6018 7.24805 11.1736V7.42979Z" fill="#A0A0A0"/>
</g>
</svg>
