<svg width="17" height="17" viewBox="0 0 17 17" fill="none" xmlns="http://www.w3.org/2000/svg">
<g clip-path="url(#clip0_5478_3463)">
<g clip-path="url(#clip1_5478_3463)">
<path fill-rule="evenodd" clip-rule="evenodd" d="M9.26017 1.71789L10.688 6.14911L15.1494 6.20325C15.5333 6.20794 15.6922 6.72071 15.3843 6.9607L11.805 9.75312L13.1345 14.2176C13.2487 14.6018 12.8331 14.9183 12.5197 14.6856L8.88023 11.9801L5.24032 14.6851C4.92743 14.9178 4.51124 14.6008 4.62547 14.2171L5.95499 9.7526L2.37566 6.96018C2.06774 6.72019 2.22667 6.20742 2.61058 6.20273L7.07194 6.14859L8.4998 1.71737C8.62297 1.33631 9.13749 1.33631 9.26017 1.71789Z" fill="#ECEDEB"/>
<mask id="mask0_5478_3463" style="mask-type:alpha" maskUnits="userSpaceOnUse" x="2" y="1" width="7" height="14">
<path d="M8.87999 1.43164H2.21332V14.7649H8.87999V1.43164Z" fill="#242428"/>
</mask>
<g mask="url(#mask0_5478_3463)">
<path fill-rule="evenodd" clip-rule="evenodd" d="M9.26017 1.71789L10.688 6.14911L15.1494 6.20325C15.5333 6.20794 15.6922 6.72071 15.3843 6.9607L11.805 9.75312L13.1345 14.2176C13.2487 14.6018 12.8331 14.9183 12.5197 14.6856L8.88023 11.9801L5.24032 14.6851C4.92743 14.9178 4.51124 14.6008 4.62547 14.2171L5.95499 9.7526L2.37566 6.96018C2.06774 6.72019 2.22667 6.20742 2.61058 6.20273L7.07194 6.14859L8.4998 1.71737C8.62297 1.33631 9.13749 1.33631 9.26017 1.71789Z" fill="#FED130"/>
</g>
</g>
</g>
<defs>
<clipPath id="clip0_5478_3463">
<rect width="16" height="16" fill="white" transform="translate(0.879974 0.0986328)"/>
</clipPath>
<clipPath id="clip1_5478_3463">
<rect width="16" height="16" fill="white" transform="translate(0.879974 0.0986328)"/>
</clipPath>
</defs>
</svg>
