<svg width="36" height="36" viewBox="0 0 36 36" fill="none" xmlns="http://www.w3.org/2000/svg">
<g clip-path="url(#clip0_5478_3710)">
<path opacity="0.5" d="M5.10327 25.3556C5.10327 25.9284 5.33084 26.4778 5.7359 26.8829C6.14097 27.288 6.69036 27.5155 7.26321 27.5155H9.42315C9.99601 27.5155 10.5454 27.288 10.9505 26.8829C11.3555 26.4778 11.5831 25.9284 11.5831 25.3556V19.9557C11.5831 19.3829 11.3555 18.8335 10.9505 18.4284C10.5454 18.0233 9.99601 17.7958 9.42315 17.7958H5.10327V25.3556Z" fill="#F396C1"/>
<path opacity="0.5" d="M26.7032 17.7958C26.1304 17.7958 25.581 18.0233 25.1759 18.4284C24.7708 18.8335 24.5433 19.3829 24.5433 19.9557V25.3556C24.5433 25.9284 24.7708 26.4778 25.1759 26.8829C25.581 27.288 26.1304 27.5155 26.7032 27.5155H31.0231V17.7958H26.7032Z" fill="#F396C1"/>
<path d="M31.0238 27.5157V28.5957C31.0238 29.7414 30.5686 30.8402 29.7585 31.6503C28.9484 32.4605 27.8496 32.9156 26.7039 32.9156H19.1441" stroke="#1F1F1F" stroke-width="1.72795" stroke-linecap="round" stroke-linejoin="round"/>
<path d="M31.0226 17.7966H26.7027C26.1298 17.7966 25.5804 18.0241 25.1754 18.4292C24.7703 18.8343 24.5427 19.3837 24.5427 19.9565V25.3564C24.5427 25.9292 24.7703 26.4786 25.1754 26.8837C25.5804 27.2887 26.1298 27.5163 26.7027 27.5163H31.0226V17.7966ZM31.0226 17.7966C31.0226 16.0947 30.6874 14.4095 30.0361 12.8371C29.3848 11.2648 28.4302 9.83612 27.2268 8.63271C26.0234 7.42929 24.5947 6.47469 23.0224 5.82341C21.45 5.17213 19.7648 4.83691 18.0629 4.83691C16.361 4.83691 14.6758 5.17213 13.1035 5.82341C11.5311 6.47469 10.1025 7.42929 8.89906 8.63271C7.69565 9.83612 6.74105 11.2648 6.08977 12.8371C5.43848 14.4095 5.10327 16.0947 5.10327 17.7966M5.10327 17.7966V25.3564C5.10327 25.9292 5.33084 26.4786 5.7359 26.8837C6.14097 27.2887 6.69036 27.5163 7.26321 27.5163H9.42315C9.99601 27.5163 10.5454 27.2887 10.9505 26.8837C11.3555 26.4786 11.5831 25.9292 11.5831 25.3564V19.9565C11.5831 19.3837 11.3555 18.8343 10.9505 18.4292C10.5454 18.0241 9.99601 17.7966 9.42315 17.7966H5.10327Z" stroke="#1F1F1F" stroke-width="1.72795" stroke-linecap="round" stroke-linejoin="round"/>
</g>
<defs>
<clipPath id="clip0_5478_3710">
<rect width="34.5591" height="34.5591" fill="white" transform="translate(0.784241 0.516846)"/>
</clipPath>
</defs>
</svg>
