<svg width="41" height="41" viewBox="0 0 41 41" fill="none" xmlns="http://www.w3.org/2000/svg">
<g clip-path="url(#clip0_5478_4711)">
<path opacity="0.2" d="M5.5 29.3711C5.5 30.0341 5.76339 30.67 6.23223 31.1389C6.70107 31.6077 7.33696 31.8711 8 31.8711H10.5C11.163 31.8711 11.7989 31.6077 12.2678 31.1389C12.7366 30.67 13 30.0341 13 29.3711V23.1211C13 22.4581 12.7366 21.8222 12.2678 21.3533C11.7989 20.8845 11.163 20.6211 10.5 20.6211H5.5V29.3711Z" fill="white"/>
<path opacity="0.2" d="M30.5 20.6211C29.837 20.6211 29.2011 20.8845 28.7322 21.3533C28.2634 21.8222 28 22.4581 28 23.1211V29.3711C28 30.0341 28.2634 30.67 28.7322 31.1389C29.2011 31.6077 29.837 31.8711 30.5 31.8711H35.5V20.6211H30.5Z" fill="white"/>
<path d="M35.5 31.8711V33.1211C35.5 34.4472 34.9732 35.7189 34.0355 36.6566C33.0979 37.5943 31.8261 38.1211 30.5 38.1211H21.75" stroke="white" stroke-width="2" stroke-linecap="round" stroke-linejoin="round"/>
<path d="M35.5 20.6211H30.5C29.837 20.6211 29.2011 20.8845 28.7322 21.3533C28.2634 21.8222 28 22.4581 28 23.1211V29.3711C28 30.0341 28.2634 30.67 28.7322 31.1389C29.2011 31.6077 29.837 31.8711 30.5 31.8711H35.5V20.6211ZM35.5 20.6211C35.5 18.6513 35.112 16.7007 34.3582 14.8808C33.6044 13.061 32.4995 11.4074 31.1066 10.0145C29.7137 8.62161 28.0601 7.51672 26.2403 6.7629C24.4204 6.00908 22.4698 5.62109 20.5 5.62109C18.5302 5.62109 16.5796 6.00908 14.7597 6.7629C12.9399 7.51672 11.2863 8.62161 9.8934 10.0145C8.50052 11.4074 7.39563 13.061 6.64181 14.8808C5.88799 16.7007 5.5 18.6513 5.5 20.6211M5.5 20.6211V29.3711C5.5 30.0341 5.76339 30.67 6.23223 31.1389C6.70107 31.6077 7.33696 31.8711 8 31.8711H10.5C11.163 31.8711 11.7989 31.6077 12.2678 31.1389C12.7366 30.67 13 30.0341 13 29.3711V23.1211C13 22.4581 12.7366 21.8222 12.2678 21.3533C11.7989 20.8845 11.163 20.6211 10.5 20.6211H5.5Z" stroke="white" stroke-width="2" stroke-linecap="round" stroke-linejoin="round"/>
</g>
<defs>
<clipPath id="clip0_5478_4711">
<rect width="40" height="40" fill="white" transform="translate(0.5 0.621094)"/>
</clipPath>
</defs>
</svg>
