<svg width="66" height="16" viewBox="0 0 66 16" fill="none" xmlns="http://www.w3.org/2000/svg">
<g clip-path="url(#clip0_5478_3524)">
<path d="M21.2375 15.5174L24.2177 1.76709H27.5558L25.9935 8.94269H26.0717L29.9151 5.1408H33.778L28.9542 9.64844L31.8367 15.5188H28.2174L26.2762 11.4305L25.2567 12.3548L24.5771 15.5188H21.239L21.2375 15.5174Z" fill="#F29E38"/>
<path d="M44.4824 15.5174H40.8526L40.6872 8.51312H40.6195L37.5039 15.5174H33.826L33.3403 5.1394H36.6499L36.4454 12.4671H36.513L39.6767 5.1394H42.9276L42.9667 12.4671H43.0344L45.956 5.1394H49.4009L44.4809 15.5174H44.4824Z" fill="#F29E38"/>
<path d="M50.2475 5.14105H53.5962L51.3452 15.5191H47.9966L50.2475 5.14105ZM51.3347 3.46822C51.0054 3.14783 50.84 2.76543 50.84 2.31954C50.84 1.87364 51.0054 1.48238 51.3347 1.16199C51.664 0.841598 52.0655 0.680664 52.5376 0.680664C53.0098 0.680664 53.4187 0.841598 53.7465 1.16199C54.0728 1.48238 54.2367 1.86922 54.2367 2.31954C54.2367 2.76986 54.0728 3.14635 53.7465 3.46822C53.4203 3.78861 53.0173 3.94955 52.5376 3.94955C52.0579 3.94955 51.664 3.78861 51.3347 3.46822Z" fill="#F29E38"/>
<path d="M52.8009 15.5174L55.7811 1.76709H59.1192L57.5569 8.94269H57.6351L61.4785 5.1408H65.3414L60.5176 9.64844L63.4001 15.5188H59.7808L57.8396 11.4305L56.8201 12.3548L56.1405 15.5188H52.8024L52.8009 15.5174Z" fill="#F29E38"/>
<path d="M1.12347 11.5143L20.7071 11.7402L20.7807 11.3992L1.12347 11.5143Z" fill="#5FDDDA"/>
<path d="M1.52362 9.67938L21.0952 9.95105L21.2125 9.40771L1.52362 9.67938Z" fill="#F29E38"/>
<path d="M2.32019 6.01054L21.8872 6.29255L22.009 5.72559L2.32019 6.01054Z" fill="#EA6C6A"/>
<path d="M0.726426 13.3499L20.3206 13.5197L20.4198 13.0664L0.726426 13.3499Z" fill="#3EA7CC"/>
<path d="M2.72158 4.17514L18.1671 4.4852L22.2736 4.50439L22.4285 3.79126L2.72158 4.17514Z" fill="#ED58A0"/>
<path d="M0.339966 15.122L19.9266 15.3361L20.0183 14.9109L0.339966 15.122Z" fill="#72A2D6"/>
<path d="M1.91257 7.84447L21.4902 8.12204L21.6104 7.56689L1.91257 7.84447Z" fill="#EF663C"/>
<path d="M3.09933 2.33999L22.6589 2.7283L22.8288 1.94873L3.09933 2.33999Z" fill="#06171A"/>
</g>
<defs>
<clipPath id="clip0_5478_3524">
<rect width="65" height="14.837" fill="white" transform="translate(0.339966 0.680176)"/>
</clipPath>
</defs>
</svg>
