<svg width="24" height="25" viewBox="0 0 24 25" fill="none" xmlns="http://www.w3.org/2000/svg">
<g id="MapPin" clip-path="url(#clip0_4932_14173)">
<path id="Vector" d="M12 13.2432C13.6569 13.2432 15 11.9 15 10.2432C15 8.58631 13.6569 7.24316 12 7.24316C10.3431 7.24316 9 8.58631 9 10.2432C9 11.9 10.3431 13.2432 12 13.2432Z" stroke="white" stroke-width="1.5" stroke-linecap="round" stroke-linejoin="round"/>
<path id="Vector_2" d="M19.5 10.2432C19.5 16.9932 12 22.2432 12 22.2432C12 22.2432 4.5 16.9932 4.5 10.2432C4.5 8.25404 5.29018 6.34639 6.6967 4.93986C8.10322 3.53334 10.0109 2.74316 12 2.74316C13.9891 2.74316 15.8968 3.53334 17.3033 4.93986C18.7098 6.34639 19.5 8.25404 19.5 10.2432Z" stroke="white" stroke-width="1.5" stroke-linecap="round" stroke-linejoin="round"/>
</g>
<defs>
<clipPath id="clip0_4932_14173">
<rect width="24" height="24" fill="white" transform="translate(0 0.493164)"/>
</clipPath>
</defs>
</svg>
