<svg width="27" height="17" viewBox="0 0 27 17" fill="none" xmlns="http://www.w3.org/2000/svg">
<path fill-rule="evenodd" clip-rule="evenodd" d="M18.4347 16.5528C22.8421 16.5528 26.415 13.0225 26.415 8.66753C26.415 4.31259 22.8421 0.782227 18.4347 0.782227C16.4595 0.782227 14.6518 1.49132 13.2583 2.66593C11.8648 1.49134 10.0572 0.782255 8.08195 0.782255C3.67457 0.782255 0.101685 4.31262 0.101685 8.66755C0.101685 13.0225 3.67457 16.5529 8.08195 16.5529C10.0572 16.5529 11.8648 15.8438 13.2584 14.6691C14.6519 15.8437 16.4595 16.5528 18.4347 16.5528Z" fill="#ED0006"/>
<path fill-rule="evenodd" clip-rule="evenodd" d="M13.2583 14.6691C14.9742 13.2228 16.0622 11.0707 16.0622 8.66753C16.0622 6.26432 14.9742 4.11221 13.2583 2.6659C14.6518 1.49131 16.4594 0.782227 18.4347 0.782227C22.842 0.782227 26.4149 4.31259 26.4149 8.66753C26.4149 13.0225 22.842 16.5528 18.4347 16.5528C16.4594 16.5528 14.6518 15.8437 13.2583 14.6691Z" fill="#F9A000"/>
<path fill-rule="evenodd" clip-rule="evenodd" d="M13.2584 14.6692C14.9742 13.2229 16.0622 11.0708 16.0622 8.66759C16.0622 6.26441 14.9742 4.11232 13.2584 2.66602C11.5425 4.11232 10.4545 6.26441 10.4545 8.66759C10.4545 11.0708 11.5425 13.2229 13.2584 14.6692Z" fill="#FF5E00"/>
</svg>
