<svg width="86" height="7" viewBox="0 0 86 7" fill="none" xmlns="http://www.w3.org/2000/svg">
<path d="M5.16273 2.48869C5.16273 3.27166 4.63496 4.37007 3.17059 4.37007H1.85934V6.13252H0.53125V0.598633H3.18743C4.54972 0.598633 5.16273 1.63732 5.16273 2.48869ZM3.97092 2.48869C3.97092 2.35241 3.91987 2.15692 3.79227 2.01196C3.65599 1.85884 3.4605 1.79044 3.18794 1.79044H1.85985V3.17825H3.1711C3.34974 3.17825 3.4947 3.15273 3.61363 3.10169C3.69019 3.05933 3.74991 3.01645 3.80962 2.95674C3.92906 2.81178 3.97143 2.61629 3.97143 2.48869H3.97092Z" fill="white"/>
<path d="M8.83258 4.24246L10.0244 6.13252H8.5345L7.37689 4.37007H6.74704V6.13252H5.41895V0.598633H8.06645C9.42874 0.598633 10.0417 1.63732 10.0417 2.48869C10.0417 3.11037 9.70998 3.93571 8.83309 4.24246H8.83258ZM6.74653 3.17825H8.05778C8.22825 3.17825 8.38138 3.15273 8.49214 3.10169C8.5687 3.05933 8.63709 3.01645 8.68813 2.95674C8.80706 2.81178 8.84993 2.61629 8.84993 2.48869C8.84993 2.35241 8.80757 2.15692 8.67129 2.01196C8.54369 1.85884 8.34769 1.79044 8.06696 1.79044H6.74755V3.17825H6.74653Z" fill="white"/>
<path d="M11.7529 0.598633V6.13252H10.4248V0.598633H11.7529Z" fill="white"/>
<path d="M16.8264 5.45949C16.3242 5.87649 15.6857 6.13221 14.9792 6.13221C13.4128 6.13221 12.1357 4.85516 12.1357 3.28871C12.1357 1.72225 13.4123 0.436523 14.9787 0.436523C15.6851 0.436523 16.3237 0.691729 16.8259 1.11741L15.9745 1.9601C15.6938 1.74726 15.3447 1.62834 14.9782 1.62834C14.5357 1.62834 14.1269 1.79881 13.8119 2.11374C13.497 2.42866 13.3265 2.84567 13.3265 3.28871C13.3265 3.73174 13.497 4.14007 13.8119 4.455C14.1269 4.76992 14.5357 4.9404 14.9782 4.9404C15.3442 4.9404 15.6933 4.82147 15.9745 4.60863L16.8259 5.46L16.8264 5.45949Z" fill="white"/>
<path d="M18.5722 4.9402H21.109V6.13201H17.2441V0.598633H21.109V1.79044H18.5722V2.76941H20.7262V3.96123H18.5722V4.9402Z" fill="white"/>
<path d="M29.98 0.598633V6.13252H28.6519V3.03381L27.0089 4.08117L25.417 3.04248V6.13303H24.0889V0.598633L27.0258 2.49685L29.98 0.598633Z" fill="white"/>
<path d="M34.3393 5.35771H32.2537L31.8535 6.13252H30.3213L33.3006 0.598633L36.2717 6.13252H34.7394L34.3393 5.35771ZM33.8028 4.31903L33.3006 3.34873L32.7896 4.31903H33.8028Z" fill="white"/>
<path d="M38.1791 1.92672V6.13252H36.851V1.92672H35.4121V0.598633H39.6179V1.92672H38.1791Z" fill="white"/>
<path d="M44.5462 5.45949C44.0439 5.87649 43.4054 6.13221 42.699 6.13221C41.1325 6.13221 39.8555 4.85516 39.8555 3.28871C39.8555 1.72225 41.1325 0.436523 42.699 0.436523C43.4054 0.436523 44.0439 0.691729 44.5462 1.11741L43.6948 1.9601C43.4141 1.74726 43.0649 1.62834 42.699 1.62834C42.2564 1.62834 41.8476 1.79881 41.5327 2.11374C41.2178 2.42866 41.0473 2.84567 41.0473 3.28871C41.0473 3.73174 41.2178 4.14007 41.5327 4.455C41.8476 4.76992 42.2564 4.9404 42.699 4.9404C43.0649 4.9404 43.4141 4.82147 43.6948 4.60863L44.5462 5.46V5.45949Z" fill="white"/>
<path d="M49.3403 0.598633V6.13252H48.0123V3.96174H46.3437V6.13252H45.0156V0.598633H46.3437V2.76941H48.0123V0.598633H49.3403Z" fill="white"/>
<path d="M57.3463 2.49896C57.3463 3.29124 56.8124 4.40214 55.331 4.40214H54.0048V6.18504H52.6611V0.586914H55.3481C56.7261 0.586914 57.3463 1.6375 57.3463 2.49896ZM56.1404 2.49896C56.1404 2.36129 56.0886 2.16296 55.9594 2.01677C55.8217 1.86172 55.6234 1.79289 55.3481 1.79289H54.0044V3.19685H55.3307C55.5117 3.19685 55.6578 3.17095 55.7785 3.1195C55.8558 3.07656 55.9161 3.03328 55.9765 2.97297C56.0971 2.82644 56.14 2.62845 56.14 2.4993L56.1404 2.49896Z" fill="white"/>
<path d="M61.0738 4.27299L62.2794 6.18504H60.7722L59.601 4.40214H58.9638V6.18504H57.6201V0.586914H60.2985C61.6766 0.586914 62.2968 1.6375 62.2968 2.49896C62.2968 3.12768 61.9608 3.96324 61.0738 4.27299ZM58.9638 3.19651H60.29C60.4621 3.19651 60.6172 3.17061 60.7293 3.11916C60.8066 3.07622 60.8758 3.03294 60.9273 2.97263C61.0479 2.8261 61.0908 2.62811 61.0908 2.49896C61.0908 2.36129 61.0479 2.16296 60.9099 2.01677C60.7807 1.86172 60.5827 1.79289 60.2985 1.79289H58.9638V3.19685V3.19651Z" fill="white"/>
<path d="M68.1788 3.30031C68.1788 4.89374 66.8869 6.18559 65.2935 6.18559C63.7001 6.18559 62.4082 4.89374 62.4082 3.30031C62.4082 1.70689 63.7001 0.415039 65.2935 0.415039C66.8869 0.415039 68.1788 1.70689 68.1788 3.30031ZM66.9728 3.30031C66.9728 2.85255 66.8007 2.43034 66.4817 2.11172C66.1631 1.7931 65.7409 1.62067 65.2931 1.62067C64.8454 1.62067 64.4232 1.79276 64.1045 2.11172C63.7859 2.43034 63.6135 2.85255 63.6135 3.30031C63.6135 3.74808 63.7856 4.17029 64.1045 4.48891C64.4232 4.79901 64.8454 4.97996 65.2931 4.97996C65.7409 4.97996 66.1631 4.79901 66.4817 4.48891C66.8004 4.17029 66.9728 3.74808 66.9728 3.30031Z" fill="white"/>
<path d="M74.3878 0.586914V6.18504H73.0441V3.04998L71.3818 4.10943L69.7714 3.05884V6.18504H68.4277V0.586914L71.3992 2.50748L74.3878 0.586914Z" fill="white"/>
<path d="M76.1181 0.586914V6.18504H74.7744V0.586914H76.1181Z" fill="white"/>
<path d="M77.6854 6.02135C77.4098 5.90958 77.1859 5.74567 76.9794 5.56506C76.3248 4.96224 76.411 4.1611 76.411 4.08375L77.5911 4.10113V4.09261C77.5911 4.09261 77.5911 4.41122 77.7287 4.61807C77.9008 4.87637 78.2198 5.00552 78.6846 5.00552C79.4598 5.00552 79.8043 4.80754 79.8043 4.48006C79.8043 4.13554 79.3651 3.92018 78.6502 3.84282C78.2109 3.79103 77.8235 3.69629 77.5134 3.56714C77.2206 3.44651 76.9794 3.28294 76.7984 3.08496C76.5401 2.80076 76.411 2.46476 76.411 2.08583C76.411 1.56036 76.6178 1.20733 76.7984 1.00082C77.1947 0.553057 77.832 0.320312 78.7105 0.320312C79.8646 0.320312 80.433 0.828397 80.7087 1.25061C81.0014 1.70724 81.0188 2.23236 81.0188 2.31857H79.8388V2.32709C79.8388 2.32709 79.8473 2.06879 79.7096 1.88784C79.5375 1.64658 79.193 1.50039 78.7105 1.50039C78.2279 1.50039 77.634 1.62954 77.634 2.00847C77.634 2.38741 78.0129 2.58539 78.7793 2.67161C79.6319 2.76634 80.2606 3.0335 80.6396 3.47241C80.8893 3.76513 81.0185 4.10964 81.0185 4.48006C81.0185 4.66101 81.0185 5.11729 80.6481 5.53064C80.4586 5.74601 80.2003 5.90958 79.8817 6.02169C79.5546 6.1338 79.1582 6.18526 78.6846 6.18526C78.3142 6.18526 77.9785 6.13346 77.6854 6.02169V6.02135Z" fill="white"/>
<path d="M82.6812 4.9794H85.2479V6.18504H81.3379V0.586914H85.2479V1.79255H82.6812V2.78282H84.8601V3.98845H82.6812V4.97872V4.9794Z" fill="white"/>
</svg>
