<svg width="11" height="11" viewBox="0 0 11 11" fill="none" xmlns="http://www.w3.org/2000/svg">
<g id="OBJECTS" clip-path="url(#clip0_5296_2402)">
<path id="Vector" fill-rule="evenodd" clip-rule="evenodd" d="M6.36457 2.70683C6.29817 2.83049 5.97071 3.43502 5.92491 3.54722C5.87912 3.65943 5.85393 3.74416 5.97758 3.83117C6.09895 3.91819 6.37373 4.17008 6.45388 4.24564C6.53403 4.32121 6.54319 4.39449 6.47449 4.51814C6.40808 4.6418 6.25924 5.04024 5.815 5.5028C5.46922 5.86231 5.05017 6.09817 4.92194 6.16687C4.7937 6.23557 4.7273 6.16687 4.66776 6.10275C4.6128 6.04322 4.52578 5.97223 4.4548 5.90582C4.38381 5.84171 4.33343 5.81881 4.251 5.77301C4.16856 5.72721 4.09528 5.74553 4.03117 5.7753C3.96705 5.80507 3.3419 6.03177 3.08544 6.12565C2.83126 6.22183 2.86789 6.32716 2.8656 6.40044C2.86332 6.47372 2.84958 6.55615 2.84729 6.64088C2.845 6.72561 2.87018 6.86071 2.99155 6.97979C3.11291 7.09886 3.40373 7.43548 4.01972 7.45838C4.6357 7.48128 5.24939 7.05535 5.33412 6.99582C5.42114 6.93628 6.75615 6.18061 7.30572 4.92574C7.8553 3.67088 7.68814 3.66401 7.67669 3.43273C7.66524 3.20145 7.4019 2.67935 7.11337 2.56486C6.82484 2.45036 6.57296 2.4412 6.52029 2.46868C6.46762 2.49845 6.43327 2.58089 6.36457 2.70225L6.36457 2.70683ZM9.33687 5.00818C9.33687 5.83713 9.08727 6.61111 8.66135 7.25686L9.16512 8.82774L7.64692 8.31709C6.97369 8.80713 6.14474 9.09566 5.25168 9.09566C2.99613 9.09337 1.16192 7.26144 1.16192 5.00818C1.16192 2.75492 2.99613 0.920707 5.24939 0.920707C7.50266 0.920706 9.33687 2.75492 9.33687 5.00818ZM0.339844 5.00818C0.339844 7.71943 2.53815 9.91773 5.24939 9.91773C6.1768 9.91773 7.04468 9.66126 7.78431 9.21244L10.4177 10.0986L9.54754 7.38052C9.93682 6.67752 10.1589 5.86918 10.1589 5.00818C10.1589 2.29694 7.96064 0.0986325 5.24939 0.0986326C2.53815 0.0986327 0.339843 2.29694 0.339844 5.00818Z" fill="#00C169"/>
</g>
<defs>
<clipPath id="clip0_5296_2402">
<rect width="10" height="10.0779" fill="white" transform="translate(0.339844 10.0986) rotate(-90)"/>
</clipPath>
</defs>
</svg>
