<svg width="21" height="22" viewBox="0 0 21 22" fill="none" xmlns="http://www.w3.org/2000/svg">
<path fill-rule="evenodd" clip-rule="evenodd" d="M10.2714 2.25C14.9701 2.25 18.7921 6.072 18.7921 10.7707C18.7921 12.9876 17.9414 15.0095 16.5492 16.5269L19.2886 19.2606C19.545 19.517 19.5459 19.9317 19.2895 20.1881C19.1617 20.3176 18.9929 20.3815 18.8249 20.3815C18.6577 20.3815 18.4897 20.3176 18.3611 20.1899L15.5886 17.4251C14.1302 18.5931 12.281 19.2924 10.2714 19.2924C5.57263 19.2924 1.74976 15.4695 1.74976 10.7707C1.74976 6.072 5.57263 2.25 10.2714 2.25ZM10.2714 3.5625C6.29626 3.5625 3.06226 6.79562 3.06226 10.7707C3.06226 14.7459 6.29626 17.9799 10.2714 17.9799C14.2456 17.9799 17.4796 14.7459 17.4796 10.7707C17.4796 6.79562 14.2456 3.5625 10.2714 3.5625Z" fill="#868686"/>
</svg>
