<svg width="45" height="41" viewBox="0 0 45 41" fill="none" xmlns="http://www.w3.org/2000/svg">
<g clip-path="url(#clip0_4932_14117)">
<path opacity="0.2" d="M20.5 25.4932C23.2614 25.4932 25.5 23.2546 25.5 20.4932C25.5 17.7317 23.2614 15.4932 20.5 15.4932C17.7386 15.4932 15.5 17.7317 15.5 20.4932C15.5 23.2546 17.7386 25.4932 20.5 25.4932Z" fill="white"/>
<path opacity="0.2" d="M38 10.4932H31.75C32.0146 12.0546 32.7584 13.495 33.8783 14.6149C34.9981 15.7347 36.4386 16.4785 38 16.7432V10.4932Z" fill="white"/>
<path opacity="0.2" d="M38 30.4932V24.2432C36.4386 24.5078 34.9981 25.2516 33.8783 26.3714C32.7584 27.4913 32.0146 28.9317 31.75 30.4932H38Z" fill="white"/>
<path opacity="0.2" d="M3 30.4932V24.2432C4.56143 24.5078 6.00188 25.2516 7.12173 26.3714C8.24157 27.4913 8.98535 28.9317 9.25 30.4932H3Z" fill="white"/>
<path opacity="0.2" d="M3 10.4932V16.7432C4.56143 16.4785 6.00188 15.7347 7.12173 14.6149C8.24157 13.495 8.98535 12.0546 9.25 10.4932H3Z" fill="white"/>
<path d="M20.5 25.4932C23.2614 25.4932 25.5 23.2546 25.5 20.4932C25.5 17.7317 23.2614 15.4932 20.5 15.4932C17.7386 15.4932 15.5 17.7317 15.5 20.4932C15.5 23.2546 17.7386 25.4932 20.5 25.4932Z" stroke="white" stroke-width="2" stroke-linecap="round" stroke-linejoin="round"/>
<path d="M38 10.4932H3V30.4932H38V10.4932Z" stroke="white" stroke-width="2" stroke-linecap="round" stroke-linejoin="round"/>
<path d="M38 16.7432C36.4386 16.4785 34.9981 15.7347 33.8783 14.6149C32.7584 13.495 32.0146 12.0546 31.75 10.4932" stroke="white" stroke-width="2" stroke-linecap="round" stroke-linejoin="round"/>
<path d="M31.75 30.4932C32.0146 28.9317 32.7584 27.4913 33.8783 26.3714C34.9981 25.2516 36.4386 24.5078 38 24.2432" stroke="white" stroke-width="2" stroke-linecap="round" stroke-linejoin="round"/>
<path d="M3 24.2432C4.56143 24.5078 6.00188 25.2516 7.12173 26.3714C8.24157 27.4913 8.98535 28.9317 9.25 30.4932" stroke="white" stroke-width="2" stroke-linecap="round" stroke-linejoin="round"/>
<path d="M9.25 10.4932C8.98535 12.0546 8.24157 13.495 7.12173 14.6149C6.00188 15.7347 4.56143 16.4785 3 16.7432" stroke="white" stroke-width="2" stroke-linecap="round" stroke-linejoin="round"/>
<path d="M37.9202 33.7203L37.9202 33.7203C37.8245 33.7304 37.7283 33.7354 37.632 33.7354H33.2339C33.9504 34.7862 33.8607 36.2298 32.9458 37.185L31.682 35.9745L32.9458 37.185C31.8953 38.2818 30.1545 38.3193 29.0576 37.2688L24.5978 32.997C24.0562 32.4783 23.75 31.7609 23.75 31.011C23.75 30.2611 24.0562 29.5438 24.5978 29.0251M37.9202 33.7203L24.5978 29.0251M37.9202 33.7203C39.6528 33.5377 41.2779 32.7472 42.474 31.4686C43.673 30.1869 44.354 28.5043 44.354 26.7393C44.354 24.9743 43.673 23.2917 42.474 22.01C41.2779 20.7314 39.6528 19.9409 37.9202 19.7583L37.7368 21.4987L37.9202 19.7583C37.8245 19.7482 37.7283 19.7432 37.632 19.7432H35.411C33.8922 19.7432 32.661 20.9744 32.661 22.4932C32.661 24.0119 33.8922 25.2432 35.411 25.2432H37.4556C37.8595 25.3101 38.2102 25.503 38.4575 25.7673L39.6955 24.6092L38.4575 25.7673C38.7242 26.0525 38.854 26.3999 38.854 26.7393C38.854 27.0787 38.7242 27.4261 38.4575 27.7113C38.2102 27.9756 37.8595 28.1684 37.4556 28.2354H33.268M37.9202 33.7203L33.268 28.2354M24.5978 29.0251L29.0576 24.7533M24.5978 29.0251L29.0576 24.7533M29.0576 24.7533C30.1545 23.7027 31.8953 23.7402 32.9458 24.837C33.846 25.7768 33.9473 27.1894 33.268 28.2354M29.0576 24.7533L33.268 28.2354" fill="white" stroke="#1D4983" stroke-width="3.5" stroke-linecap="round" stroke-linejoin="round"/>
</g>
<defs>
<clipPath id="clip0_4932_14117">
<rect width="44" height="40" fill="white" transform="translate(0.5 0.493164)"/>
</clipPath>
</defs>
</svg>
