<svg width="36" height="36" viewBox="0 0 36 36" fill="none" xmlns="http://www.w3.org/2000/svg">
<g clip-path="url(#clip0_5478_3722)">
<path opacity="0.5" d="M17.8507 17.9419L4.98555 10.9005C4.92368 11.0385 4.89148 11.188 4.89105 11.3393V24.2503C4.89149 24.4437 4.94384 24.6334 5.04262 24.7996C5.14141 24.9658 5.28301 25.1025 5.45264 25.1953L17.3323 31.6994C17.491 31.7872 17.6693 31.8337 17.8507 31.8344V17.9419Z" fill="#F396C1"/>
<path d="M4.98584 10.9005L17.851 17.9419L30.7161 10.9005" stroke="#1F1F1F" stroke-width="1.72795" stroke-linecap="round" stroke-linejoin="round"/>
<path d="M17.8499 17.9424V31.8308" stroke="#1F1F1F" stroke-width="1.72795" stroke-linecap="round" stroke-linejoin="round"/>
<path d="M30.2488 25.1979L18.3691 31.7021C18.2101 31.789 18.0319 31.8346 17.8507 31.8346C17.6695 31.8346 17.4913 31.789 17.3323 31.7021L5.45264 25.1979C5.28301 25.1051 5.14141 24.9685 5.04262 24.8023C4.94384 24.636 4.89149 24.4463 4.89105 24.253V11.3392C4.89149 11.1459 4.94384 10.9562 5.04262 10.7899C5.14141 10.6237 5.28301 10.4871 5.45264 10.3942L17.3323 3.89011C17.4913 3.80315 17.6695 3.75757 17.8507 3.75757C18.0319 3.75757 18.2101 3.80315 18.3691 3.89011L30.2488 10.3942C30.4184 10.4871 30.56 10.6237 30.6588 10.7899C30.7576 10.9562 30.8099 11.1459 30.8103 11.3392V24.2503C30.8104 24.4441 30.7583 24.6344 30.6595 24.8011C30.5607 24.9678 30.4188 25.1049 30.2488 25.1979Z" stroke="#1F1F1F" stroke-width="1.72795" stroke-linecap="round" stroke-linejoin="round"/>
<path d="M11.5833 7.03845L24.3323 14.0164V21.0362" stroke="#1F1F1F" stroke-width="1.72795" stroke-linecap="round" stroke-linejoin="round"/>
</g>
<defs>
<clipPath id="clip0_5478_3722">
<rect width="34.5591" height="34.5591" fill="white" transform="translate(0.571777 0.516846)"/>
</clipPath>
</defs>
</svg>
