<svg width="24" height="25" viewBox="0 0 24 25" fill="none" xmlns="http://www.w3.org/2000/svg">
<g clip-path="url(#clip0_5478_4770)">
<path d="M10.125 14.4961L15 9.62109" stroke="#1C2A54" stroke-width="1.5" stroke-linecap="round" stroke-linejoin="round"/>
<path d="M20.9709 4.5755C21.0071 4.4472 21.0084 4.31159 20.9747 4.18262C20.9411 4.05366 20.8736 3.93599 20.7794 3.84174C20.6851 3.74749 20.5675 3.68006 20.4385 3.64639C20.3095 3.61272 20.1739 3.61403 20.0456 3.65019L2.04562 9.10831C1.89866 9.14978 1.76787 9.23513 1.67072 9.35293C1.57356 9.47073 1.51468 9.61538 1.50194 9.76754C1.4892 9.9197 1.52321 10.0721 1.59942 10.2044C1.67564 10.3368 1.79042 10.4427 1.92843 10.508L10.125 14.4961L14.1131 22.6917C14.1785 22.8298 14.2844 22.9445 14.4167 23.0208C14.549 23.097 14.7014 23.131 14.8536 23.1182C15.0057 23.1055 15.1504 23.0466 15.2682 22.9495C15.386 22.8523 15.4713 22.7215 15.5128 22.5746L20.9709 4.5755Z" stroke="#1C2A54" stroke-width="1.5" stroke-linecap="round" stroke-linejoin="round"/>
</g>
<defs>
<clipPath id="clip0_5478_4770">
<rect width="24" height="24" fill="white" transform="translate(0 0.621094)"/>
</clipPath>
</defs>
</svg>
