<svg width="24" height="25" viewBox="0 0 24 25" fill="none" xmlns="http://www.w3.org/2000/svg">
<g id="PaperPlaneTilt" clip-path="url(#clip0_4932_14193)">
<path id="Vector" d="M10.125 14.3682L15 9.49316" stroke="white" stroke-width="1.5" stroke-linecap="round" stroke-linejoin="round"/>
<path id="Vector_2" d="M20.9706 4.44754C21.0068 4.31924 21.0081 4.18363 20.9744 4.05466C20.9408 3.9257 20.8733 3.80803 20.7791 3.71378C20.6848 3.61953 20.5672 3.5521 20.4382 3.51843C20.3092 3.48476 20.1736 3.48607 20.0453 3.52223L2.04531 8.98035C1.89836 9.02182 1.76756 9.10717 1.67041 9.22497C1.57326 9.34277 1.51438 9.48742 1.50164 9.63958C1.4889 9.79174 1.52291 9.94417 1.59912 10.0765C1.67533 10.2088 1.79011 10.3147 1.92813 10.38L10.1247 14.3682L14.1128 22.5638C14.1781 22.7018 14.284 22.8166 14.4164 22.8928C14.5487 22.969 14.7011 23.003 14.8533 22.9903C15.0054 22.9775 15.1501 22.9187 15.2679 22.8215C15.3857 22.7244 15.471 22.5936 15.5125 22.4466L20.9706 4.44754Z" stroke="white" stroke-width="1.5" stroke-linecap="round" stroke-linejoin="round"/>
</g>
<defs>
<clipPath id="clip0_4932_14193">
<rect width="24" height="24" fill="white" transform="translate(0 0.493164)"/>
</clipPath>
</defs>
</svg>
