<svg width="14" height="17" viewBox="0 0 14 17" fill="none" xmlns="http://www.w3.org/2000/svg">
<path fill-rule="evenodd" clip-rule="evenodd" d="M4.28969 15.5743L4.54946 13.8689L3.97078 13.8549H1.20747L3.12787 1.26946C3.13386 1.23135 3.1532 1.19598 3.18144 1.17081C3.20983 1.14564 3.246 1.13184 3.28385 1.13184H7.94321C9.49016 1.13184 10.5576 1.46447 11.1149 2.12112C11.3762 2.42917 11.5426 2.75116 11.6232 3.10537C11.7076 3.47713 11.709 3.92122 11.6267 4.46296L11.6207 4.50236V4.84952L11.882 5.00254C12.102 5.1232 12.2769 5.26126 12.411 5.41931C12.6344 5.68277 12.779 6.01757 12.8401 6.41435C12.9033 6.82248 12.8824 7.30828 12.779 7.85822C12.6598 8.49071 12.4671 9.04165 12.2067 9.49236C11.9674 9.90769 11.6624 10.2523 11.3002 10.5192C10.9545 10.7729 10.5437 10.9654 10.0793 11.0887C9.62917 11.2098 9.11602 11.2709 8.5532 11.2709H8.1906C7.93139 11.2709 7.67954 11.3674 7.48183 11.5404C7.28355 11.717 7.15248 11.9583 7.11227 12.2222L7.08486 12.3758L6.62584 15.3819L6.60511 15.4922C6.59954 15.5271 6.59008 15.5445 6.57617 15.5563C6.56378 15.5671 6.54597 15.5743 6.52858 15.5743H4.28969" fill="#28356A"/>
<path fill-rule="evenodd" clip-rule="evenodd" d="M12.1296 4.54248C12.1158 4.63438 12.0998 4.72829 12.082 4.82478C11.4676 8.08558 9.36534 9.21206 6.6805 9.21206H5.31346C4.98509 9.21206 4.70834 9.45841 4.65727 9.79321L3.75913 15.6816C3.72587 15.9015 3.88978 16.0995 4.10433 16.0995H6.52898C6.81602 16.0995 7.05994 15.8839 7.10516 15.5913L7.12895 15.464L7.58547 12.4697L7.61482 12.3055C7.65949 12.0118 7.90396 11.7961 8.191 11.7961H8.5536C10.9027 11.7961 12.7417 10.8104 13.2792 7.95773C13.5036 6.7661 13.3874 5.77107 12.7933 5.07128C12.6136 4.86031 12.3905 4.68514 12.1296 4.54248" fill="#298FC2"/>
<path fill-rule="evenodd" clip-rule="evenodd" d="M11.4866 4.2775C11.3926 4.24917 11.2958 4.22357 11.1965 4.20042C11.0965 4.17784 10.9943 4.15785 10.889 4.14031C10.5204 4.07875 10.1165 4.04956 9.68387 4.04956H6.03187C5.94185 4.04956 5.85642 4.07056 5.78003 4.10852C5.61153 4.19222 5.48644 4.35703 5.45611 4.5588L4.67916 9.64486L4.65689 9.79313C4.70796 9.45833 4.98471 9.21198 5.31308 9.21198H6.68012C9.36496 9.21198 11.4672 8.08493 12.0817 4.82471C12.1 4.72821 12.1155 4.6343 12.1292 4.5424C11.9738 4.45712 11.8055 4.38421 11.6242 4.32208C11.5794 4.3067 11.5332 4.29188 11.4866 4.2775" fill="#22284F"/>
<path fill-rule="evenodd" clip-rule="evenodd" d="M5.45632 4.55878C5.48665 4.35701 5.61174 4.1922 5.78023 4.10908C5.85718 4.07097 5.94205 4.04997 6.03208 4.04997H9.68407C10.1167 4.04997 10.5206 4.07931 10.8892 4.14086C10.9945 4.15826 11.0968 4.17839 11.1967 4.20097C11.296 4.22398 11.3928 4.24973 11.4868 4.27791C11.5334 4.29229 11.5796 4.30725 11.6248 4.32206C11.8061 4.38419 11.9746 4.45768 12.13 4.54238C12.3128 3.33738 12.1285 2.51693 11.4982 1.774C10.8032 0.955996 9.54897 0.605957 7.94399 0.605957H3.28449C2.95668 0.605957 2.67701 0.852307 2.62636 1.18768L0.685642 13.9025C0.647379 14.1541 0.835078 14.381 1.08052 14.381H3.95709L5.45632 4.55878" fill="#28356A"/>
</svg>
