<svg width="24" height="25" viewBox="0 0 24 25" fill="none" xmlns="http://www.w3.org/2000/svg">
<g id="Phone" clip-path="url(#clip0_4932_14180)">
<path id="Vector" d="M15.4116 14.1188C15.5154 14.0497 15.6349 14.0076 15.7591 13.9963C15.8834 13.985 16.0085 14.0049 16.1231 14.0541L20.5444 16.035C20.6934 16.0987 20.8177 16.209 20.8989 16.3492C20.98 16.4895 21.0135 16.6523 20.9944 16.8132C20.8487 17.9017 20.3127 18.9002 19.486 19.6231C18.6593 20.346 17.5982 20.744 16.5 20.7432C13.1185 20.7432 9.87548 19.3999 7.48439 17.0088C5.0933 14.6177 3.75 11.3747 3.75 7.99317C3.74916 6.89499 4.1472 5.83388 4.87009 5.00717C5.59298 4.18047 6.59152 3.64445 7.68 3.4988C7.84091 3.47968 8.00368 3.51319 8.14395 3.59431C8.28422 3.67543 8.39444 3.7998 8.45813 3.9488L10.4391 8.3738C10.4877 8.48745 10.5076 8.61137 10.4968 8.73454C10.486 8.8577 10.4449 8.97628 10.3772 9.07974L8.37375 11.4619C8.30269 11.5692 8.26066 11.693 8.25179 11.8213C8.24291 11.9497 8.26749 12.0781 8.32313 12.1941C9.09844 13.7813 10.7391 15.4022 12.3309 16.17C12.4475 16.2254 12.5766 16.2495 12.7053 16.2398C12.834 16.2301 12.958 16.187 13.065 16.1147L15.4116 14.1188Z" stroke="white" stroke-width="1.5" stroke-linecap="round" stroke-linejoin="round"/>
</g>
<defs>
<clipPath id="clip0_4932_14180">
<rect width="24" height="24" fill="white" transform="translate(0 0.493164)"/>
</clipPath>
</defs>
</svg>
