<svg width="25" height="24" viewBox="0 0 25 24" fill="none" xmlns="http://www.w3.org/2000/svg">
<g id="Icon/Glyph/25/Stroller">
<g id="iconspace_Down_25px">
<g id="angle-down">
<path id="Path" fill-rule="evenodd" clip-rule="evenodd" d="M17.1133 9.76305C16.7389 9.39083 16.1341 9.39083 15.7597 9.76305L12.3133 13.1614L8.91491 9.76305C8.54047 9.39083 7.93575 9.39083 7.56131 9.76305C7.37957 9.9433 7.27734 10.1887 7.27734 10.4446C7.27734 10.7006 7.37957 10.946 7.56131 11.1262L11.6317 15.1966C11.812 15.3784 12.0573 15.4806 12.3133 15.4806C12.5693 15.4806 12.8147 15.3784 12.9949 15.1966L17.1133 11.1262C17.2951 10.946 17.3973 10.7006 17.3973 10.4446C17.3973 10.1887 17.2951 9.9433 17.1133 9.76305Z" fill="#FD71AF"/>
</g>
</g>
</g>
</svg>
