<svg width="76" height="22" viewBox="0 0 76 22" fill="none" xmlns="http://www.w3.org/2000/svg">
<rect x="0.339966" y="0.655762" width="75" height="20.8858" rx="2.72727" fill="url(#paint0_linear_5478_3501)"/>
<path d="M11.7057 11.3152C12.0484 11.7181 12.2425 12.21 12.2425 12.7167C12.2425 12.9703 12.2425 13.6115 11.7205 14.193C11.4668 14.4915 11.094 14.7151 10.6617 14.8643C10.4529 14.9386 10.2293 14.9982 9.99042 15.0283V16.0871H8.05158V14.9982C7.8876 14.9681 7.72363 14.9239 7.58912 14.8643C7.20161 14.7151 6.8884 14.4915 6.60465 14.2231C5.68038 13.3879 5.79952 12.2843 5.79952 12.1652L7.45461 12.1799C7.45461 12.1799 7.45461 12.627 7.64869 12.9107C7.87223 13.2688 8.33469 13.4622 8.99058 13.4622C10.0494 13.4622 10.5413 13.1791 10.5413 12.7167C10.5413 12.2542 9.92957 11.941 8.93101 11.8218C8.30458 11.7623 7.78256 11.6278 7.35021 11.4491C6.93259 11.2704 6.60465 11.0462 6.351 10.7631C5.97822 10.3756 5.79952 9.89837 5.79952 9.37635C5.79952 8.64552 6.098 8.1536 6.33627 7.85512C6.73916 7.40804 7.30537 7.12429 8.05094 6.99042V6.11035H9.98978V7.00515C10.9589 7.21396 11.511 7.75072 11.8089 8.21317C12.2117 8.8396 12.2412 9.58516 12.2412 9.7043H10.5861C10.5861 9.63 10.5714 9.31678 10.4074 9.0926C10.1685 8.76466 9.6913 8.55585 9.02068 8.55585C8.35006 8.55585 7.51482 8.73455 7.51482 9.27195C7.51482 9.77924 8.03685 10.0623 9.11035 10.1815C10.3036 10.316 11.1683 10.7035 11.7051 11.3146L11.7057 11.3152Z" fill="#1F1F1F"/>
<g clip-path="url(#clip0_5478_3501)">
<path d="M20.6087 9.49123C20.6087 11.0778 19.4903 12.1429 17.7969 12.1429H16.1569V14.8266H14.6551V6.9458H17.8503C19.5116 6.9458 20.6087 7.96814 20.6087 9.49123ZM19.0643 9.54461C19.0643 8.73529 18.5213 8.19182 17.6907 8.19182H16.1569V10.8969H17.6907C18.5427 10.8969 19.0643 10.3539 19.0643 9.54408V9.54461Z" fill="#1F1F1F"/>
<path d="M24.5275 8.98071L24.4314 10.3122C23.2388 10.3122 22.4503 10.8871 22.4503 11.7498V14.8275H21.0019V9.08748H22.3969L22.4182 9.8541C22.8763 9.28982 23.6002 8.98071 24.527 8.98071H24.5275Z" fill="#1F1F1F"/>
<path d="M24.5815 7.29728C24.5815 6.79653 24.9434 6.43457 25.4442 6.43457C25.9449 6.43457 26.2962 6.79653 26.2962 7.29728C26.2962 7.79804 25.9449 8.14932 25.4442 8.14932C24.9434 8.14932 24.5815 7.79804 24.5815 7.29728ZM24.7197 9.08677H26.1681V14.8273H24.7197V9.08677Z" fill="#1F1F1F"/>
<path d="M26.6682 11.9522C26.6682 10.1733 27.9035 8.98071 29.7459 8.98071C30.1612 8.98071 30.6086 9.09763 30.9385 9.27914V10.6213C30.6721 10.3762 30.2568 10.2166 29.8201 10.2166C28.8298 10.2166 28.1694 10.909 28.1694 11.9527C28.1694 12.9964 28.8298 13.6888 29.8201 13.6888C30.2781 13.6888 30.7042 13.5185 30.9705 13.2521V14.5942C30.6614 14.8072 30.1719 14.9348 29.7459 14.9348C27.9035 14.9348 26.6682 13.7422 26.6682 11.9527V11.9522Z" fill="#1F1F1F"/>
<path d="M36.8178 12.4743H32.6644C32.7712 13.2836 33.1967 13.795 34.038 13.795C34.6237 13.795 35.1031 13.5286 35.4437 13.1133L36.5621 13.6776C36.0507 14.4442 35.1458 14.9343 34.0594 14.9343C32.3019 14.9343 31.1306 13.763 31.1306 11.9949C31.1306 10.2267 32.2704 8.98071 33.9953 8.98071C35.7202 8.98071 36.86 10.1312 36.86 11.8667C36.86 12.0691 36.8386 12.3034 36.8173 12.4737L36.8178 12.4743ZM32.6644 11.4946H35.3374C35.2307 10.6213 34.7732 10.121 33.9953 10.121C33.2175 10.121 32.7813 10.6218 32.6639 11.4946H32.6644Z" fill="#1F1F1F"/>
<path d="M47.0415 14.8268L46.7324 9.44875L44.3252 14.8268H43.4945L41.0874 9.46957L40.7782 14.8268H39.2765L39.8088 6.90332H41.4594L43.9088 12.3668L46.3581 6.90332H48.0088L48.5411 14.8268H47.0393H47.0415Z" fill="#1F1F1F"/>
<path d="M54.0914 9.08716V14.8277H52.6964L52.6644 14.0077C52.2811 14.604 51.6207 14.9345 50.9176 14.9345C49.7357 14.9345 48.9365 14.2207 48.9365 13.1557C48.9365 12.0906 49.9054 11.324 51.3751 11.324C51.7691 11.324 52.2058 11.3667 52.6425 11.4516V10.2269H49.2984V9.08716H54.0909H54.0914ZM52.6431 12.4312C52.2704 12.3565 51.8871 12.3143 51.5567 12.3143C50.8856 12.3143 50.4382 12.6336 50.4382 13.1236C50.4382 13.6137 50.7473 13.9009 51.333 13.9009C52.004 13.9009 52.6324 13.3687 52.6431 12.4312Z" fill="#1F1F1F"/>
<path d="M58.0643 11.9522C58.0643 10.1733 59.2997 8.98071 61.142 8.98071C61.5574 8.98071 62.0047 9.09763 62.3347 9.27914V10.6213C62.0683 10.3762 61.6529 10.2166 61.2162 10.2166C60.2259 10.2166 59.5655 10.909 59.5655 11.9527C59.5655 12.9964 60.2259 13.6888 61.2162 13.6888C61.6743 13.6888 62.1003 13.5185 62.3662 13.2521V14.5942C62.057 14.8072 61.5675 14.9348 61.1415 14.9348C59.2991 14.9348 58.0638 13.7422 58.0638 11.9527L58.0643 11.9522Z" fill="#1F1F1F"/>
<path d="M68.5227 11.2166V14.8271H67.0743V11.451C67.0743 10.7057 66.5415 10.2157 65.7322 10.2157C64.9229 10.2157 64.3901 10.7057 64.3901 11.451V14.8271H62.9417V6.51978H64.3901V9.77844C64.8268 9.24618 65.4872 8.97979 66.2324 8.97979C67.6066 8.97979 68.5221 9.87453 68.5221 11.2161L68.5227 11.2166Z" fill="#1F1F1F"/>
<path d="M58.2772 8.45321V7.27125H57.0526V6.33594H55.6042V7.27125H54.4004V8.45321H55.6042V8.81944H54.4004V10.0014H55.6042V14.8269H57.0526V10.0014H58.2772V8.81944H57.0526V8.45321H58.2772Z" fill="#1F1F1F"/>
</g>
<defs>
<linearGradient id="paint0_linear_5478_3501" x1="1.02178" y1="1.19243" x2="74.6581" y2="19.6015" gradientUnits="userSpaceOnUse">
<stop stop-color="#FFA75B"/>
<stop offset="1" stop-color="#FFC089"/>
</linearGradient>
<clipPath id="clip0_5478_3501">
<rect width="53.8667" height="8.59723" fill="white" transform="translate(14.6551 6.33569)"/>
</clipPath>
</defs>
</svg>
