<svg width="173" height="112" viewBox="0 0 173 112" fill="none" xmlns="http://www.w3.org/2000/svg">
<path d="M39.14 111.075C17.1 111.075 0 96.6351 0 74.2151C0 66.9951 1.14 59.0151 4.94 48.3751L21.66 0.495117H60.04V1.63512L50.16 40.3951C68.78 42.6751 78.28 55.2151 78.28 73.8351C78.28 95.8751 62.32 111.075 39.14 111.075ZM133 111.075C110.96 111.075 93.86 96.6351 93.86 74.2151C93.86 66.9951 95 59.0151 98.8 48.3751L115.52 0.495117H153.9V1.63512L144.02 40.3951C162.64 42.6751 172.14 55.2151 172.14 73.8351C172.14 95.8751 156.18 111.075 133 111.075Z" fill="#F470AB" fill-opacity="0.1"/>
</svg>
