<svg width="11" height="11" viewBox="0 0 11 11" fill="none" xmlns="http://www.w3.org/2000/svg">
<g clip-path="url(#clip0_5478_5544)">
<path d="M7.01639 5.85596C7.18916 6.05909 7.28701 6.3071 7.28701 6.56255C7.28701 6.69043 7.28701 7.01369 7.02382 7.30692C6.89594 7.4574 6.70799 7.57011 6.49001 7.64535C6.38473 7.68281 6.27202 7.71285 6.15157 7.72802V8.26184H5.17404V7.71285C5.09137 7.69767 5.0087 7.67539 4.94088 7.64535C4.7455 7.57011 4.58759 7.4574 4.44453 7.32209C3.97853 6.90098 4.0386 6.34457 4.0386 6.2845L4.87306 6.29193C4.87306 6.29193 4.87306 6.51734 4.97091 6.6604C5.08362 6.84092 5.31678 6.93845 5.64746 6.93845C6.18128 6.93845 6.42929 6.79571 6.42929 6.56255C6.42929 6.32939 6.12089 6.17147 5.61743 6.11141C5.3016 6.08137 5.03841 6.01356 4.82042 5.92346C4.60987 5.83336 4.44453 5.72033 4.31664 5.57759C4.12869 5.38221 4.0386 5.14163 4.0386 4.87843C4.0386 4.50996 4.18908 4.26195 4.30922 4.11146C4.51234 3.88605 4.79782 3.74299 5.17372 3.6755V3.23178H6.15125V3.68292C6.63985 3.7882 6.91822 4.05882 7.06838 4.29198C7.27151 4.60781 7.28637 4.98371 7.28637 5.04378H6.4519C6.4519 5.00632 6.44447 4.8484 6.3618 4.73537C6.24134 4.57003 6.00076 4.46475 5.66264 4.46475C5.32453 4.46475 4.90342 4.55485 4.90342 4.8258C4.90342 5.08156 5.16661 5.2243 5.70785 5.28436C6.30948 5.35218 6.74545 5.54756 7.01607 5.85564L7.01639 5.85596Z" fill="white"/>
<path d="M5.66196 10.4908C3.04618 10.4908 0.91803 8.36266 0.91803 5.74688C0.91803 3.13109 3.04618 1.00327 5.66196 1.00327C8.27775 1.00327 10.4056 3.13142 10.4056 5.74688C10.4056 8.36234 8.27743 10.4905 5.66196 10.4905V10.4908ZM5.66196 1.72858C3.4463 1.72858 1.64367 3.53121 1.64367 5.74688C1.64367 7.96254 3.4463 9.76517 5.66196 9.76517C7.87763 9.76517 9.68026 7.96254 9.68026 5.74688C9.68026 3.53121 7.87763 1.72858 5.66196 1.72858Z" fill="white"/>
</g>
<defs>
<clipPath id="clip0_5478_5544">
<rect width="10.0141" height="10.0141" fill="white" transform="translate(0.724121 0.327484)"/>
</clipPath>
</defs>
</svg>
