<svg width="40" height="40" viewBox="0 0 40 40" fill="none" xmlns="http://www.w3.org/2000/svg">
<g clip-path="url(#clip0_5478_3416)">
<path d="M4.83281 31.05C7.40469 28.3109 14.1563 22.5 23.75 22.5V30L36.25 17.5L23.75 5V12.5C15.5 12.5 4.92344 20.3828 3.75 30.5531C3.73376 30.6848 3.75985 30.8183 3.82451 30.9342C3.88917 31.05 3.98903 31.1423 4.10964 31.1977C4.23025 31.253 4.36534 31.2685 4.49536 31.242C4.62537 31.2154 4.74356 31.1482 4.83281 31.05Z" fill="#E2E0DE"/>
<path d="M4.83281 31.05C7.40469 28.3109 14.1563 22.5 23.75 22.5V30L36.25 17.5L23.75 5V12.5C15.5 12.5 4.92344 20.3828 3.75 30.5531C3.73376 30.6848 3.75985 30.8183 3.82451 30.9342C3.88917 31.05 3.98903 31.1423 4.10964 31.1977C4.23025 31.253 4.36534 31.2685 4.49536 31.242C4.62537 31.2154 4.74356 31.1482 4.83281 31.05Z" stroke="#E2E0DE" stroke-width="1.5" stroke-linecap="round" stroke-linejoin="round"/>
</g>
<defs>
<clipPath id="clip0_5478_3416">
<rect width="40" height="40" fill="white"/>
</clipPath>
</defs>
</svg>
