<svg width="17" height="13" viewBox="0 0 17 13" fill="none" xmlns="http://www.w3.org/2000/svg">
<g id="Group 34427">
<g id="Group 34428">
<path id="Vector (Stroke)" fill-rule="evenodd" clip-rule="evenodd" d="M10.3861 0.419688C10.4544 0.419687 10.5196 0.448759 10.5652 0.499647L11.6447 1.703C11.7335 1.80194 11.7252 1.9541 11.6263 2.04286C11.5273 2.13162 11.3752 2.12336 11.2864 2.02442L10.3861 1.02078L9.48577 2.02441C9.39701 2.12336 9.24485 2.13162 9.14591 2.04286C9.04697 1.95411 9.03871 1.80195 9.12746 1.703L10.2069 0.499653C10.2526 0.448763 10.3177 0.419689 10.3861 0.419688Z" fill="#A0A0A0"/>
<path id="Vector (Stroke)_2" fill-rule="evenodd" clip-rule="evenodd" d="M10.3854 11.9231C10.3171 11.9231 10.2519 11.894 10.2063 11.8431L9.12677 10.6398C9.03801 10.5408 9.04627 10.3887 9.14521 10.2999C9.24415 10.2112 9.39631 10.2194 9.48507 10.3184L10.3854 11.322L11.2857 10.3184C11.3745 10.2194 11.5266 10.2112 11.6256 10.2999C11.7245 10.3887 11.7328 10.5408 11.644 10.6398L10.5646 11.8431C10.5189 11.894 10.4538 11.9231 10.3854 11.9231Z" fill="#A0A0A0"/>
<path id="Vector (Stroke)_3" fill-rule="evenodd" clip-rule="evenodd" d="M10.3863 0.417492C10.5192 0.417492 10.627 0.525243 10.627 0.658162L10.627 11.4884C10.627 11.6213 10.5192 11.729 10.3863 11.729C10.2534 11.729 10.1457 11.6213 10.1457 11.4884L10.1456 0.658163C10.1456 0.525245 10.2534 0.417493 10.3863 0.417492Z" fill="#A0A0A0"/>
<path id="Vector (Stroke)_4" fill-rule="evenodd" clip-rule="evenodd" d="M1.17393 0.900286C1.01148 0.900286 0.879778 1.03198 0.879778 1.19444V4.9382C0.879778 5.10066 1.01148 5.23235 1.17393 5.23235H4.91769C5.08015 5.23235 5.21185 5.10066 5.21185 4.9382V1.19444C5.21185 1.03198 5.08015 0.900286 4.91769 0.900286H1.17393ZM0.398438 1.19444C0.398438 0.766146 0.745638 0.418945 1.17393 0.418945H4.91769C5.34599 0.418945 5.69319 0.766146 5.69319 1.19444V4.9382C5.69319 5.36649 5.34599 5.71369 4.91769 5.71369H1.17393C0.745638 5.71369 0.398438 5.36649 0.398438 4.9382V1.19444Z" fill="#A0A0A0"/>
<path id="Vector (Stroke)_5" fill-rule="evenodd" clip-rule="evenodd" d="M1.17393 7.15712C1.01148 7.15712 0.879778 7.28882 0.879778 7.45127V11.195C0.879778 11.3575 1.01148 11.4892 1.17393 11.4892H4.91769C5.08015 11.4892 5.21185 11.3575 5.21185 11.195V7.45127C5.21185 7.28882 5.08015 7.15712 4.91769 7.15712H1.17393ZM0.398438 7.45127C0.398438 7.02298 0.745638 6.67578 1.17393 6.67578H4.91769C5.34599 6.67578 5.69319 7.02298 5.69319 7.45127V11.195C5.69319 11.6233 5.34599 11.9705 4.91769 11.9705H1.17393C0.745638 11.9705 0.398438 11.6233 0.398438 11.195V7.45127Z" fill="#A0A0A0"/>
</g>
</g>
</svg>
