<svg width="41" height="30" viewBox="0 0 41 30" fill="none" xmlns="http://www.w3.org/2000/svg">
<path fill-rule="evenodd" clip-rule="evenodd" d="M22.4889 9.83769L20.1845 10.3468V8.42351L22.4889 7.92383V9.83769ZM27.2812 10.9032C26.3815 10.9032 25.8031 11.3369 25.4817 11.6385L25.3624 11.054H23.3426V22.0469L25.6378 21.5473L25.647 18.8792C25.9775 19.1243 26.4641 19.4731 27.272 19.4731C28.9154 19.4731 30.4119 18.1155 30.4119 15.1269C30.4027 12.3928 28.8879 10.9032 27.2812 10.9032ZM26.7302 17.3989C26.1885 17.3989 25.8672 17.201 25.6469 16.9558L25.6377 13.4581C25.8764 13.1847 26.2069 12.9961 26.7302 12.9961C27.5657 12.9961 28.1441 13.9578 28.1441 15.1928C28.1441 16.4562 27.5749 17.3989 26.7302 17.3989ZM37.6465 15.2211C37.6465 12.8076 36.5081 10.9032 34.3322 10.9032C32.1471 10.9032 30.8251 12.8076 30.8251 15.2023C30.8251 18.0401 32.3858 19.4731 34.626 19.4731C35.7185 19.4731 36.5448 19.2186 37.1691 18.8603V16.9747C36.5448 17.2953 35.8287 17.4933 34.9198 17.4933C34.0292 17.4933 33.2397 17.1727 33.1387 16.0602H37.6282C37.6282 16.0083 37.6315 15.8902 37.6353 15.7542C37.6404 15.5694 37.6465 15.3515 37.6465 15.2211ZM33.1111 14.3256C33.1111 13.2602 33.7446 12.8171 34.323 12.8171C34.883 12.8171 35.4798 13.2602 35.4798 14.3256H33.1111ZM20.1843 11.0635H22.4887V19.3129H20.1843V11.0635ZM17.568 11.0633L17.7149 11.7609C18.2566 10.7427 19.3308 10.9501 19.6245 11.0633V13.2317C19.3399 13.128 18.4218 12.996 17.8802 13.7219V19.3127H15.5849V11.0633H17.568ZM13.1242 9.01741L10.884 9.50766L10.8748 17.0594C10.8748 18.4547 11.8939 19.4824 13.2527 19.4824C14.0055 19.4824 14.5564 19.3409 14.8594 19.1712V17.2574C14.5656 17.3799 13.115 17.8136 13.115 16.4183V13.0714H14.8594V11.0633H13.115L13.1242 9.01741ZM7.69843 12.949C7.21184 12.949 6.91805 13.0904 6.91805 13.4581C6.91805 13.8596 7.42367 14.0362 8.05094 14.2553C9.07355 14.6124 10.4195 15.0825 10.4252 16.8239C10.4252 18.5115 9.1123 19.4825 7.20266 19.4825C6.41309 19.4825 5.55008 19.3223 4.69625 18.9452V16.7013C5.46745 17.135 6.44064 17.4555 7.20266 17.4555C7.71679 17.4555 8.08403 17.3141 8.08403 16.8804C8.08403 16.4358 7.53593 16.2325 6.87422 15.9871C5.86649 15.6134 4.59526 15.142 4.59526 13.5713C4.59526 11.9025 5.83469 10.9032 7.69843 10.9032C8.46045 10.9032 9.21329 11.0257 9.97531 11.3369V13.5524C9.27756 13.1659 8.39619 12.949 7.69843 12.949Z" fill="#6461FC"/>
</svg>
