<svg width="50" height="22" viewBox="0 0 50 22" fill="none" xmlns="http://www.w3.org/2000/svg">
<rect x="0.339966" y="0.525391" width="48.9409" height="21.1467" rx="2.72727" fill="url(#paint0_linear_5478_3490)"/>
<g clip-path="url(#clip0_5478_3490)">
<path d="M29.8737 12.6593C29.8737 13.2247 29.8737 13.7902 29.8737 14.3556C29.8737 14.427 29.8377 14.4626 29.7656 14.4626C29.2743 14.4626 28.783 14.4626 28.2917 14.4626C28.2208 14.4626 28.1853 14.426 28.1853 14.3528C28.1853 12.0548 28.1853 9.75673 28.1853 7.45869C28.1853 7.20964 28.187 6.96116 28.1842 6.71211C28.1836 6.65041 28.2045 6.62437 28.2668 6.61532C28.7791 6.53834 29.2907 6.45966 29.8024 6.37872C29.872 6.36797 29.8749 6.40136 29.8749 6.454C29.8743 7.60529 29.8743 8.75657 29.8743 9.90786V9.96899C29.9077 9.72673 29.9603 9.49013 30.0566 9.26429C30.2926 8.71242 30.7013 8.34847 31.2729 8.17357C31.7937 8.01395 32.3212 8.00376 32.8459 8.15489C33.4204 8.32017 33.8449 8.67903 34.1438 9.19071C34.3815 9.59711 34.5066 10.0403 34.5762 10.5033C34.634 10.8876 34.643 11.2742 34.6232 11.6603C34.5926 12.2574 34.4806 12.8364 34.1936 13.3691C33.8489 14.0081 33.3276 14.4173 32.6059 14.547C32.114 14.6358 31.6261 14.6075 31.1558 14.4309C30.5099 14.1887 30.1245 13.7126 29.9496 13.0555C29.9151 12.9253 29.893 12.7929 29.8749 12.6593H29.8737ZM31.355 13.2383C31.458 13.2383 31.5599 13.2321 31.6601 13.214C31.7535 13.197 31.8458 13.1732 31.9346 13.1381C32.3637 12.97 32.6269 12.6468 32.7695 12.2223C32.9455 11.6976 32.9506 11.1616 32.8301 10.6244C32.7667 10.3426 32.6535 10.0822 32.4588 9.86427C32.0722 9.43183 31.5758 9.32995 31.0301 9.42334C30.5615 9.50372 30.2241 9.78333 30.0271 10.2061C29.7068 10.8944 29.696 11.6065 29.9762 12.3066C30.2201 12.9163 30.6922 13.2293 31.3556 13.2383H31.355Z" fill="#1F1F1F"/>
<path d="M22.8082 9.90322C22.8592 9.58285 22.9509 9.27493 23.1229 8.99532C23.3844 8.57137 23.7614 8.29629 24.238 8.16384C24.8465 7.9946 25.451 8.00252 26.0391 8.25214C26.54 8.46496 26.8921 8.8374 27.14 9.31399C27.3426 9.70341 27.4524 10.1217 27.5107 10.5553C27.5475 10.8292 27.5656 11.1043 27.5611 11.38C27.5526 11.9437 27.4852 12.4984 27.2786 13.0282C27.0896 13.5139 26.8049 13.9276 26.364 14.2197C26.0119 14.4529 25.6208 14.5644 25.2008 14.5859C24.8589 14.6034 24.5221 14.5763 24.1961 14.471C23.4591 14.2333 23.0307 13.7165 22.858 12.9739C22.8394 12.8929 22.8269 12.8097 22.8077 12.7277C22.8077 12.7526 22.8077 12.7769 22.8077 12.8018C22.8077 13.322 22.8077 13.8421 22.8077 14.3623C22.8077 14.4631 22.8077 14.4631 22.7058 14.4631C22.2077 14.4631 21.7096 14.4631 21.212 14.4631C21.1187 14.4631 21.1181 14.4631 21.1181 14.3691C21.1181 11.8181 21.1181 9.26701 21.117 6.71596C21.117 6.65087 21.1356 6.62483 21.2007 6.61521C21.6303 6.55181 22.0594 6.48502 22.4884 6.4188C22.5733 6.40578 22.6582 6.39333 22.7431 6.37861C22.7901 6.37069 22.8116 6.3871 22.8082 6.43578C22.8065 6.46068 22.8082 6.48559 22.8082 6.51049C22.8082 7.6414 22.8082 8.77174 22.8082 9.90265V9.90322ZM25.8353 11.2656C25.8381 11.0726 25.8138 10.8258 25.7504 10.5836C25.6689 10.2717 25.5336 9.98755 25.2931 9.76567C24.9121 9.41474 24.4536 9.33663 23.9635 9.42323C23.4478 9.51436 23.1026 9.83416 22.9084 10.3074C22.6599 10.9136 22.6554 11.5362 22.8461 12.1605C22.9282 12.4288 23.0686 12.6648 23.2746 12.8584C23.5893 13.1533 23.9691 13.2608 24.3925 13.2348C24.9512 13.2008 25.361 12.9388 25.61 12.4356C25.7838 12.0852 25.8353 11.7088 25.8347 11.2651L25.8353 11.2656Z" fill="#1F1F1F"/>
<path d="M18.4818 9.92943C18.4818 9.46586 18.4829 9.00229 18.4806 8.53872C18.4806 8.47193 18.4982 8.44533 18.5678 8.43514C19.0755 8.35986 19.5827 8.28005 20.0898 8.20024C20.1515 8.19062 20.1742 8.21213 20.1702 8.27099C20.1691 8.28911 20.1702 8.30722 20.1702 8.32533C20.1702 10.3268 20.1702 12.3282 20.1702 14.3297C20.1702 14.3433 20.1702 14.3568 20.1702 14.3704C20.1691 14.4604 20.1679 14.4621 20.0796 14.4621C19.577 14.4621 19.0744 14.4621 18.5718 14.4621C18.4835 14.4621 18.4829 14.4621 18.4829 14.3704C18.4829 13.814 18.4829 13.2576 18.4801 12.7007C18.458 12.8178 18.4393 12.9356 18.4099 13.051C18.1976 13.891 17.5478 14.4565 16.6852 14.5578C16.2811 14.6053 15.8815 14.5991 15.4892 14.4797C14.9215 14.3065 14.5038 13.9482 14.2123 13.4382C13.9695 13.0131 13.8483 12.5495 13.7844 12.0684C13.73 11.6564 13.7266 11.2432 13.7583 10.83C13.8002 10.2889 13.9123 9.76472 14.1698 9.28134C14.5457 8.57608 15.1287 8.16741 15.9273 8.07345C16.3541 8.02308 16.773 8.0593 17.1782 8.20477C17.7635 8.4142 18.1523 8.82116 18.3578 9.4053C18.4178 9.57624 18.454 9.7534 18.4829 9.93056L18.4818 9.92943ZM18.5667 11.2896C18.5723 11.0434 18.5361 10.7734 18.4546 10.5102C18.1908 9.66284 17.515 9.25983 16.6496 9.4302C16.1141 9.53548 15.7751 9.88075 15.6013 10.3828C15.3919 10.989 15.3924 11.6054 15.5871 12.2156C15.7864 12.8399 16.2732 13.2056 16.9162 13.2356C17.5739 13.2661 18.0827 12.9639 18.3578 12.3752C18.514 12.0413 18.5701 11.6858 18.5667 11.2901V11.2896Z" fill="#1F1F1F"/>
<path d="M37.8389 14.234C37.8666 14.1304 37.8943 14.0268 37.9215 13.9232C38.187 12.9106 38.453 11.8986 38.7179 10.886C38.9466 10.0131 39.1752 9.14091 39.4005 8.26754C39.4198 8.19339 39.4515 8.17132 39.5256 8.17189C40.0214 8.17472 40.5173 8.17358 41.0131 8.17358C41.111 8.17358 41.111 8.17358 41.0867 8.26754C40.7658 9.48958 40.4443 10.7122 40.1239 11.9342C39.8409 13.0119 39.5584 14.0902 39.2754 15.1685C39.1769 15.5443 39.0767 15.9201 38.9805 16.2971C38.9652 16.3571 38.9375 16.3758 38.8775 16.3752C38.3749 16.3735 37.8723 16.3741 37.3696 16.3741C37.2836 16.3741 37.2808 16.3696 37.3017 16.2909C37.4545 15.7067 37.6074 15.1232 37.7602 14.539C37.78 14.4638 37.776 14.4587 37.6957 14.4587C37.2496 14.4587 36.8036 14.457 36.3576 14.4598C36.2863 14.4598 36.2551 14.4394 36.2365 14.3681C35.9342 13.2021 35.6286 12.0361 35.324 10.8707C35.0971 10.0024 34.8707 9.13412 34.6437 8.26584C34.6199 8.17585 34.6216 8.17415 34.7139 8.17415C35.2527 8.17415 35.7916 8.17528 36.3304 8.17245C36.4017 8.17245 36.4278 8.19849 36.4431 8.26471C36.5783 8.85734 36.7164 9.44939 36.854 10.042C37.0249 10.7795 37.1959 11.5176 37.3668 12.2552C37.5145 12.8936 37.6623 13.5327 37.81 14.1711C37.8151 14.1926 37.8219 14.213 37.8275 14.2345C37.8315 14.2345 37.8355 14.2345 37.8394 14.2351L37.8389 14.234Z" fill="#1F1F1F"/>
<path d="M9.90192 8.38204C10.3666 8.31129 10.8319 8.24054 11.2966 8.16922C11.7483 8.10016 12.1994 8.02998 12.6511 7.96036C12.8209 7.93432 12.9913 7.90942 13.1605 7.88111C13.2114 7.87262 13.2312 7.88564 13.2312 7.93828C13.2301 8.29544 13.2295 8.65317 13.2312 9.01032C13.2312 9.06806 13.1973 9.07711 13.1548 9.08334C12.8531 9.12975 12.5515 9.17617 12.2498 9.22258C11.9169 9.27409 11.5836 9.3256 11.2507 9.37541C11.1987 9.38333 11.1789 9.40484 11.18 9.45918C11.184 9.59049 11.1834 9.72181 11.1817 9.85256C11.1811 9.90633 11.1941 9.92275 11.2524 9.91369C11.8869 9.81407 12.522 9.71842 13.1565 9.6188C13.2182 9.60917 13.2318 9.62898 13.2312 9.68445C13.2301 10.0167 13.2295 10.3495 13.2312 10.6818C13.2312 10.7378 13.212 10.761 13.1554 10.7695C12.5158 10.8669 11.8768 10.9671 11.2377 11.065C11.1953 11.0718 11.1806 11.0876 11.1806 11.1295C11.1817 11.5591 11.1777 11.9893 11.184 12.4189C11.1885 12.7302 11.3679 12.9261 11.6837 12.9725C12.1088 13.0353 12.5282 13.0279 12.9262 12.8355C12.9726 12.8128 12.9867 12.8293 12.9867 12.8762C12.9862 13.3353 12.9862 13.7943 12.9867 14.2539C12.9867 14.297 12.9675 14.319 12.9296 14.3349C12.5871 14.4752 12.2311 14.5562 11.8632 14.5822C11.4947 14.6083 11.1302 14.5834 10.777 14.4668C10.0661 14.2324 9.66079 13.7349 9.53061 13.0053C9.50457 12.8604 9.49269 12.7144 9.49325 12.5666C9.49438 12.1891 9.49325 11.811 9.49325 11.4335C9.49325 11.3367 9.49325 11.3355 9.40099 11.3497C9.14175 11.3887 8.88252 11.4284 8.62328 11.4691C8.52479 11.4844 8.52309 11.4844 8.52309 11.3865C8.52309 11.0655 8.52479 10.744 8.52196 10.4231C8.52196 10.3608 8.53498 10.3308 8.60347 10.3212C8.85874 10.2861 9.11289 10.2425 9.36816 10.2046C9.49269 10.1859 9.49325 10.1882 9.49325 10.0637C9.49325 9.95275 9.49325 9.84181 9.49325 9.73143C9.49325 9.65785 9.4808 9.64823 9.40948 9.65898C9.14119 9.7003 8.87289 9.74219 8.60517 9.78407C8.52875 9.79596 8.52423 9.79313 8.52423 9.71445C8.52423 9.37088 8.52649 9.02674 8.52253 8.68316C8.52196 8.60958 8.54856 8.58638 8.61649 8.57675C8.91195 8.5343 9.20685 8.48562 9.50231 8.44374C9.57023 8.43412 9.59117 8.40638 9.59117 8.33789C9.58891 7.64339 9.59004 6.94888 9.59004 6.25494C9.58966 6.17645 9.62966 6.13721 9.71004 6.13721C10.1991 6.13721 10.6881 6.13721 11.1772 6.13721C11.2779 6.13721 11.2802 6.13721 11.2779 6.23852C11.2734 6.44852 11.296 6.65964 11.2643 6.8685C11.1823 7.41302 10.8964 7.82734 10.4413 8.1296C10.2744 8.24054 10.0921 8.31921 9.90192 8.38148V8.38204Z" fill="#1F1F1F"/>
</g>
<defs>
<linearGradient id="paint0_linear_5478_3490" x1="3.02166" y1="8.4554" x2="47.0132" y2="16.8445" gradientUnits="userSpaceOnUse">
<stop stop-color="#80FBA7"/>
<stop offset="1" stop-color="#80FAC8"/>
</linearGradient>
<clipPath id="clip0_5478_3490">
<rect width="32.5773" height="10.2376" fill="white" transform="translate(8.52178 5.97974)"/>
</clipPath>
</defs>
</svg>
