<svg width="35" height="36" viewBox="0 0 35 36" fill="none" xmlns="http://www.w3.org/2000/svg">
<g clip-path="url(#clip0_5478_3673)">
<path opacity="0.5" d="M25.0495 16.7164V19.9563H3.4501V25.3562C3.4501 25.6426 3.56388 25.9173 3.76641 26.1199C3.96895 26.3224 4.24364 26.4362 4.53007 26.4362H7.76998C7.76998 25.5769 8.11133 24.7528 8.71893 24.1452C9.32653 23.5376 10.1506 23.1963 11.0099 23.1963C11.8692 23.1963 12.6933 23.5376 13.3009 24.1452C13.9085 24.7528 14.2498 25.5769 14.2498 26.4362H22.8896C22.8896 25.5769 23.2309 24.7528 23.8385 24.1452C24.4461 23.5376 25.2702 23.1963 26.1295 23.1963C26.9888 23.1963 27.8128 23.5376 28.4204 24.1452C29.028 24.7528 29.3694 25.5769 29.3694 26.4362H32.6093C32.8957 26.4362 33.1704 26.3224 33.373 26.1199C33.5755 25.9173 33.6893 25.6426 33.6893 25.3562V16.7164H25.0495Z" fill="#F396C1"/>
<path d="M25.0505 11.3164H30.7987C31.0139 11.3163 31.2242 11.3805 31.4027 11.5008C31.5811 11.621 31.7196 11.7919 31.8003 11.9914L33.6903 16.7163" stroke="#1F1F1F" stroke-width="1.72795" stroke-linecap="round" stroke-linejoin="round"/>
<path d="M3.4501 19.9562H25.0495" stroke="#1F1F1F" stroke-width="1.72795" stroke-linecap="round" stroke-linejoin="round"/>
<path d="M26.13 29.6748C27.9194 29.6748 29.3699 28.2242 29.3699 26.4349C29.3699 24.6455 27.9194 23.1949 26.13 23.1949C24.3407 23.1949 22.8901 24.6455 22.8901 26.4349C22.8901 28.2242 24.3407 29.6748 26.13 29.6748Z" stroke="#1F1F1F" stroke-width="1.72795" stroke-linecap="round" stroke-linejoin="round"/>
<path d="M11.0108 29.6748C12.8002 29.6748 14.2507 28.2242 14.2507 26.4349C14.2507 24.6455 12.8002 23.1949 11.0108 23.1949C9.22145 23.1949 7.7709 24.6455 7.7709 26.4349C7.7709 28.2242 9.22145 29.6748 11.0108 29.6748Z" stroke="#1F1F1F" stroke-width="1.72795" stroke-linecap="round" stroke-linejoin="round"/>
<path d="M22.891 26.4355H14.2512" stroke="#1F1F1F" stroke-width="1.72795" stroke-linecap="round" stroke-linejoin="round"/>
<path d="M25.0505 16.7164H33.6903V25.3562C33.6903 25.6426 33.5765 25.9173 33.374 26.1199C33.1714 26.3224 32.8967 26.4362 32.6103 26.4362H29.3704" stroke="#1F1F1F" stroke-width="1.72795" stroke-linecap="round" stroke-linejoin="round"/>
<path d="M7.76998 26.4355H4.53007C4.24364 26.4355 3.96895 26.3218 3.76641 26.1192C3.56388 25.9167 3.4501 25.642 3.4501 25.3556V10.236C3.4501 9.94955 3.56388 9.67486 3.76641 9.47232C3.96895 9.26979 4.24364 9.15601 4.53007 9.15601H25.0495V23.3806" stroke="#1F1F1F" stroke-width="1.72795" stroke-linecap="round" stroke-linejoin="round"/>
</g>
<defs>
<clipPath id="clip0_5478_3673">
<rect width="34.5591" height="34.5591" fill="white" transform="translate(0.209183 0.516846)"/>
</clipPath>
</defs>
</svg>
