<svg width="41" height="41" viewBox="0 0 41 41" fill="none" xmlns="http://www.w3.org/2000/svg">
<g clip-path="url(#clip0_5478_4680)">
<path opacity="0.2" d="M29.25 19.3711V23.1211H4.25V29.3711C4.25 29.7026 4.3817 30.0206 4.61612 30.255C4.85054 30.4894 5.16848 30.6211 5.5 30.6211H9.25C9.25 29.6265 9.64509 28.6727 10.3483 27.9694C11.0516 27.2662 12.0054 26.8711 13 26.8711C13.9946 26.8711 14.9484 27.2662 15.6517 27.9694C16.3549 28.6727 16.75 29.6265 16.75 30.6211H26.75C26.75 29.6265 27.1451 28.6727 27.8483 27.9694C28.5516 27.2662 29.5054 26.8711 30.5 26.8711C31.4946 26.8711 32.4484 27.2662 33.1517 27.9694C33.8549 28.6727 34.25 29.6265 34.25 30.6211H38C38.3315 30.6211 38.6495 30.4894 38.8839 30.255C39.1183 30.0206 39.25 29.7026 39.25 29.3711V19.3711H29.25Z" fill="white"/>
<path d="M29.25 13.1211H35.9031C36.1522 13.121 36.3957 13.1953 36.6022 13.3345C36.8088 13.4737 36.9691 13.6714 37.0625 13.9023L39.25 19.3711" stroke="white" stroke-width="2" stroke-linecap="round" stroke-linejoin="round"/>
<path d="M4.25 23.1211H29.25" stroke="white" stroke-width="2" stroke-linecap="round" stroke-linejoin="round"/>
<path d="M30.5 34.3711C32.5711 34.3711 34.25 32.6922 34.25 30.6211C34.25 28.55 32.5711 26.8711 30.5 26.8711C28.4289 26.8711 26.75 28.55 26.75 30.6211C26.75 32.6922 28.4289 34.3711 30.5 34.3711Z" stroke="white" stroke-width="2" stroke-linecap="round" stroke-linejoin="round"/>
<path d="M13 34.3711C15.0711 34.3711 16.75 32.6922 16.75 30.6211C16.75 28.55 15.0711 26.8711 13 26.8711C10.9289 26.8711 9.25 28.55 9.25 30.6211C9.25 32.6922 10.9289 34.3711 13 34.3711Z" stroke="white" stroke-width="2" stroke-linecap="round" stroke-linejoin="round"/>
<path d="M26.75 30.6211H16.75" stroke="white" stroke-width="2" stroke-linecap="round" stroke-linejoin="round"/>
<path d="M29.25 19.3711H39.25V29.3711C39.25 29.7026 39.1183 30.0206 38.8839 30.255C38.6495 30.4894 38.3315 30.6211 38 30.6211H34.25" stroke="white" stroke-width="2" stroke-linecap="round" stroke-linejoin="round"/>
<path d="M9.25 30.6211H5.5C5.16848 30.6211 4.85054 30.4894 4.61612 30.255C4.3817 30.0206 4.25 29.7026 4.25 29.3711V11.8711C4.25 11.5396 4.3817 11.2216 4.61612 10.9872C4.85054 10.7528 5.16848 10.6211 5.5 10.6211H29.25V27.0852" stroke="white" stroke-width="2" stroke-linecap="round" stroke-linejoin="round"/>
</g>
<defs>
<clipPath id="clip0_5478_4680">
<rect width="40" height="40" fill="white" transform="translate(0.5 0.621094)"/>
</clipPath>
</defs>
</svg>
