<svg width="59" height="34" viewBox="0 0 59 34" fill="none" xmlns="http://www.w3.org/2000/svg">
<path d="M13.0232 22.0986V20.2449L19.9849 12.6242C20.8019 11.7317 21.4747 10.9559 22.0033 10.2968C22.532 9.63083 22.9233 9.00607 23.1773 8.4225C23.4382 7.83206 23.5687 7.21416 23.5687 6.5688C23.5687 5.82733 23.3902 5.1854 23.0331 4.64302C22.683 4.10064 22.2024 3.68185 21.5914 3.38663C20.9804 3.09141 20.2938 2.9438 19.5317 2.9438C18.7216 2.9438 18.0144 3.11201 17.4103 3.44842C16.813 3.77796 16.3496 4.24139 16.02 4.83869C15.6973 5.43599 15.536 6.13627 15.536 6.93954H13.1056C13.1056 5.70375 13.3905 4.61899 13.9603 3.68528C14.5302 2.75157 15.306 2.02382 16.2878 1.50204C17.2764 0.980261 18.3852 0.719371 19.6141 0.719371C20.8499 0.719371 21.945 0.980261 22.8993 1.50204C23.8536 2.02382 24.6019 2.72754 25.1443 3.61319C25.6867 4.49885 25.9579 5.48405 25.9579 6.5688C25.9579 7.34461 25.8171 8.10325 25.5356 8.84473C25.261 9.57934 24.7804 10.3998 24.0939 11.306C23.4142 12.2054 22.4702 13.3039 21.2618 14.6015L16.5246 19.6682V19.833H26.3286V22.0986H13.0232ZM32.1883 1.00772L37.6258 9.78187H37.7906L43.2281 1.00772H46.2352L39.6031 11.5532L46.2352 22.0986H43.2281L37.7906 13.4893H37.6258L32.1883 22.0986H29.1812L35.9781 11.5532L29.1812 1.00772H32.1883Z" fill="#1F1F1F"/>
<path d="M8.67093 27.316H7.07718C7.03173 27.0546 6.94792 26.8231 6.82576 26.6214C6.7036 26.4168 6.55161 26.2435 6.3698 26.1015C6.18798 25.9594 5.98059 25.8529 5.74764 25.7819C5.51752 25.708 5.26894 25.6711 5.0019 25.6711C4.52747 25.6711 4.10701 25.7904 3.74053 26.029C3.37406 26.2648 3.08713 26.6114 2.87974 27.0688C2.67235 27.5233 2.56866 28.0787 2.56866 28.735C2.56866 29.4026 2.67235 29.9651 2.87974 30.4225C3.08997 30.877 3.3769 31.2208 3.74053 31.4537C4.10701 31.6839 4.52605 31.7989 4.99764 31.7989C5.259 31.7989 5.50332 31.7648 5.73059 31.6966C5.9607 31.6256 6.16667 31.5219 6.34849 31.3856C6.53315 31.2492 6.68798 31.0816 6.81298 30.8827C6.94082 30.6839 7.02889 30.4566 7.07718 30.2009L8.67093 30.2094C8.61127 30.6242 8.48201 31.0134 8.28315 31.377C8.08713 31.7407 7.83002 32.0617 7.51184 32.3401C7.19366 32.6157 6.8215 32.8316 6.39536 32.9878C5.96923 33.1412 5.49622 33.218 4.97633 33.218C4.20928 33.218 3.52463 33.0404 2.92235 32.6853C2.32008 32.3302 1.84565 31.8174 1.49906 31.1469C1.15247 30.4765 0.97917 29.6725 0.97917 28.735C0.97917 27.7947 1.15389 26.9907 1.50332 26.3231C1.85275 25.6526 2.3286 25.1398 2.93087 24.7847C3.53315 24.4296 4.21497 24.252 4.97633 24.252C5.46213 24.252 5.91383 24.3202 6.33144 24.4566C6.74906 24.593 7.12122 24.7932 7.44792 25.0574C7.77463 25.3188 8.04309 25.6398 8.25332 26.0205C8.46639 26.3983 8.60559 26.8302 8.67093 27.316ZM11.9341 33.2307C11.5193 33.2307 11.1457 33.1569 10.8133 33.0091C10.4838 32.8586 10.2224 32.637 10.0292 32.3444C9.8389 32.0518 9.74373 31.691 9.74373 31.262C9.74373 30.8927 9.81191 30.5873 9.94828 30.3458C10.0846 30.1043 10.2707 29.9111 10.5065 29.7662C10.7423 29.6214 11.0079 29.512 11.3034 29.4381C11.6017 29.3614 11.9099 29.306 12.2281 29.2719C12.6116 29.2322 12.9227 29.1966 13.1613 29.1654C13.4 29.1313 13.5733 29.0802 13.6812 29.012C13.792 28.941 13.8474 28.8316 13.8474 28.6839V28.6583C13.8474 28.3373 13.7523 28.0887 13.5619 27.9126C13.3716 27.7364 13.0974 27.6483 12.7395 27.6483C12.3616 27.6483 12.0619 27.7307 11.8403 27.8955C11.6216 28.0603 11.4738 28.2549 11.3971 28.4793L9.9568 28.2748C10.0704 27.877 10.2579 27.5447 10.5193 27.2776C10.7807 27.0077 11.1003 26.806 11.4781 26.6725C11.8559 26.5361 12.2736 26.468 12.7309 26.468C13.0463 26.468 13.3602 26.5049 13.6727 26.5787C13.9852 26.6526 14.2707 26.7748 14.5292 26.9452C14.7878 27.1128 14.9952 27.3415 15.1514 27.6313C15.3105 27.9211 15.39 28.2833 15.39 28.718V33.0986H13.9071V32.1995H13.8559C13.7622 32.3813 13.6301 32.5518 13.4596 32.7108C13.292 32.8671 13.0804 32.9935 12.8247 33.0901C12.5719 33.1839 12.275 33.2307 11.9341 33.2307ZM12.3346 32.0972C12.6443 32.0972 12.9128 32.0361 13.14 31.914C13.3673 31.789 13.542 31.6242 13.6642 31.4197C13.7892 31.2151 13.8517 30.9921 13.8517 30.7506V29.9793C13.8034 30.0191 13.721 30.056 13.6045 30.0901C13.4909 30.1242 13.363 30.154 13.221 30.1796C13.079 30.2052 12.9383 30.2279 12.7991 30.2478C12.6599 30.2677 12.5392 30.2847 12.4369 30.2989C12.2068 30.3302 12.0008 30.3813 11.819 30.4523C11.6372 30.5233 11.4937 30.6228 11.3886 30.7506C11.2835 30.8756 11.2309 31.0376 11.2309 31.2364C11.2309 31.5205 11.3346 31.735 11.542 31.8799C11.7494 32.0248 12.0136 32.0972 12.3346 32.0972ZM22.1145 28.2833L20.7082 28.4367C20.6684 28.2947 20.5988 28.1611 20.4994 28.0361C20.4028 27.9111 20.2721 27.8103 20.1074 27.7336C19.9426 27.6569 19.7409 27.6185 19.5023 27.6185C19.1812 27.6185 18.9113 27.6881 18.6926 27.8273C18.4767 27.9665 18.3702 28.1469 18.373 28.3685C18.3702 28.5589 18.4398 28.7137 18.5818 28.833C18.7267 28.9523 18.9653 29.0503 19.2977 29.127L20.4142 29.3657C21.0335 29.4992 21.4937 29.7108 21.7949 30.0006C22.0988 30.2904 22.2523 30.6697 22.2551 31.1384C22.2523 31.5503 22.1315 31.914 21.8929 32.2293C21.6571 32.5418 21.329 32.7861 20.9085 32.9623C20.488 33.1384 20.0051 33.2265 19.4596 33.2265C18.6585 33.2265 18.0136 33.0589 17.525 32.7236C17.0363 32.3856 16.7452 31.9154 16.6514 31.3131L18.1557 31.1682C18.2238 31.4637 18.3687 31.6867 18.5903 31.8373C18.8119 31.9878 19.1003 32.0631 19.4554 32.0631C19.8219 32.0631 20.1159 31.9878 20.3375 31.8373C20.5619 31.6867 20.6741 31.5006 20.6741 31.279C20.6741 31.0915 20.6017 30.9367 20.4568 30.8145C20.3148 30.6924 20.0932 30.5986 19.792 30.5333L18.6755 30.2989C18.0477 30.1682 17.5832 29.9481 17.2821 29.6384C16.9809 29.3259 16.8318 28.931 16.8346 28.4537C16.8318 28.0503 16.9412 27.7009 17.1628 27.4055C17.3872 27.1072 17.6983 26.877 18.096 26.7151C18.4966 26.5503 18.9582 26.468 19.4809 26.468C20.248 26.468 20.8517 26.6313 21.292 26.958C21.7352 27.2847 22.0094 27.7265 22.1145 28.2833ZM25.0697 29.2634V33.0986H23.5271V24.3714H25.0356V27.6654H25.1123C25.2657 27.2961 25.503 27.0049 25.824 26.7918C26.1478 26.5759 26.5598 26.468 27.0598 26.468C27.5143 26.468 27.9106 26.5631 28.2487 26.7535C28.5868 26.9438 28.8481 27.2222 29.0328 27.5887C29.2203 27.9552 29.314 28.4026 29.314 28.931V33.0986H27.7714V29.1697C27.7714 28.7293 27.6578 28.387 27.4305 28.1427C27.2061 27.8955 26.8907 27.7719 26.4845 27.7719C26.2118 27.7719 25.9675 27.8316 25.7515 27.9509C25.5385 28.0674 25.3709 28.2364 25.2487 28.458C25.1294 28.6796 25.0697 28.9481 25.0697 29.2634ZM30.9547 33.0986V24.3714H32.4973V27.6356H32.5612C32.6407 27.4765 32.753 27.3074 32.8978 27.1285C33.0427 26.9466 33.2388 26.7918 33.4859 26.664C33.7331 26.5333 34.0484 26.468 34.4319 26.468C34.9376 26.468 35.3936 26.5972 35.7998 26.8557C36.2089 27.1114 36.5328 27.4907 36.7714 27.9935C37.0129 28.4935 37.1336 29.1072 37.1336 29.8344C37.1336 30.5532 37.0157 31.164 36.78 31.6668C36.5442 32.1697 36.2231 32.5532 35.8169 32.8174C35.4106 33.0816 34.9504 33.2137 34.4362 33.2137C34.0612 33.2137 33.7501 33.1512 33.503 33.0262C33.2558 32.9012 33.0569 32.7506 32.9064 32.5745C32.7586 32.3955 32.6436 32.2265 32.5612 32.0674H32.4717V33.0986H30.9547ZM32.4675 29.8259C32.4675 30.2492 32.5271 30.6199 32.6464 30.9381C32.7686 31.2563 32.9433 31.5049 33.1706 31.6839C33.4007 31.86 33.6791 31.9481 34.0058 31.9481C34.3467 31.9481 34.6322 31.8572 34.8623 31.6753C35.0925 31.4907 35.2657 31.2393 35.3822 30.9211C35.5015 30.6001 35.5612 30.235 35.5612 29.8259C35.5612 29.4197 35.503 29.0589 35.3865 28.7435C35.27 28.4282 35.0967 28.181 34.8666 28.002C34.6365 27.8231 34.3496 27.7336 34.0058 27.7336C33.6763 27.7336 33.3964 27.8202 33.1663 27.9935C32.9362 28.1668 32.7615 28.4097 32.6422 28.7222C32.5257 29.0347 32.4675 29.4026 32.4675 29.8259ZM40.3286 33.2307C39.9138 33.2307 39.5403 33.1569 39.2079 33.0091C38.8783 32.8586 38.617 32.637 38.4238 32.3444C38.2334 32.0518 38.1383 31.691 38.1383 31.262C38.1383 30.8927 38.2064 30.5873 38.3428 30.3458C38.4792 30.1043 38.6652 29.9111 38.901 29.7662C39.1368 29.6214 39.4025 29.512 39.6979 29.4381C39.9962 29.3614 40.3045 29.306 40.6226 29.2719C41.0062 29.2322 41.3172 29.1966 41.5559 29.1654C41.7945 29.1313 41.9678 29.0802 42.0758 29.012C42.1866 28.941 42.242 28.8316 42.242 28.6839V28.6583C42.242 28.3373 42.1468 28.0887 41.9564 27.9126C41.7661 27.7364 41.492 27.6483 41.134 27.6483C40.7562 27.6483 40.4564 27.7307 40.2349 27.8955C40.0161 28.0603 39.8684 28.2549 39.7917 28.4793L38.3513 28.2748C38.465 27.877 38.6525 27.5447 38.9138 27.2776C39.1752 27.0077 39.4948 26.806 39.8726 26.6725C40.2505 26.5361 40.6681 26.468 41.1255 26.468C41.4408 26.468 41.7547 26.5049 42.0672 26.5787C42.3797 26.6526 42.6653 26.7748 42.9238 26.9452C43.1823 27.1128 43.3897 27.3415 43.5459 27.6313C43.705 27.9211 43.7846 28.2833 43.7846 28.718V33.0986H42.3016V32.1995H42.2505C42.1567 32.3813 42.0246 32.5518 41.8542 32.7108C41.6866 32.8671 41.4749 32.9935 41.2192 33.0901C40.9664 33.1839 40.6695 33.2307 40.3286 33.2307ZM40.7292 32.0972C41.0388 32.0972 41.3073 32.0361 41.5346 31.914C41.7618 31.789 41.9366 31.6242 42.0587 31.4197C42.1837 31.2151 42.2462 30.9921 42.2462 30.7506V29.9793C42.1979 30.0191 42.1155 30.056 41.9991 30.0901C41.8854 30.1242 41.7576 30.154 41.6155 30.1796C41.4735 30.2052 41.3329 30.2279 41.1937 30.2478C41.0545 30.2677 40.9337 30.2847 40.8314 30.2989C40.6013 30.3302 40.3954 30.3813 40.2135 30.4523C40.0317 30.5233 39.8883 30.6228 39.7831 30.7506C39.678 30.8756 39.6255 31.0376 39.6255 31.2364C39.6255 31.5205 39.7292 31.735 39.9366 31.8799C40.1439 32.0248 40.4081 32.0972 40.7292 32.0972ZM48.1908 33.2265C47.5374 33.2265 46.9763 33.083 46.5076 32.7961C46.0417 32.5091 45.6823 32.1128 45.4295 31.6072C45.1795 31.0986 45.0545 30.5134 45.0545 29.8515C45.0545 29.1867 45.1823 28.6001 45.438 28.0915C45.6937 27.5802 46.0545 27.1824 46.5204 26.8983C46.9891 26.6114 47.5431 26.468 48.1823 26.468C48.7135 26.468 49.1837 26.566 49.5928 26.762C50.0047 26.9552 50.3329 27.2293 50.5772 27.5844C50.8215 27.9367 50.9607 28.3486 50.9948 28.8202H49.5204C49.4607 28.5049 49.3187 28.2421 49.0942 28.0319C48.8726 27.8188 48.5758 27.7123 48.2036 27.7123C47.8883 27.7123 47.6113 27.7975 47.3726 27.968C47.134 28.1356 46.9479 28.377 46.8144 28.6924C46.6837 29.0077 46.6184 29.3856 46.6184 29.8259C46.6184 30.2719 46.6837 30.6555 46.8144 30.9765C46.9451 31.2947 47.1283 31.5404 47.3641 31.7137C47.6028 31.8841 47.8826 31.9694 48.2036 31.9694C48.4309 31.9694 48.634 31.9268 48.813 31.8415C48.9948 31.7535 49.1468 31.627 49.2689 31.4623C49.3911 31.2975 49.4749 31.0972 49.5204 30.8614H50.9948C50.9579 31.3245 50.8215 31.735 50.5857 32.093C50.3499 32.4481 50.0289 32.7265 49.6226 32.9282C49.2164 33.127 48.7391 33.2265 48.1908 33.2265ZM53.6677 31.0447L53.6635 29.1824H53.9106L56.2629 26.5532H58.0655L55.172 29.7748H54.8524L53.6677 31.0447ZM52.2615 33.0986V24.3714H53.8041V33.0986H52.2615ZM56.3694 33.0986L54.2388 30.1199L55.2785 29.0333L58.2146 33.0986H56.3694Z" fill="#1F1F1F"/>
</svg>
