<svg width="24" height="25" viewBox="0 0 24 25" fill="none" xmlns="http://www.w3.org/2000/svg">
<g id="WhatsappLogo" clip-path="url(#clip0_4932_14186)">
<path id="Vector" d="M6.75 10.2432C6.75 9.44751 7.06607 8.68445 7.62868 8.12184C8.19129 7.55923 8.95435 7.24316 9.75 7.24316L11.25 10.2432L10.095 11.9747C10.5532 13.0695 11.4237 13.94 12.5184 14.3982L14.25 13.2432L17.25 14.7432C17.25 15.5388 16.9339 16.3019 16.3713 16.8645C15.8087 17.4271 15.0456 17.7432 14.25 17.7432C12.2609 17.7432 10.3532 16.953 8.9467 15.5465C7.54018 14.1399 6.75 12.2323 6.75 10.2432Z" stroke="white" stroke-width="1.5" stroke-linecap="round" stroke-linejoin="round"/>
<path id="Vector_2" d="M7.49356 20.2847C9.38406 21.3789 11.608 21.7481 13.7506 21.3237C15.8933 20.8993 17.8084 19.7101 19.1391 17.9779C20.4697 16.2457 21.125 14.0886 20.9827 11.909C20.8404 9.72934 19.9103 7.67582 18.3657 6.13129C16.8212 4.58676 14.7677 3.65665 12.588 3.51436C10.4084 3.37208 8.25138 4.02734 6.51916 5.35796C4.78695 6.68859 3.59777 8.60377 3.17333 10.7464C2.74889 12.8891 3.11817 15.113 4.21231 17.0035L3.0395 20.505C2.99543 20.6372 2.98903 20.779 3.02103 20.9146C3.05302 21.0501 3.12215 21.1741 3.22065 21.2726C3.31915 21.3711 3.44314 21.4403 3.57871 21.4723C3.71429 21.5043 3.8561 21.4979 3.98825 21.4538L7.49356 20.2847Z" stroke="white" stroke-width="1.5" stroke-linecap="round" stroke-linejoin="round"/>
</g>
<defs>
<clipPath id="clip0_4932_14186">
<rect width="24" height="24" fill="white" transform="translate(0 0.493164)"/>
</clipPath>
</defs>
</svg>
