<svg width="24" height="25" viewBox="0 0 24 25" fill="none" xmlns="http://www.w3.org/2000/svg">
<g clip-path="url(#clip0_5478_4763)">
<path d="M6.75 10.3711C6.75 9.57544 7.06607 8.81238 7.62868 8.24977C8.19129 7.68716 8.95435 7.37109 9.75 7.37109L11.25 10.3711L10.095 12.1027C10.5532 13.1974 11.4237 14.0679 12.5184 14.5261L14.25 13.3711L17.25 14.8711C17.25 15.6667 16.9339 16.4298 16.3713 16.9924C15.8087 17.555 15.0456 17.8711 14.25 17.8711C12.2609 17.8711 10.3532 17.0809 8.9467 15.6744C7.54018 14.2679 6.75 12.3602 6.75 10.3711Z" stroke="#1C2A54" stroke-width="1.5" stroke-linecap="round" stroke-linejoin="round"/>
<path d="M7.49344 20.4128C9.38394 21.5069 11.6078 21.8762 13.7505 21.4518C15.8931 21.0273 17.8083 19.8381 19.1389 18.1059C20.4696 16.3737 21.1248 14.2167 20.9825 12.037C20.8403 9.85739 19.9102 7.80387 18.3656 6.25934C16.8211 4.71481 14.7676 3.7847 12.5879 3.64242C10.4083 3.50013 8.25126 4.15539 6.51904 5.48601C4.78683 6.81664 3.59765 8.73182 3.17321 10.8745C2.74877 13.0171 3.11805 15.241 4.21219 17.1315L3.03938 20.6331C2.99531 20.7652 2.98891 20.907 3.02091 21.0426C3.0529 21.1782 3.12202 21.3022 3.22052 21.4007C3.31903 21.4992 3.44301 21.5683 3.57859 21.6003C3.71417 21.6323 3.85598 21.6259 3.98813 21.5818L7.49344 20.4128Z" stroke="#1C2A54" stroke-width="1.5" stroke-linecap="round" stroke-linejoin="round"/>
</g>
<defs>
<clipPath id="clip0_5478_4763">
<rect width="24" height="24" fill="white" transform="translate(0 0.621094)"/>
</clipPath>
</defs>
</svg>
