<svg width="324" height="89" viewBox="0 0 324 89" fill="none" xmlns="http://www.w3.org/2000/svg">
<g clip-path="url(#clip0_4932_14227)">
<path d="M96.1996 29.123C96.1996 26.3543 96.2585 23.8801 96.1407 21.4059C96.0818 20.1099 96.7298 19.6975 97.7312 19.3441C111.339 14.8081 124.476 25.7063 122.885 39.1964C121.589 49.859 111.104 57.3404 100.795 55.2197C92.1938 53.4524 87.4221 48.0917 85.3603 39.9033C85.2425 39.3732 85.2425 38.7841 85.2425 38.195C85.2425 27.3557 85.3014 16.5164 85.1836 5.73607C85.1836 4.20443 85.596 3.26189 87.0687 2.84952C88.6003 2.43716 90.1909 1.90698 91.7225 1.55352C93.372 1.20007 94.1967 1.61243 94.1967 3.67425C94.0789 15.1026 94.1378 26.4721 94.1378 37.9004C94.1378 42.4364 96.3174 45.9121 99.852 48.5041C103.563 51.2139 109.336 49.3288 111.987 44.7339C115.286 39.0786 114.403 30.9492 109.925 26.8844C106.155 23.5266 101.796 23.3499 98.2025 26.9433C97.7312 27.5324 97.0832 28.1804 96.1996 29.123Z" fill="white"/>
<path d="M13.3155 28.1805C13.3155 26.3543 13.3744 23.8213 13.2566 21.2882C13.1977 20.11 13.9046 19.6976 14.7882 19.4031C23.1533 16.7522 31.754 18.9907 37.2915 27.238C42.0042 34.3071 40.8849 43.6736 34.7584 49.8591C29.2799 55.3376 22.7999 56.9871 15.4951 54.6307C8.13149 52.2743 4.06676 46.9136 2.47622 39.4911C2.29949 38.5485 2.41731 37.4882 2.41731 36.5456C2.41731 26.2365 2.47622 15.9863 2.3584 5.73617C2.3584 3.96889 3.0064 3.20308 4.42022 2.67289C4.47913 2.67289 4.53803 2.61399 4.65585 2.55508C10.6057 0.257622 11.3126 0.787804 11.3126 7.03217C11.3126 17.3413 11.3126 27.7093 11.3126 38.0183C11.3126 42.5543 13.5511 46.0889 17.1446 48.5042C20.8559 51.0373 26.2166 49.4467 28.9853 44.9696C32.402 39.4911 31.6362 31.4794 27.3948 27.0613C24.1548 23.7034 18.146 23.2322 15.0828 27.1791C14.6704 27.7682 13.7279 28.0038 13.3155 28.1805Z" fill="white"/>
<path d="M69.9272 44.6752C69.9272 46.6192 69.9272 48.0919 69.9272 49.5646C69.9272 54.3952 69.4559 55.0432 64.5076 55.5144C56.9672 56.2214 50.8407 53.2759 46.717 47.2083C42.181 40.5515 42.1221 33.0701 46.8348 26.5312C53.2559 17.5181 64.2719 15.3974 73.5796 22.2308C78.6457 25.9421 80.8254 31.0672 80.8254 37.1937C80.8843 42.3188 80.8254 47.4439 80.8254 52.569C80.8254 53.8061 80.9432 54.9843 79.0581 54.1006C78.7047 53.9239 78.2334 54.1006 77.821 54.0417C73.1083 53.7472 71.8712 52.4512 71.8712 47.9152C71.8712 43.8504 72.0479 39.7857 71.8123 35.7799C71.6356 31.9508 70.3396 28.4163 67.0407 26.1188C62.6225 23.0555 58.7345 23.7035 55.2588 28.2984C51.0763 33.8948 51.6065 42.0832 56.2603 46.9726C60.4428 51.273 66.2159 50.3304 69.9272 44.6752Z" fill="white"/>
<path d="M258.025 37.0168C258.261 46.8547 249.248 55.7499 239.292 55.6321C229.572 55.5732 220.618 46.8547 220.795 36.7223C220.912 27.1201 229.572 18.107 239.881 18.3427C249.365 18.5194 258.261 27.0612 258.025 37.0168ZM249.13 37.6059C249.13 34.307 248.482 31.8328 247.186 29.5354C243.769 23.4088 237.584 22.5841 233.519 26.9434C229.042 31.715 228.453 38.4896 231.693 44.3805C234.697 49.9179 240.352 51.3907 244.829 47.5027C247.893 44.8518 249.012 41.0816 249.13 37.6059Z" fill="white"/>
<path d="M319.524 50.7422C316.46 52.6862 313.633 54.4535 310.157 55.2193C304.796 56.3975 299.966 55.1604 295.783 52.215C290.599 48.5626 287.713 43.3197 287.89 36.8397C288.125 27.9444 293.368 21.2288 301.792 18.9902C308.625 17.1641 314.634 19.0491 319.111 24.6455C323.706 30.4775 322.292 38.3124 313.927 41.199C309.45 42.7306 304.914 43.0841 300.201 42.2593C298.434 41.9648 298.552 40.4921 298.375 39.4906C297.727 36.4862 298.316 36.1328 301.262 36.2506C303.677 36.3095 306.151 36.663 308.626 35.8971C311.983 34.8957 313.809 33.1284 313.692 30.5953C313.515 27.6499 310.982 25.2346 307.683 24.9401C303.795 24.5277 300.319 26.3539 298.611 29.8884C296.431 34.4244 296.137 38.9604 298.257 43.7321C301.026 49.9764 308.331 51.6848 313.515 47.5022C314.988 46.3241 315.577 46.6186 316.519 47.7968C317.344 48.7393 318.463 49.6819 319.524 50.7422Z" fill="white"/>
<path d="M162.708 39.5502C162.708 44.9109 162.59 50.2717 162.708 55.6913C163.002 67.1786 151.221 76.8986 140.263 74.1298C139.026 73.8353 137.789 73.4229 136.552 73.0106C132.37 71.5967 131.898 69.4171 134.726 65.9415C135.551 64.9989 135.904 65.5291 136.611 66.0593C140.911 68.8869 145.212 69.8884 149.218 66.5306C152.163 64.1153 153.636 60.6986 153.695 56.9284C153.813 46.0302 153.754 35.132 153.695 24.2338C153.695 22.3487 153.871 21.0527 156.051 20.7582C156.522 20.6993 156.876 20.2869 157.347 20.1102C162.001 18.5197 162.649 18.9909 162.649 23.7626C162.708 28.9466 162.708 34.2484 162.708 39.5502Z" fill="white"/>
<path d="M180.381 55.6317C174.962 55.6317 171.604 53.8644 168.423 51.6259C166.832 50.5066 166.773 49.5641 168.128 48.327C168.364 48.0914 168.423 47.7968 168.6 47.5023C169.719 45.4994 170.661 45.2048 172.546 47.1488C175.197 49.8586 178.673 50.3299 182.325 49.1517C184.093 48.5626 184.917 47.2666 185.094 45.4994C185.212 43.791 184.505 42.6128 182.973 41.6703C180.381 40.0797 177.259 39.7263 174.667 38.2535C173.253 37.4877 171.898 36.5452 170.661 35.4848C167.716 33.0695 167.068 29.8884 167.952 26.5895C168.894 23.1728 171.545 20.8754 175.08 19.8739C180.617 18.4012 185.33 20.1684 189.748 23.2906C190.749 23.9975 191.103 24.7634 190.219 25.8826C189.512 26.7663 188.982 27.7677 188.275 28.7103C187.45 29.8295 186.861 28.887 186.331 28.3568C184.269 26.2361 181.795 25.2346 178.85 25.3524C176.965 25.4114 175.61 26.4717 175.256 28.1801C174.903 29.7706 176.081 30.7721 177.495 31.5379C180.853 33.3641 184.623 34.071 187.922 36.1917C194.461 40.4332 193.459 49.7408 187.922 53.0397C185.153 54.7481 182.266 55.6906 180.381 55.6317Z" fill="white"/>
<path d="M206.891 22.5249C206.891 26.8842 206.891 31.3023 206.891 35.6616C206.891 39.9031 208.128 43.6733 211.486 46.5598C212.546 47.4434 213.607 48.1503 214.903 48.3271C216.493 48.5627 216.965 49.2107 216.906 50.8602C216.788 54.7482 216.906 54.5714 213.077 54.1002C205.242 53.0987 197.819 44.498 197.937 36.1329C198.055 27.9445 197.996 19.7562 197.996 11.5678C197.996 7.85652 198.526 6.97289 202.178 6.44271C207.303 5.67689 206.95 4.55761 206.95 10.2718C206.891 14.3954 206.891 18.4602 206.891 22.5249Z" fill="white"/>
<path d="M151.812 44.734C151.812 46.7369 151.812 48.3863 151.812 50.0358C151.812 54.2183 151.341 54.9842 147.217 55.4554C137.674 56.5747 129.485 50.566 127.541 41.3762C126.245 35.1907 127.247 28.8874 127.011 22.6431C126.952 20.2867 129.191 20.6991 130.369 20.2278C135.023 18.166 135.907 18.814 135.907 23.8212C135.907 28.5929 135.789 33.4234 135.965 38.1951C136.083 41.8474 137.203 45.4409 139.971 47.8562C143.8 51.1551 148.749 49.918 150.634 46.1478C150.811 45.7354 151.223 45.4409 151.812 44.734Z" fill="white"/>
<path d="M262.03 44.027C262.325 41.2583 261.854 37.9004 262.443 34.5426C264.033 24.7637 274.755 17.1644 284.946 19.8153C286.654 20.2866 287.008 20.7579 286.124 22.4073C285.064 24.3513 284.592 26.0008 281.47 25.4706C277.288 24.7637 273.459 28.0037 271.986 32.4219C271.338 34.3659 270.867 36.3099 270.926 38.3717C271.043 42.4364 270.867 46.4423 270.984 50.507C271.043 51.9797 270.572 52.8044 269.158 53.2168C268.982 53.2757 268.864 53.3935 268.746 53.4524C262.796 55.8088 262.03 55.2786 262.03 49.0343C262.03 47.5615 262.03 46.0888 262.03 44.027Z" fill="white"/>
<path d="M212.9 27.2968C208.894 27.2968 209.13 27.2968 208.835 23.291C208.599 20.2866 210.013 20.2277 212.252 20.2866C216.906 20.4044 216.788 20.3455 216.906 24.9404C216.965 26.7077 216.552 27.5913 214.667 27.2968C214.078 27.2379 213.489 27.2968 212.9 27.2968Z" fill="white"/>
<path d="M45.6545 80.4914V81.7285H42.5323V83.6725H44.9476V84.8507H42.5323V88.0318H41.0596V80.5503H45.6545V80.4914Z" fill="white"/>
<path d="M55.7285 87.9728L54.0791 85.0274H53.3721V87.9728H51.8994V80.4914H54.7271C55.3161 80.4914 55.7874 80.6092 56.1998 80.7859C56.6121 80.9627 56.9067 81.2572 57.1423 81.6107C57.3191 81.9641 57.4369 82.3176 57.4369 82.7888C57.4369 83.2601 57.3191 83.7314 57.0245 84.1438C56.73 84.5561 56.3176 84.7918 55.7285 84.9685L57.4958 88.0318H55.7285V87.9728ZM53.3721 83.9081H54.6092C55.0216 83.9081 55.3161 83.7903 55.4929 83.6136C55.6696 83.4369 55.7874 83.1423 55.7874 82.7888C55.7874 82.4354 55.6696 82.1998 55.4929 81.9641C55.3161 81.7874 54.9627 81.6696 54.6092 81.6696H53.3721V83.9081Z" fill="white"/>
<path d="M65.4469 87.561C64.8578 87.2076 64.3866 86.7952 64.0331 86.2061C63.6797 85.617 63.5029 84.969 63.5029 84.2032C63.5029 83.4963 63.6797 82.7894 64.0331 82.2592C64.3866 81.6701 64.8578 81.1989 65.4469 80.9043C66.036 80.5509 66.684 80.433 67.3909 80.433C68.0978 80.433 68.7458 80.6098 69.3349 80.9043C69.924 81.2578 70.3953 81.6701 70.6898 82.2592C71.0433 82.8483 71.22 83.4963 71.22 84.2032C71.22 84.969 71.0433 85.617 70.6898 86.2061C70.3364 86.7952 69.8651 87.2665 69.276 87.561C68.6869 87.9145 68.0389 88.0323 67.332 88.0323C66.6251 88.0323 66.036 87.8556 65.4469 87.561ZM68.5691 86.3829C68.9226 86.2061 69.1582 85.9116 69.3938 85.4992C69.5706 85.1458 69.6884 84.6745 69.6884 84.2032C69.6884 83.732 69.5706 83.2607 69.3938 82.9072C69.2171 82.5538 68.9226 82.2592 68.5691 82.0236C68.2157 81.8469 67.8033 81.729 67.3909 81.729C66.9197 81.729 66.5662 81.8469 66.2127 82.0236C65.8593 82.2003 65.6237 82.4949 65.388 82.9072C65.2113 83.2607 65.0935 83.732 65.0935 84.2032C65.0935 84.7334 65.2113 85.1458 65.388 85.4992C65.5647 85.8527 65.8593 86.1472 66.2127 86.3829C66.5662 86.5596 66.9786 86.6774 67.3909 86.6774C67.8622 86.6774 68.2157 86.5596 68.5691 86.3829Z" fill="white"/>
<path d="M85.6526 80.4914V87.9728H84.1798V83.0834L82.1769 87.9728H81.0577L79.0548 83.0834V87.9728H77.582V80.4914H79.2904L81.6468 86.0878L84.0031 80.4914H85.6526Z" fill="white"/>
<path d="M105.093 80.4914V81.7285H103.09V88.0318H101.617V81.7285H99.5557V80.4914H105.093Z" fill="white"/>
<path d="M112.81 80.4914V85.1452C112.81 85.6754 112.927 86.0288 113.222 86.3234C113.458 86.6179 113.87 86.7358 114.341 86.7358C114.813 86.7358 115.225 86.6179 115.461 86.3234C115.696 86.0288 115.873 85.6754 115.873 85.1452V80.4914H117.405V85.0863C117.405 85.7343 117.287 86.2645 116.992 86.6768C116.698 87.0892 116.344 87.4427 115.873 87.6783C115.402 87.9139 114.871 88.0318 114.341 88.0318C113.811 88.0318 113.281 87.9139 112.81 87.6783C112.338 87.4427 111.985 87.1481 111.749 86.6768C111.514 86.2645 111.337 85.6754 111.337 85.0863V80.4914H112.81Z" fill="white"/>
<path d="M132.134 80.4914V87.9728H130.661V83.0834L128.658 87.9728H127.539L125.536 83.0834V87.9728H124.063V80.4914H125.772L128.128 86.0878L130.485 80.4914H132.134Z" fill="white"/>
<path d="M146.918 80.4914V87.9728H145.445V83.0834L143.443 87.9728H142.323L140.32 83.0834V87.9728H138.848V80.4914H140.556L142.912 86.0878L145.269 80.4914H146.918Z" fill="white"/>
<path d="M159.467 80.492L156.934 85.3814V87.9734H155.461V85.3225L152.928 80.433H154.636L156.227 83.8498L157.817 80.433H159.467V80.492Z" fill="white"/>
<path d="M178.317 80.4914V81.7285H176.314V88.0318H174.842V81.7285H172.839V80.4914H178.317Z" fill="white"/>
<path d="M186.095 87.561C185.506 87.2076 185.035 86.7952 184.682 86.2061C184.328 85.617 184.151 84.969 184.151 84.2032C184.151 83.4963 184.328 82.7894 184.682 82.2592C185.035 81.6701 185.506 81.1989 186.095 80.9043C186.684 80.5509 187.332 80.433 188.039 80.433C188.746 80.433 189.394 80.6098 189.983 80.9043C190.572 81.2578 191.044 81.6701 191.338 82.2592C191.692 82.8483 191.868 83.4963 191.868 84.2032C191.868 84.969 191.692 85.617 191.338 86.2061C190.985 86.7952 190.514 87.2665 189.924 87.561C189.335 87.9145 188.687 88.0323 187.98 88.0323C187.274 88.0323 186.684 87.8556 186.095 87.561ZM189.218 86.3829C189.571 86.2061 189.807 85.9116 190.042 85.4992C190.219 85.1458 190.337 84.6745 190.337 84.2032C190.337 83.732 190.219 83.2607 190.042 82.9072C189.866 82.5538 189.571 82.2592 189.218 82.0236C188.864 81.8469 188.452 81.729 188.039 81.729C187.627 81.729 187.215 81.8469 186.861 82.0236C186.508 82.2003 186.272 82.4949 186.036 82.9072C185.801 83.3196 185.742 83.732 185.742 84.2032C185.742 84.7334 185.86 85.1458 186.036 85.4992C186.213 85.8527 186.508 86.1472 186.861 86.3829C187.215 86.5596 187.627 86.6774 188.039 86.6774C188.452 86.6774 188.864 86.5596 189.218 86.3829Z" fill="white"/>
<path d="M210.895 80.4914V81.7285H208.892V88.0318H207.419V81.7285H205.416V80.4914H210.895Z" fill="white"/>
<path d="M218.73 87.561C218.141 87.2076 217.67 86.7952 217.316 86.2061C216.963 85.617 216.786 84.969 216.786 84.2032C216.786 83.4963 216.963 82.7894 217.316 82.2592C217.67 81.6701 218.141 81.1989 218.73 80.9043C219.319 80.5509 219.967 80.433 220.674 80.433C221.381 80.433 222.029 80.6098 222.618 80.9043C223.207 81.2578 223.679 81.6701 223.973 82.2592C224.327 82.8483 224.503 83.4963 224.503 84.2032C224.503 84.969 224.327 85.617 223.973 86.2061C223.62 86.7952 223.148 87.2665 222.559 87.561C221.97 87.9145 221.322 88.0323 220.615 88.0323C219.908 88.0323 219.319 87.8556 218.73 87.561ZM221.852 86.3829C222.206 86.2061 222.441 85.9116 222.677 85.4992C222.854 85.1458 222.972 84.6745 222.972 84.2032C222.972 83.732 222.854 83.2607 222.677 82.9072C222.5 82.5538 222.206 82.2592 221.852 82.0236C221.499 81.8469 221.086 81.729 220.674 81.729C220.203 81.729 219.849 81.8469 219.496 82.0236C219.142 82.2003 218.907 82.4949 218.671 82.9072C218.436 83.3196 218.377 83.732 218.377 84.2032C218.377 84.7334 218.495 85.1458 218.671 85.4992C218.848 85.8527 219.142 86.1472 219.496 86.3829C219.849 86.5596 220.262 86.6774 220.674 86.6774C221.086 86.6774 221.499 86.5596 221.852 86.3829Z" fill="white"/>
<path d="M235.458 80.9043C236.047 81.1989 236.518 81.6701 236.812 82.2003C237.166 82.7894 237.284 83.4374 237.284 84.2032C237.284 84.969 237.107 85.617 236.812 86.1472C236.459 86.7363 236.047 87.1487 235.458 87.4432C234.868 87.7378 234.162 87.9145 233.396 87.9145H230.804V80.433H233.396C234.162 80.492 234.81 80.6098 235.458 80.9043ZM235.104 86.0294C235.516 85.617 235.752 84.969 235.752 84.2032C235.752 83.4374 235.516 82.7894 235.104 82.377C234.692 81.9647 234.044 81.729 233.278 81.729H232.218V86.6774H233.278C234.103 86.6774 234.692 86.4418 235.104 86.0294Z" fill="white"/>
<path d="M248.301 80.9043C248.89 81.1989 249.362 81.6701 249.656 82.2003C250.01 82.7894 250.127 83.4374 250.127 84.2032C250.127 84.969 249.951 85.617 249.656 86.1472C249.303 86.7363 248.89 87.1487 248.301 87.4432C247.712 87.7378 247.005 87.9145 246.239 87.9145H243.647V80.433H246.239C247.005 80.492 247.653 80.6098 248.301 80.9043ZM247.948 86.0294C248.36 85.617 248.596 84.969 248.596 84.2032C248.596 83.4374 248.36 82.7894 247.948 82.377C247.535 81.9647 246.887 81.729 246.122 81.729H245.061V86.6774H246.122C246.946 86.6774 247.535 86.4418 247.948 86.0294Z" fill="white"/>
<path d="M257.904 86.7363H260.379V87.9145H256.432V80.433H257.904V86.7363Z" fill="white"/>
<path d="M267.977 81.6696V83.5547H270.51V84.7328H267.977V86.7358H270.805V87.9728H266.445V80.4914H270.805V81.7285H267.977V81.6696Z" fill="white"/>
<path d="M281.231 87.9728L279.582 85.0274H278.875V87.9728H277.402V80.4914H280.23C280.819 80.4914 281.29 80.6092 281.703 80.7859C282.115 80.9627 282.41 81.2572 282.645 81.6107C282.822 81.9641 282.94 82.3176 282.94 82.7888C282.94 83.2601 282.822 83.7314 282.527 84.1438C282.233 84.5561 281.821 84.7918 281.231 84.9685L282.999 88.0318H281.231V87.9728ZM278.875 83.9081H280.112C280.525 83.9081 280.819 83.7903 280.996 83.6136C281.173 83.4369 281.29 83.1423 281.29 82.7888C281.29 82.4354 281.173 82.1998 280.996 81.9641C280.819 81.7874 280.466 81.6696 280.112 81.6696H278.875V83.9081Z" fill="white"/>
</g>
<defs>
<clipPath id="clip0_4932_14227">
<rect width="324" height="88.3636" fill="white" transform="translate(0 0.493164)"/>
</clipPath>
</defs>
</svg>
