<svg width="217" height="60" viewBox="0 0 217 60" fill="none" xmlns="http://www.w3.org/2000/svg">
<g clip-path="url(#clip0_5478_3192)">
<path d="M64.4291 19.5843C64.4291 17.7299 64.4686 16.0728 64.3897 14.4157C64.3502 13.5477 64.7842 13.2715 65.455 13.0348C74.569 9.9968 83.3673 17.2959 82.3021 26.331C81.4341 33.4723 74.4111 38.483 67.5066 37.0626C61.7462 35.879 58.5504 32.2886 57.1695 26.8044C57.0906 26.4493 57.0906 26.0548 57.0906 25.6603C57.0906 18.4006 57.1301 11.141 57.0511 3.9208C57.0511 2.89498 57.3273 2.26371 58.3137 1.98753C59.3395 1.71135 60.4048 1.35626 61.4306 1.11953C62.5353 0.8828 63.0877 1.15898 63.0877 2.53989C63.0088 10.1941 63.0482 17.8088 63.0482 25.463C63.0482 28.501 64.5081 30.8288 66.8753 32.5648C69.361 34.3797 73.2275 33.1172 75.003 30.0397C77.2124 26.2521 76.6206 20.8073 73.6221 18.085C71.097 15.8361 68.1773 15.7177 65.7706 18.1244C65.455 18.519 65.021 18.953 64.4291 19.5843Z" fill="#E7448C"/>
<path d="M8.91673 18.9528C8.91673 17.7297 8.95619 16.0332 8.87728 14.3366C8.83782 13.5475 9.31128 13.2714 9.9031 13.0741C15.5056 11.2986 21.266 12.7979 24.9747 18.3215C28.1311 23.0561 27.3815 29.3294 23.2782 33.4721C19.6089 37.1414 15.2689 38.2461 10.3765 36.6679C5.44473 35.0897 2.72237 31.4994 1.6571 26.5281C1.53873 25.8968 1.61764 25.1866 1.61764 24.5554C1.61764 17.6508 1.6571 10.7857 1.57819 3.92063C1.57819 2.737 2.01219 2.22409 2.9591 1.869C2.99855 1.869 3.038 1.82954 3.11691 1.79009C7.10182 0.251359 7.57528 0.60645 7.57528 4.78863C7.57528 11.6932 7.57528 18.6372 7.57528 25.5417C7.57528 28.5797 9.07455 30.947 11.4813 32.5646C13.9669 34.2612 17.5573 33.1959 19.4116 30.1974C21.7 26.5281 21.1871 21.1623 18.3464 18.2032C16.1764 15.9543 12.152 15.6386 10.1004 18.2821C9.82419 18.6766 9.19291 18.8344 8.91673 18.9528Z" fill="#E7448C"/>
<path d="M46.8327 29.9999C46.8327 31.3019 46.8327 32.2883 46.8327 33.2746C46.8327 36.5099 46.5171 36.9439 43.2029 37.2595C38.1527 37.733 34.0494 35.7603 31.2876 31.6964C28.2496 27.2381 28.2102 22.2274 31.3665 17.8479C35.6671 11.8114 43.0451 10.391 49.2789 14.9677C52.672 17.4534 54.1318 20.8859 54.1318 24.9892C54.1712 28.4217 54.1318 31.8543 54.1318 35.2868C54.1318 36.1154 54.2107 36.9044 52.9481 36.3126C52.7114 36.1943 52.3958 36.3126 52.1196 36.2732C48.9632 36.0759 48.1347 35.2079 48.1347 32.1699C48.1347 29.4475 48.2531 26.7252 48.0952 24.0423C47.9769 21.4777 47.1089 19.1104 44.8994 17.5717C41.9403 15.5201 39.3363 15.9541 37.0085 19.0315C34.2072 22.7797 34.5623 28.2639 37.6792 31.5386C40.4805 34.4188 44.3471 33.7875 46.8327 29.9999Z" fill="#E7448C"/>
<path d="M172.811 24.8712C172.969 31.4601 166.932 37.4177 160.265 37.3388C153.755 37.2994 147.757 31.4601 147.876 24.6739C147.955 18.2428 153.755 12.2063 160.659 12.3641C167.011 12.4825 172.969 18.2034 172.811 24.8712ZM166.853 25.2657C166.853 23.0563 166.419 21.3992 165.551 19.8605C163.263 15.7572 159.12 15.2048 156.398 18.1245C153.399 21.3203 153.005 25.8576 155.175 29.803C157.187 33.5117 160.975 34.4981 163.973 31.8941C166.025 30.1187 166.775 27.5936 166.853 25.2657Z" fill="#E7448C"/>
<path d="M214.002 34.0638C211.95 35.3658 210.056 36.5495 207.728 37.0624C204.138 37.8515 200.903 37.0229 198.102 35.0502C194.63 32.604 192.696 29.0925 192.815 24.7525C192.972 18.7949 196.484 14.2971 202.126 12.7978C206.703 11.5747 210.727 12.8373 213.726 16.5855C216.803 20.4915 215.856 25.7389 210.254 27.6722C207.255 28.698 204.217 28.9347 201.061 28.3824C199.877 28.1851 199.956 27.1987 199.838 26.528C199.404 24.5158 199.798 24.2791 201.771 24.358C203.388 24.3975 205.046 24.6342 206.703 24.1213C208.952 23.4505 210.175 22.2669 210.096 20.5704C209.977 18.5976 208.281 16.98 206.071 16.7827C203.467 16.5065 201.14 17.7296 199.995 20.0969C198.536 23.1349 198.338 26.1729 199.759 29.3687C201.613 33.5509 206.505 34.6951 209.977 31.8938C210.964 31.1047 211.358 31.302 211.99 32.0911C212.542 32.7224 213.292 33.3536 214.002 34.0638Z" fill="#E7448C"/>
<path d="M108.973 26.5677C108.973 30.158 108.894 33.7484 108.973 37.3782C109.171 45.0719 101.28 51.5819 93.9412 49.7275C93.1127 49.5302 92.2841 49.254 91.4556 48.9779C88.6543 48.0309 88.3387 46.5711 90.2325 44.2433C90.7849 43.612 91.0216 43.9671 91.495 44.3222C94.3752 46.216 97.2554 46.8868 99.9383 44.6379C101.911 43.0202 102.897 40.7319 102.937 38.2068C103.016 30.9077 102.976 23.6086 102.937 16.3095C102.937 15.047 103.055 14.179 104.515 13.9817C104.831 13.9422 105.067 13.666 105.383 13.5477C108.5 12.4824 108.934 12.798 108.934 15.9939C108.973 19.4659 108.973 23.0168 108.973 26.5677Z" fill="#E7448C"/>
<path d="M120.81 37.3386C117.18 37.3386 114.931 36.1549 112.801 34.6556C111.735 33.906 111.696 33.2747 112.603 32.4462C112.761 32.2884 112.801 32.0911 112.919 31.8938C113.669 30.5524 114.3 30.3551 115.563 31.6571C117.338 33.472 119.666 33.7876 122.112 32.9986C123.296 32.604 123.848 31.736 123.966 30.5524C124.045 29.4082 123.572 28.6191 122.546 27.9878C120.81 26.9226 118.719 26.6858 116.983 25.6995C116.036 25.1866 115.129 24.5553 114.3 23.8451C112.327 22.2275 111.893 20.0969 112.485 17.8875C113.116 15.5991 114.892 14.0604 117.259 13.3896C120.968 12.4033 124.124 13.5869 127.083 15.678C127.754 16.1515 127.991 16.6644 127.399 17.414C126.925 18.0058 126.57 18.6766 126.097 19.3078C125.545 20.0575 125.15 19.4262 124.795 19.0711C123.414 17.6507 121.757 16.98 119.784 17.0589C118.522 17.0984 117.614 17.8086 117.377 18.9527C117.141 20.018 117.93 20.6887 118.877 21.2016C121.126 22.4247 123.651 22.8982 125.86 24.3186C130.24 27.1593 129.569 33.3931 125.86 35.6026C124.006 36.7467 122.073 37.378 120.81 37.3386Z" fill="#E7448C"/>
<path d="M138.565 15.1649C138.565 18.0846 138.565 21.0437 138.565 23.9633C138.565 26.804 139.393 29.3291 141.642 31.2624C142.352 31.8542 143.062 32.3277 143.93 32.446C144.996 32.6038 145.311 33.0378 145.272 34.1426C145.193 36.7466 145.272 36.6282 142.707 36.3126C137.46 35.6418 132.489 29.8815 132.567 24.2789C132.646 18.7948 132.607 13.3106 132.607 7.82639C132.607 5.34076 132.962 4.74894 135.408 4.39385C138.841 3.88094 138.604 3.1313 138.604 6.95839C138.565 9.72021 138.565 12.4426 138.565 15.1649Z" fill="#E7448C"/>
<path d="M101.675 30.0393C101.675 31.3807 101.675 32.4855 101.675 33.5902C101.675 36.3915 101.359 36.9044 98.5971 37.22C92.2055 37.9697 86.7213 33.9453 85.4193 27.7904C84.5513 23.6477 85.222 19.426 85.0642 15.2438C85.0248 13.6657 86.524 13.9418 87.3131 13.6262C90.43 12.2453 91.0219 12.6793 91.0219 16.0329C91.0219 19.2287 90.943 22.464 91.0613 25.6598C91.1402 28.106 91.8899 30.5127 93.7442 32.1304C96.3088 34.3398 99.623 33.5113 100.885 30.9862C101.004 30.71 101.28 30.5127 101.675 30.0393Z" fill="#E7448C"/>
<path d="M175.494 29.5663C175.691 27.7119 175.375 25.463 175.77 23.2141C176.835 16.6646 184.016 11.575 190.842 13.3505C191.986 13.6661 192.223 13.9817 191.631 15.0865C190.921 16.3885 190.605 17.4932 188.514 17.1381C185.713 16.6647 183.148 18.8347 182.162 21.7937C181.728 23.0957 181.412 24.3977 181.451 25.7787C181.53 28.501 181.412 31.1839 181.491 33.9063C181.53 34.8927 181.215 35.445 180.268 35.7212C180.149 35.7606 180.071 35.8396 179.992 35.879C176.007 37.4572 175.494 37.1021 175.494 32.9199C175.494 31.9336 175.494 30.9472 175.494 29.5663Z" fill="#E7448C"/>
<path d="M142.589 18.3612C139.906 18.3612 140.064 18.3612 139.867 15.6783C139.709 13.6661 140.656 13.6266 142.155 13.6661C145.272 13.745 145.193 13.7055 145.272 16.783C145.311 17.9666 145.035 18.5584 143.773 18.3612C143.378 18.3217 142.984 18.3612 142.589 18.3612Z" fill="#E7448C"/>
<path d="M30.5773 53.988V54.8166H28.4862V56.1186H30.1038V56.9077H28.4862V59.0382H27.4998V54.0275H30.5773V53.988Z" fill="#1C2A54"/>
<path d="M37.3242 58.9988L36.2195 57.026H35.746V58.9988H34.7596V53.988H36.6535C37.048 53.988 37.3636 54.0669 37.6398 54.1853C37.916 54.3037 38.1133 54.5009 38.2711 54.7377C38.3895 54.9744 38.4684 55.2111 38.4684 55.5268C38.4684 55.8424 38.3895 56.158 38.1922 56.4342C37.9949 56.7104 37.7187 56.8682 37.3242 56.9866L38.5078 59.0382H37.3242V58.9988ZM35.746 56.2764H36.5746C36.8507 56.2764 37.048 56.1975 37.1664 56.0791C37.2847 55.9608 37.3636 55.7635 37.3636 55.5268C37.3636 55.29 37.2847 55.1322 37.1664 54.9744C37.048 54.856 36.8113 54.7771 36.5746 54.7771H35.746V56.2764Z" fill="#1C2A54"/>
<path d="M43.8339 58.7227C43.4393 58.486 43.1237 58.2098 42.8869 57.8153C42.6502 57.4207 42.5319 56.9867 42.5319 56.4738C42.5319 56.0004 42.6502 55.5269 42.8869 55.1718C43.1237 54.7773 43.4393 54.4616 43.8339 54.2644C44.2284 54.0276 44.6624 53.9487 45.1359 53.9487C45.6093 53.9487 46.0433 54.0671 46.4379 54.2644C46.8324 54.5011 47.148 54.7773 47.3453 55.1718C47.582 55.5664 47.7004 56.0004 47.7004 56.4738C47.7004 56.9867 47.582 57.4207 47.3453 57.8153C47.1086 58.2098 46.7929 58.5255 46.3984 58.7227C46.0039 58.9595 45.5699 59.0384 45.0964 59.0384C44.623 59.0384 44.2284 58.92 43.8339 58.7227ZM45.925 57.9336C46.1617 57.8153 46.3195 57.618 46.4773 57.3418C46.5957 57.1051 46.6746 56.7895 46.6746 56.4738C46.6746 56.1582 46.5957 55.8425 46.4773 55.6058C46.359 55.3691 46.1617 55.1718 45.925 55.014C45.6882 54.8956 45.412 54.8167 45.1359 54.8167C44.8202 54.8167 44.5835 54.8956 44.3468 55.014C44.11 55.1324 43.9522 55.3296 43.7944 55.6058C43.676 55.8425 43.5971 56.1582 43.5971 56.4738C43.5971 56.8289 43.676 57.1051 43.7944 57.3418C43.9128 57.5786 44.11 57.7758 44.3468 57.9336C44.5835 58.052 44.8597 58.1309 45.1359 58.1309C45.4515 58.1309 45.6882 58.052 45.925 57.9336Z" fill="#1C2A54"/>
<path d="M57.3669 53.988V58.9988H56.3806V55.724L55.0391 58.9988H54.2895L52.948 55.724V58.9988H51.9617V53.988H53.1059L54.684 57.7362L56.2622 53.988H57.3669Z" fill="#1C2A54"/>
<path d="M70.3868 53.988V54.8166H69.0454V59.0382H68.059V54.8166H66.6781V53.988H70.3868Z" fill="#1C2A54"/>
<path d="M75.5554 53.988V57.1049C75.5554 57.46 75.6343 57.6968 75.8316 57.894C75.9894 58.0913 76.2656 58.1702 76.5812 58.1702C76.8969 58.1702 77.173 58.0913 77.3308 57.894C77.4887 57.6968 77.607 57.46 77.607 57.1049V53.988H78.6329V57.0655C78.6329 57.4995 78.5539 57.8546 78.3567 58.1308C78.1594 58.4069 77.9227 58.6437 77.607 58.8015C77.2914 58.9593 76.9363 59.0382 76.5812 59.0382C76.2261 59.0382 75.871 58.9593 75.5554 58.8015C75.2398 58.6437 75.003 58.4464 74.8452 58.1308C74.6874 57.8546 74.569 57.46 74.569 57.0655V53.988H75.5554Z" fill="#1C2A54"/>
<path d="M88.4967 53.988V58.9988H87.5103V55.724L86.1689 58.9988H85.4192L84.0778 55.724V58.9988H83.0914V53.988H84.2356L85.8138 57.7362L87.392 53.988H88.4967Z" fill="#1C2A54"/>
<path d="M98.3997 53.988V58.9988H97.4133V55.724L96.0718 58.9988H95.3222L93.9807 55.724V58.9988H92.9944V53.988H94.1386L95.7168 57.7362L97.2949 53.988H98.3997Z" fill="#1C2A54"/>
<path d="M106.804 53.9882L105.107 57.2629V58.9989H104.121V57.2235L102.424 53.9487H103.568L104.634 56.2371L105.699 53.9487H106.804V53.9882Z" fill="#1C2A54"/>
<path d="M119.429 53.988V54.8166H118.088V59.0382H117.101V54.8166H115.76V53.988H119.429Z" fill="#1C2A54"/>
<path d="M124.637 58.7227C124.243 58.486 123.927 58.2098 123.69 57.8153C123.453 57.4207 123.335 56.9867 123.335 56.4738C123.335 56.0004 123.453 55.5269 123.69 55.1718C123.927 54.7773 124.243 54.4616 124.637 54.2644C125.032 54.0276 125.466 53.9487 125.939 53.9487C126.413 53.9487 126.847 54.0671 127.241 54.2644C127.636 54.5011 127.951 54.7773 128.149 55.1718C128.385 55.5664 128.504 56.0004 128.504 56.4738C128.504 56.9867 128.385 57.4207 128.149 57.8153C127.912 58.2098 127.596 58.5255 127.202 58.7227C126.807 58.9595 126.373 59.0384 125.9 59.0384C125.426 59.0384 125.032 58.92 124.637 58.7227ZM126.728 57.9336C126.965 57.8153 127.123 57.618 127.281 57.3418C127.399 57.1051 127.478 56.7895 127.478 56.4738C127.478 56.1582 127.399 55.8425 127.281 55.6058C127.162 55.3691 126.965 55.1718 126.728 55.014C126.491 54.8956 126.215 54.8167 125.939 54.8167C125.663 54.8167 125.387 54.8956 125.15 55.014C124.913 55.1324 124.755 55.3296 124.598 55.6058C124.44 55.882 124.4 56.1582 124.4 56.4738C124.4 56.8289 124.479 57.1051 124.598 57.3418C124.716 57.5786 124.913 57.7758 125.15 57.9336C125.387 58.052 125.663 58.1309 125.939 58.1309C126.215 58.1309 126.491 58.052 126.728 57.9336Z" fill="#1C2A54"/>
<path d="M141.247 53.988V54.8166H139.906V59.0382H138.919V54.8166H137.578V53.988H141.247Z" fill="#1C2A54"/>
<path d="M146.495 58.7227C146.1 58.486 145.785 58.2098 145.548 57.8153C145.311 57.4207 145.193 56.9867 145.193 56.4738C145.193 56.0004 145.311 55.5269 145.548 55.1718C145.785 54.7773 146.1 54.4616 146.495 54.2644C146.889 54.0276 147.323 53.9487 147.797 53.9487C148.27 53.9487 148.704 54.0671 149.099 54.2644C149.493 54.5011 149.809 54.7773 150.006 55.1718C150.243 55.5664 150.361 56.0004 150.361 56.4738C150.361 56.9867 150.243 57.4207 150.006 57.8153C149.769 58.2098 149.454 58.5255 149.059 58.7227C148.665 58.9595 148.231 59.0384 147.757 59.0384C147.284 59.0384 146.889 58.92 146.495 58.7227ZM148.586 57.9336C148.823 57.8153 148.98 57.618 149.138 57.3418C149.257 57.1051 149.335 56.7895 149.335 56.4738C149.335 56.1582 149.257 55.8425 149.138 55.6058C149.02 55.3691 148.823 55.1718 148.586 55.014C148.349 54.8956 148.073 54.8167 147.797 54.8167C147.481 54.8167 147.244 54.8956 147.008 55.014C146.771 55.1324 146.613 55.3296 146.455 55.6058C146.297 55.882 146.258 56.1582 146.258 56.4738C146.258 56.8289 146.337 57.1051 146.455 57.3418C146.574 57.5786 146.771 57.7758 147.008 57.9336C147.244 58.052 147.521 58.1309 147.797 58.1309C148.073 58.1309 148.349 58.052 148.586 57.9336Z" fill="#1C2A54"/>
<path d="M157.7 54.2644C158.094 54.4616 158.41 54.7773 158.607 55.1324C158.844 55.5269 158.923 55.9609 158.923 56.4738C158.923 56.9867 158.804 57.4207 158.607 57.7758C158.37 58.1704 158.094 58.4466 157.7 58.6438C157.305 58.8411 156.832 58.9595 156.319 58.9595H154.583V53.9487H156.319C156.832 53.9882 157.266 54.0671 157.7 54.2644ZM157.463 57.6969C157.739 57.4207 157.897 56.9867 157.897 56.4738C157.897 55.9609 157.739 55.5269 157.463 55.2507C157.187 54.9745 156.753 54.8167 156.24 54.8167H155.53V58.1309H156.24C156.792 58.1309 157.187 57.9731 157.463 57.6969Z" fill="#1C2A54"/>
<path d="M166.301 54.2644C166.696 54.4616 167.011 54.7773 167.209 55.1324C167.445 55.5269 167.524 55.9609 167.524 56.4738C167.524 56.9867 167.406 57.4207 167.209 57.7758C166.972 58.1704 166.696 58.4466 166.301 58.6438C165.907 58.8411 165.433 58.9595 164.92 58.9595H163.184V53.9487H164.92C165.433 53.9882 165.867 54.0671 166.301 54.2644ZM166.064 57.6969C166.341 57.4207 166.498 56.9867 166.498 56.4738C166.498 55.9609 166.341 55.5269 166.064 55.2507C165.788 54.9745 165.354 54.8167 164.841 54.8167H164.131V58.1309H164.841C165.394 58.1309 165.788 57.9731 166.064 57.6969Z" fill="#1C2A54"/>
<path d="M172.732 58.1704H174.389V58.9595H171.745V53.9487H172.732V58.1704Z" fill="#1C2A54"/>
<path d="M179.479 54.7771V56.0397H181.175V56.8288H179.479V58.1702H181.372V58.9988H178.453V53.988H181.372V54.8166H179.479V54.7771Z" fill="#1C2A54"/>
<path d="M188.356 58.9988L187.251 57.026H186.778V58.9988H185.792V53.988H187.685C188.08 53.988 188.396 54.0669 188.672 54.1853C188.948 54.3037 189.145 54.5009 189.303 54.7377C189.421 54.9744 189.5 55.2111 189.5 55.5268C189.5 55.8424 189.421 56.158 189.224 56.4342C189.027 56.7104 188.751 56.8682 188.356 56.9866L189.54 59.0382H188.356V58.9988ZM186.778 56.2764H187.606C187.883 56.2764 188.08 56.1975 188.198 56.0791C188.317 55.9608 188.396 55.7635 188.396 55.5268C188.396 55.29 188.317 55.1322 188.198 54.9744C188.08 54.856 187.843 54.7771 187.606 54.7771H186.778V56.2764Z" fill="#1C2A54"/>
</g>
<defs>
<clipPath id="clip0_5478_3192">
<rect width="217" height="59.1818" fill="white" transform="translate(0 0.40918)"/>
</clipPath>
</defs>
</svg>
