<svg width="225" height="68" viewBox="0 0 225 68" fill="none" xmlns="http://www.w3.org/2000/svg">
<rect y="0.503418" width="224.326" height="67.2356" rx="7.00371" fill="black"/>
<path d="M47.2678 35.5466C47.2899 33.8286 47.7463 32.144 48.5944 30.6497C49.4425 29.1554 50.6548 27.8999 52.1185 27C51.1887 25.672 49.962 24.5791 48.5359 23.8081C47.1097 23.0372 45.5235 22.6093 43.9031 22.5586C40.4465 22.1958 37.0956 24.627 35.3342 24.627C33.5387 24.627 30.8267 22.5947 27.9064 22.6547C26.0175 22.7158 24.1765 23.2651 22.563 24.2491C20.9495 25.2331 19.6183 26.6184 18.6993 28.2698C14.7184 35.1622 17.6878 45.2917 21.5012 50.863C23.4092 53.5911 25.639 56.6385 28.5567 56.5304C31.4118 56.412 32.4782 54.7098 35.9245 54.7098C39.3389 54.7098 40.3394 56.5304 43.3163 56.4617C46.38 56.412 48.3102 53.7215 50.1512 50.9676C51.5221 49.0237 52.5769 46.8753 53.2767 44.6019C51.4968 43.8491 49.9779 42.589 48.9093 40.9787C47.8408 39.3684 47.2699 37.4792 47.2678 35.5466Z" fill="white"/>
<path d="M41.645 18.8946C43.3154 16.8893 44.1384 14.3118 43.9391 11.7095C41.387 11.9775 39.0296 13.1972 37.3366 15.1256C36.5088 16.0677 35.8749 17.1637 35.4709 18.3509C35.067 19.5381 34.901 20.7933 34.9824 22.0447C36.2589 22.0579 37.5217 21.7812 38.6758 21.2355C39.8299 20.6899 40.8451 19.8895 41.645 18.8946Z" fill="white"/>
<path d="M84.5043 45.1695H75.8377L73.7565 51.1744H70.0857L78.2945 28.9578H82.1083L90.3172 51.1744H86.5838L84.5043 45.1695ZM76.7353 42.3986H83.605L80.2185 32.653H80.1237L76.7353 42.3986Z" fill="white"/>
<path d="M108.045 43.0767C108.045 48.1102 105.288 51.3441 101.128 51.3441C100.074 51.398 99.0254 51.1608 98.103 50.6596C97.1805 50.1584 96.4212 49.4135 95.9119 48.5102H95.8332V56.5331H92.4306V34.9769H95.7242V37.671H95.7867C96.3195 36.7721 97.0916 36.031 98.0211 35.5268C98.9505 35.0226 100.002 34.7739 101.065 34.8074C105.272 34.8074 108.045 38.0571 108.045 43.0767ZM104.548 43.0767C104.548 39.7973 102.814 37.6413 100.167 37.6413C97.5676 37.6413 95.8189 39.8427 95.8189 43.0767C95.8189 46.3403 97.5676 48.526 100.167 48.526C102.814 48.526 104.548 46.3857 104.548 43.0767Z" fill="white"/>
<path d="M126.29 43.0766C126.29 48.1102 123.533 51.3441 119.373 51.3441C118.319 51.398 117.27 51.1607 116.348 50.6596C115.426 50.1584 114.666 49.4135 114.157 48.5102H114.078V56.5331H110.676V34.9769H113.969V37.671H114.032C114.564 36.772 115.337 36.031 116.266 35.5268C117.195 35.0225 118.247 34.7739 119.31 34.8074C123.517 34.8074 126.29 38.0571 126.29 43.0766ZM122.793 43.0766C122.793 39.7973 121.059 37.6413 118.412 37.6413C115.813 37.6413 114.064 39.8427 114.064 43.0766C114.064 46.3403 115.813 48.526 118.412 48.526C121.059 48.526 122.793 46.3857 122.793 43.0766H122.793Z" fill="white"/>
<path d="M138.349 44.9844C138.601 47.1876 140.791 48.6341 143.785 48.6341C146.653 48.6341 148.716 47.1875 148.716 45.201C148.716 43.4765 147.471 42.444 144.525 41.7364L141.578 41.0428C137.403 40.0574 135.465 38.1495 135.465 35.0536C135.465 31.2203 138.884 28.5874 143.738 28.5874C148.542 28.5874 151.836 31.2203 151.947 35.0536H148.512C148.306 32.8364 146.431 31.4981 143.69 31.4981C140.949 31.4981 139.073 32.8522 139.073 34.823C139.073 36.3936 140.271 37.3179 143.202 38.0254L145.707 38.6264C150.372 39.7044 152.31 41.5354 152.31 44.7851C152.31 48.9415 148.921 51.5448 143.532 51.5448C138.49 51.5448 135.086 49.0027 134.866 44.9842L138.349 44.9844Z" fill="white"/>
<path d="M159.653 31.1436V34.9768H162.806V37.6097H159.653V46.5394C159.653 47.9266 160.284 48.573 161.67 48.573C162.044 48.5667 162.418 48.541 162.789 48.4961V51.1133C162.166 51.2271 161.533 51.2786 160.9 51.2671C157.543 51.2671 156.235 50.0353 156.235 46.894V37.6097H153.824V34.9768H156.235V31.1436H159.653Z" fill="white"/>
<path d="M164.631 43.0765C164.631 37.9801 167.703 34.7776 172.493 34.7776C177.299 34.7776 180.357 37.98 180.357 43.0765C180.357 48.1869 177.316 51.3754 172.493 51.3754C167.673 51.3754 164.631 48.1869 164.631 43.0765ZM176.89 43.0765C176.89 39.5805 175.25 37.5171 172.493 37.5171C169.736 37.5171 168.098 39.5962 168.098 43.0765C168.098 46.5865 169.736 48.6342 172.493 48.6342C175.25 48.6342 176.89 46.5865 176.89 43.0765H176.89Z" fill="white"/>
<path d="M183.162 34.9768H186.408V37.7337H186.486C186.706 36.8727 187.222 36.1117 187.948 35.5788C188.674 35.0458 189.566 34.7734 190.474 34.8073C190.866 34.8059 191.257 34.8475 191.639 34.9313V38.0412C191.144 37.8934 190.628 37.8255 190.111 37.8403C189.616 37.8207 189.123 37.9059 188.666 38.0899C188.209 38.274 187.797 38.5526 187.46 38.9067C187.124 39.2607 186.869 39.6818 186.715 40.141C186.56 40.6002 186.509 41.0866 186.565 41.5669V51.1745H183.162L183.162 34.9768Z" fill="white"/>
<path d="M207.327 46.417C206.87 49.3575 203.939 51.3754 200.19 51.3754C195.367 51.3754 192.374 48.2183 192.374 43.1534C192.374 38.0727 195.383 34.7776 200.047 34.7776C204.633 34.7776 207.517 37.856 207.517 42.7673V43.9064H195.809V44.1073C195.755 44.7034 195.831 45.304 196.033 45.869C196.235 46.4341 196.557 46.9507 196.979 47.3847C197.401 47.8186 197.912 48.1599 198.479 48.3859C199.046 48.6118 199.656 48.7173 200.268 48.6953C201.072 48.7689 201.879 48.5869 202.569 48.1765C203.259 47.766 203.795 47.1489 204.097 46.417L207.327 46.417ZM195.825 41.5827H204.113C204.143 41.0467 204.06 40.5103 203.868 40.0072C203.677 39.5041 203.381 39.0451 202.999 38.6591C202.617 38.2731 202.158 37.9684 201.65 37.764C201.142 37.5597 200.596 37.4601 200.047 37.4717C199.493 37.4684 198.943 37.5725 198.431 37.7778C197.918 37.983 197.452 38.2855 197.059 38.6677C196.667 39.0499 196.356 39.5043 196.144 40.0046C195.932 40.5049 195.824 41.0413 195.825 41.5827V41.5827Z" fill="white"/>
<path d="M76.3088 12.2355C77.0222 12.1855 77.738 12.2908 78.4047 12.5438C79.0714 12.7969 79.6723 13.1913 80.164 13.6987C80.6558 14.2062 81.0262 14.8139 81.2484 15.4781C81.4707 16.1424 81.5394 16.8465 81.4494 17.5398C81.4494 20.9502 79.5631 22.9106 76.3088 22.9106H72.3627V12.2355H76.3088ZM74.0595 21.4009H76.1193C76.6291 21.4307 77.1392 21.349 77.6125 21.1619C78.0859 20.9747 78.5106 20.6867 78.8557 20.319C79.2009 19.9512 79.4577 19.5129 79.6076 19.0359C79.7575 18.5589 79.7966 18.0552 79.7222 17.5616C79.7912 17.0699 79.7481 16.5693 79.5959 16.0958C79.4437 15.6223 79.1863 15.1876 78.8419 14.8227C78.4976 14.4579 78.0749 14.172 77.6042 13.9855C77.1335 13.799 76.6264 13.7166 76.1193 13.7441H74.0595V21.4009Z" fill="white"/>
<path d="M83.3662 18.8789C83.3143 18.3495 83.3763 17.8153 83.5481 17.3107C83.72 16.8061 83.9978 16.3421 84.3639 15.9485C84.73 15.555 85.1762 15.2405 85.6739 15.0253C86.1717 14.8101 86.71 14.699 87.2542 14.699C87.7985 14.699 88.3368 14.8101 88.8345 15.0253C89.3323 15.2405 89.7785 15.555 90.1446 15.9485C90.5107 16.3421 90.7885 16.8061 90.9603 17.3107C91.1322 17.8153 91.1941 18.3495 91.1423 18.8789C91.1951 19.4089 91.1339 19.9438 90.9625 20.4492C90.7912 20.9547 90.5135 21.4195 90.1473 21.8139C89.7811 22.2082 89.3346 22.5233 88.8363 22.739C88.3381 22.9546 87.7992 23.066 87.2542 23.066C86.7093 23.066 86.1704 22.9546 85.6722 22.739C85.1739 22.5233 84.7274 22.2082 84.3612 21.8139C83.995 21.4195 83.7173 20.9547 83.546 20.4492C83.3746 19.9438 83.3134 19.4089 83.3662 18.8789ZM89.4687 18.8789C89.4687 17.1327 88.6659 16.1115 87.2569 16.1115C85.8426 16.1115 85.047 17.1327 85.047 18.8789C85.047 20.6392 85.8427 21.6525 87.2569 21.6525C88.6659 21.6525 89.4687 20.6322 89.4687 18.8789H89.4687Z" fill="white"/>
<path d="M101.479 22.9103H99.7911L98.0871 16.977H97.9583L96.2615 22.9103H94.5897L92.3171 14.8542H93.9675L95.4444 21.0015H95.566L97.261 14.8542H98.822L100.517 21.0015H100.646L102.115 14.8542H103.743L101.479 22.9103Z" fill="white"/>
<path d="M105.654 14.8541H107.22V16.1339H107.342C107.548 15.6742 107.896 15.2889 108.337 15.0316C108.778 14.7744 109.29 14.6579 109.802 14.6986C110.203 14.6691 110.606 14.7282 110.981 14.8715C111.355 15.0148 111.692 15.2387 111.966 15.5264C112.24 15.8142 112.445 16.1585 112.564 16.5339C112.683 16.9093 112.715 17.3061 112.656 17.6949V22.9101H111.029V18.0942C111.029 16.7996 110.453 16.1557 109.25 16.1557C108.977 16.1433 108.705 16.1886 108.453 16.2885C108.2 16.3884 107.972 16.5405 107.785 16.7344C107.598 16.9283 107.456 17.1594 107.369 17.4119C107.282 17.6644 107.252 17.9323 107.281 18.1973V22.9102H105.654L105.654 14.8541Z" fill="white"/>
<path d="M115.249 11.7095H116.876V22.9104H115.249V11.7095Z" fill="white"/>
<path d="M119.137 18.8788C119.086 18.3494 119.148 17.8152 119.32 17.3105C119.491 16.8059 119.769 16.3419 120.135 15.9483C120.502 15.5547 120.948 15.2403 121.446 15.0251C121.943 14.8099 122.482 14.6987 123.026 14.6987C123.57 14.6987 124.109 14.8099 124.606 15.0251C125.104 15.2403 125.55 15.5547 125.917 15.9483C126.283 16.3419 126.561 16.8059 126.732 17.3105C126.904 17.8152 126.966 18.3494 126.914 18.8788C126.967 19.4088 126.906 19.9437 126.735 20.4492C126.563 20.9546 126.285 21.4194 125.919 21.8138C125.553 22.2081 125.106 22.5232 124.608 22.7388C124.11 22.9545 123.571 23.0659 123.026 23.0659C122.481 23.0659 121.942 22.9545 121.444 22.7388C120.946 22.5232 120.499 22.2081 120.133 21.8138C119.767 21.4194 119.489 20.9546 119.317 20.4492C119.146 19.9437 119.085 19.4088 119.137 18.8788ZM125.24 18.8788C125.24 17.1326 124.437 16.1114 123.028 16.1114C121.614 16.1114 120.818 17.1326 120.818 18.8788C120.818 20.6391 121.614 21.6524 123.028 21.6524C124.437 21.6524 125.24 20.6321 125.24 18.8788H125.24Z" fill="white"/>
<path d="M128.627 20.632C128.627 19.1819 129.732 18.3459 131.694 18.2271L133.927 18.1013V17.4059C133.927 16.5551 133.351 16.0746 132.239 16.0746C131.331 16.0746 130.702 16.4004 130.521 16.97H128.946C129.112 15.5863 130.444 14.6987 132.314 14.6987C134.381 14.6987 135.547 15.7042 135.547 17.4059V22.9103H133.981V21.7781H133.852C133.591 22.1842 133.224 22.5153 132.789 22.7375C132.354 22.9598 131.866 23.0652 131.376 23.043C131.03 23.0782 130.68 23.0421 130.349 22.9371C130.018 22.8321 129.713 22.6605 129.454 22.4333C129.195 22.2061 128.988 21.9285 128.845 21.6182C128.703 21.308 128.629 20.972 128.627 20.632ZM133.927 19.9436V19.2701L131.914 19.3959C130.778 19.4701 130.263 19.8475 130.263 20.5577C130.263 21.2828 130.907 21.7047 131.792 21.7047C132.052 21.7304 132.314 21.7048 132.563 21.6295C132.812 21.5542 133.043 21.4307 133.242 21.2664C133.441 21.1021 133.604 20.9003 133.722 20.6731C133.84 20.4458 133.91 20.1978 133.927 19.9436Z" fill="white"/>
<path d="M137.686 18.8789C137.686 16.3333 139.025 14.7207 141.108 14.7207C141.623 14.6975 142.134 14.8181 142.582 15.0684C143.03 15.3186 143.395 15.6883 143.636 16.1341H143.758V11.7095H145.385V22.9104H143.826V21.6376H143.697C143.438 22.0804 143.059 22.4454 142.603 22.6931C142.147 22.9409 141.63 23.0619 141.108 23.0431C139.011 23.0432 137.686 21.4306 137.686 18.8789ZM139.366 18.8789C139.366 20.5876 140.191 21.6158 141.569 21.6158C142.941 21.6158 143.788 20.5728 143.788 18.8859C143.788 17.2069 142.932 16.149 141.569 16.149C140.2 16.149 139.366 17.1842 139.366 18.8789H139.366Z" fill="white"/>
<path d="M152.117 18.8789C152.065 18.3495 152.127 17.8153 152.299 17.3107C152.471 16.8061 152.748 16.3421 153.115 15.9485C153.481 15.555 153.927 15.2405 154.425 15.0253C154.922 14.8101 155.461 14.699 156.005 14.699C156.549 14.699 157.087 14.8101 157.585 15.0253C158.083 15.2405 158.529 15.555 158.895 15.9485C159.261 16.3421 159.539 16.8061 159.711 17.3107C159.883 17.8153 159.945 18.3495 159.893 18.8789C159.946 19.4089 159.884 19.9438 159.713 20.4492C159.542 20.9547 159.264 21.4195 158.898 21.8139C158.532 22.2082 158.085 22.5233 157.587 22.739C157.089 22.9546 156.55 23.066 156.005 23.066C155.46 23.066 154.921 22.9546 154.423 22.739C153.925 22.5233 153.478 22.2082 153.112 21.8139C152.746 21.4195 152.468 20.9547 152.297 20.4492C152.125 19.9438 152.064 19.4089 152.117 18.8789ZM158.219 18.8789C158.219 17.1327 157.416 16.1115 156.008 16.1115C154.593 16.1115 153.798 17.1327 153.798 18.8789C153.798 20.6392 154.593 21.6525 156.008 21.6525C157.416 21.6525 158.219 20.6322 158.219 18.8789Z" fill="white"/>
<path d="M162.076 14.8541H163.642V16.1339H163.764C163.97 15.6742 164.318 15.2889 164.759 15.0316C165.2 14.7744 165.712 14.6579 166.224 14.6986C166.625 14.6691 167.028 14.7282 167.403 14.8715C167.777 15.0148 168.114 15.2387 168.388 15.5264C168.662 15.8142 168.867 16.1585 168.986 16.5339C169.105 16.9093 169.137 17.3061 169.078 17.6949V22.9101H167.451V18.0942C167.451 16.7996 166.875 16.1557 165.672 16.1557C165.399 16.1433 165.128 16.1886 164.875 16.2885C164.622 16.3884 164.394 16.5405 164.207 16.7344C164.02 16.9283 163.878 17.1594 163.791 17.4119C163.704 17.6644 163.674 17.9323 163.703 18.1973V22.9102H162.076V14.8541Z" fill="white"/>
<path d="M178.272 12.8484V14.8908H180.058V16.23H178.272V20.3725C178.272 21.2163 178.628 21.5858 179.438 21.5858C179.645 21.5852 179.852 21.5729 180.058 21.5491V22.8735C179.766 22.9245 179.47 22.9517 179.173 22.9547C177.364 22.9547 176.643 22.3327 176.643 20.7795V16.2299H175.334V14.8907H176.643V12.8484H178.272Z" fill="white"/>
<path d="M182.281 11.7095H183.894V16.149H184.022C184.239 15.685 184.596 15.2975 185.046 15.0393C185.496 14.781 186.016 14.6646 186.536 14.7058C186.935 14.6846 187.334 14.7497 187.705 14.8965C188.075 15.0433 188.408 15.2681 188.679 15.555C188.95 15.8418 189.153 16.1836 189.274 16.556C189.394 16.9284 189.429 17.3221 189.376 17.7092V22.9104H187.747V18.1014C187.747 16.8146 187.133 16.1629 185.984 16.1629C185.704 16.1405 185.423 16.1781 185.16 16.273C184.896 16.3679 184.658 16.5179 184.46 16.7124C184.262 16.907 184.11 17.1414 184.015 17.3992C183.92 17.6571 183.883 17.9322 183.908 18.2053V22.9104H182.281L182.281 11.7095Z" fill="white"/>
<path d="M198.863 20.735C198.642 21.4713 198.163 22.1081 197.51 22.5342C196.857 22.9603 196.071 23.1484 195.29 23.0657C194.747 23.0797 194.207 22.978 193.709 22.7677C193.21 22.5575 192.764 22.2436 192.401 21.848C192.039 21.4524 191.769 20.9844 191.61 20.4767C191.451 19.9689 191.408 19.4334 191.482 18.9075C191.41 18.3799 191.454 17.8433 191.612 17.334C191.771 16.8247 192.039 16.3546 192.4 15.9555C192.76 15.5564 193.204 15.2377 193.702 15.0208C194.199 14.804 194.739 14.6941 195.283 14.6986C197.577 14.6986 198.961 16.2301 198.961 18.7598V19.3146H193.139V19.4037C193.114 19.6993 193.152 19.9969 193.251 20.2773C193.35 20.5578 193.508 20.8149 193.715 21.0322C193.922 21.2495 194.173 21.4221 194.452 21.5391C194.731 21.6561 195.032 21.7149 195.335 21.7116C195.724 21.7572 196.119 21.6888 196.468 21.5148C196.817 21.3409 197.106 21.0695 197.297 20.7349L198.863 20.735ZM193.139 18.1387H197.304C197.324 17.8684 197.287 17.5968 197.193 17.3414C197.1 17.0861 196.953 16.8527 196.762 16.6561C196.571 16.4596 196.34 16.3043 196.084 16.2002C195.827 16.0961 195.552 16.0456 195.274 16.0518C194.993 16.0483 194.714 16.1 194.453 16.2036C194.192 16.3073 193.955 16.4609 193.757 16.6554C193.558 16.8499 193.4 17.0813 193.294 17.3361C193.189 17.5909 193.136 17.8638 193.139 18.1387H193.139Z" fill="white"/>
</svg>
