<svg width="231" height="68" viewBox="0 0 231 68" fill="none" xmlns="http://www.w3.org/2000/svg">
<rect x="0.333374" y="0.503418" width="230.184" height="67.2356" rx="7.00371" fill="black"/>
<path d="M35.8684 33.1159L17.3134 52.809C17.3152 52.8124 17.3152 52.8177 17.3169 52.8212C17.8868 54.9595 19.8387 56.5332 22.1565 56.5332C23.0837 56.5332 23.9533 56.2822 24.6992 55.8431L24.7584 55.8082L45.6435 43.7571L35.8684 33.1159Z" fill="#EA4335"/>
<path d="M54.6394 29.7624L54.622 29.7502L45.605 24.5237L35.4465 33.5633L45.6416 43.7549L54.6098 38.5807C56.1817 37.7302 57.25 36.0729 57.25 34.1628C57.25 32.2632 56.1974 30.6146 54.6394 29.7624Z" fill="#FBBC04"/>
<path d="M17.3131 15.4321C17.2015 15.8434 17.1423 16.2756 17.1423 16.7218V51.5209C17.1423 51.9671 17.2015 52.3993 17.3148 52.8088L36.5059 33.6195L17.3131 15.4321Z" fill="#4285F4"/>
<path d="M36.0055 34.1211L45.608 24.5203L24.7473 12.4256C23.9892 11.9708 23.1039 11.7094 22.1576 11.7094C19.8398 11.7094 17.8844 13.2866 17.3145 15.4266C17.3145 15.4284 17.3128 15.4301 17.3128 15.4319L36.0055 34.1211Z" fill="#34A853"/>
<path d="M84.5627 17.2739C84.5627 18.6543 84.1542 19.753 83.3355 20.5734C82.4048 21.5485 81.194 22.0361 79.7049 22.0361C78.2767 22.0361 77.0643 21.5419 76.0677 20.5519C75.0678 19.5636 74.5703 18.3363 74.5703 16.8736C74.5703 15.4091 75.0678 14.1836 76.0677 13.1935C77.0643 12.2052 78.2767 11.7094 79.7049 11.7094C80.4116 11.7094 81.0903 11.8477 81.7327 12.1245C82.3768 12.4012 82.8924 12.7686 83.2795 13.2281L82.4097 14.0979C81.7558 13.3171 80.8547 12.925 79.7049 12.925C78.6638 12.925 77.7644 13.2907 77.005 14.0221C76.2456 14.7552 75.8668 15.704 75.8668 16.8736C75.8668 18.0415 76.2456 18.992 77.005 19.7234C77.7644 20.4564 78.6638 20.8204 79.7049 20.8204C80.8086 20.8204 81.7278 20.4531 82.4657 19.7168C82.9435 19.2374 83.2185 18.5719 83.2927 17.7153H79.7049V16.5276H84.4935C84.5397 16.7863 84.5627 17.035 84.5627 17.2739Z" fill="white"/>
<path d="M84.5627 17.2739C84.5627 18.6543 84.1542 19.753 83.3355 20.5734C82.4048 21.5485 81.194 22.0361 79.7049 22.0361C78.2767 22.0361 77.0643 21.5419 76.0677 20.5519C75.0678 19.5636 74.5703 18.3363 74.5703 16.8736C74.5703 15.4091 75.0678 14.1836 76.0677 13.1935C77.0643 12.2052 78.2767 11.7094 79.7049 11.7094C80.4116 11.7094 81.0903 11.8477 81.7327 12.1245C82.3768 12.4012 82.8924 12.7686 83.2795 13.2281L82.4097 14.0979C81.7558 13.3171 80.8547 12.925 79.7049 12.925C78.6638 12.925 77.7644 13.2907 77.005 14.0221C76.2456 14.7552 75.8668 15.704 75.8668 16.8736C75.8668 18.0415 76.2456 18.992 77.005 19.7234C77.7644 20.4564 78.6638 20.8204 79.7049 20.8204C80.8086 20.8204 81.7278 20.4531 82.4657 19.7168C82.9435 19.2374 83.2185 18.5719 83.2927 17.7153H79.7049V16.5276H84.4935C84.5397 16.7863 84.5627 17.035 84.5627 17.2739Z" fill="white"/>
<path d="M92.1556 13.1458H87.6552V16.2789H91.7141V17.4666H87.6552V20.5997H92.1556V21.8154H86.3852V11.9318H92.1556V13.1458Z" fill="white"/>
<path d="M92.1556 13.1458H87.6552V16.2789H91.7141V17.4666H87.6552V20.5997H92.1556V21.8154H86.3852V11.9318H92.1556V13.1458Z" fill="white"/>
<path d="M97.5109 21.8152H96.2408V13.1456H93.48V11.9315H100.272V13.1456H97.5109V21.8152Z" fill="white"/>
<path d="M97.5109 21.8152H96.2408V13.1456H93.48V11.9315H100.272V13.1456H97.5109V21.8152Z" fill="white"/>
<path d="M105.186 11.9315H106.456V21.8152H105.186V11.9315Z" fill="white"/>
<path d="M112.089 21.8152H110.819V13.1456H108.058V11.9315H114.849V13.1456H112.089V21.8152Z" fill="white"/>
<path d="M112.089 21.8152H110.819V13.1456H108.058V11.9315H114.849V13.1456H112.089V21.8152Z" fill="white"/>
<path d="M121.397 19.7102C122.129 20.4515 123.023 20.8204 124.082 20.8204C125.141 20.8204 126.036 20.4515 126.767 19.7102C127.499 18.9689 127.866 18.0234 127.866 16.8736C127.866 15.7238 127.499 14.7766 126.767 14.037C126.036 13.2957 125.141 12.925 124.082 12.925C123.023 12.925 122.129 13.2957 121.397 14.037C120.667 14.7766 120.3 15.7238 120.3 16.8736C120.3 18.0234 120.667 18.9689 121.397 19.7102ZM127.706 20.5371C126.734 21.537 125.527 22.0361 124.082 22.0361C122.638 22.0361 121.43 21.537 120.46 20.5371C119.488 19.5389 119.004 18.3182 119.004 16.8736C119.004 15.4289 119.488 14.2066 120.46 13.2084C121.43 12.2101 122.638 11.7094 124.082 11.7094C125.519 11.7094 126.723 12.2118 127.7 13.215C128.675 14.2182 129.162 15.4371 129.162 16.8736C129.162 18.3182 128.677 19.5389 127.706 20.5371Z" fill="white"/>
<path d="M121.397 19.7102C122.129 20.4515 123.023 20.8204 124.082 20.8204C125.141 20.8204 126.036 20.4515 126.767 19.7102C127.499 18.9689 127.866 18.0234 127.866 16.8736C127.866 15.7238 127.499 14.7766 126.767 14.037C126.036 13.2957 125.141 12.925 124.082 12.925C123.023 12.925 122.129 13.2957 121.397 14.037C120.667 14.7766 120.3 15.7238 120.3 16.8736C120.3 18.0234 120.667 18.9689 121.397 19.7102ZM127.706 20.5371C126.734 21.537 125.527 22.0361 124.082 22.0361C122.638 22.0361 121.43 21.537 120.46 20.5371C119.488 19.5389 119.004 18.3182 119.004 16.8736C119.004 15.4289 119.488 14.2066 120.46 13.2084C121.43 12.2101 122.638 11.7094 124.082 11.7094C125.519 11.7094 126.723 12.2118 127.7 13.215C128.675 14.2182 129.162 15.4371 129.162 16.8736C129.162 18.3182 128.677 19.5389 127.706 20.5371Z" fill="white"/>
<path d="M130.945 21.8152V11.9315H132.49L137.293 19.6194H137.349L137.293 17.7151V11.9315H138.565V21.8152H137.239L132.213 13.7534H132.159L132.213 15.6593V21.8152H130.945Z" fill="white"/>
<path d="M130.945 21.8152V11.9315H132.49L137.293 19.6194H137.349L137.293 17.7151V11.9315H138.565V21.8152H137.239L132.213 13.7534H132.159L132.213 15.6593V21.8152H130.945Z" fill="white"/>
<path d="M182.605 49.8189H185.678V29.2263H182.605V49.8189ZM210.29 36.644L206.767 45.5722H206.661L203.005 36.644H199.693L205.177 49.1221L202.052 56.0637H205.256L213.708 36.644H210.29ZM192.859 47.4798C191.851 47.4798 190.447 46.9773 190.447 45.7304C190.447 44.1424 192.195 43.5329 193.706 43.5329C195.056 43.5329 195.694 43.8245 196.514 44.2215C196.275 46.129 194.633 47.4798 192.859 47.4798ZM193.23 36.1943C191.004 36.1943 188.698 37.1744 187.746 39.3472L190.474 40.4854C191.057 39.3472 192.142 38.9749 193.282 38.9749C194.872 38.9749 196.488 39.9286 196.514 41.6253V41.8362C195.957 41.5183 194.766 41.0422 193.309 41.0422C190.368 41.0422 187.373 42.6582 187.373 45.6776C187.373 48.4335 189.785 50.2093 192.487 50.2093C194.554 50.2093 195.694 49.2819 196.409 48.1947H196.514V49.7843H199.481V41.8889C199.481 38.2336 196.753 36.1943 193.23 36.1943ZM174.233 39.1511H169.861V32.0926H174.233C176.531 32.0926 177.836 33.9952 177.836 35.621C177.836 37.2172 176.531 39.1511 174.233 39.1511ZM174.154 29.2263H166.789V49.8189H169.861V42.0174H174.154C177.561 42.0174 180.91 39.5498 180.91 35.621C180.91 31.6923 177.561 29.2263 174.154 29.2263ZM133.992 47.4831C131.868 47.4831 130.091 45.7056 130.091 43.2644C130.091 40.7968 131.868 38.9913 133.992 38.9913C136.089 38.9913 137.733 40.7968 137.733 43.2644C137.733 45.7056 136.089 47.4831 133.992 47.4831ZM137.522 37.7971H137.415C136.725 36.9751 135.399 36.2322 133.727 36.2322C130.223 36.2322 127.012 39.3093 127.012 43.2644C127.012 47.1915 130.223 50.2439 133.727 50.2439C135.399 50.2439 136.725 49.501 137.415 48.651H137.522V49.6608C137.522 52.3409 136.089 53.774 133.779 53.774C131.895 53.774 130.727 52.42 130.249 51.2784L127.569 52.3936C128.338 54.2517 130.383 56.5332 133.779 56.5332C137.388 56.5332 140.441 54.4099 140.441 49.2358V36.6555H137.522V37.7971ZM142.564 49.8189H145.643V29.2246H142.564V49.8189ZM150.18 43.0255C150.101 40.3191 152.277 38.9386 153.841 38.9386C155.064 38.9386 156.098 39.5481 156.443 40.4245L150.18 43.0255ZM159.734 40.6897C159.151 39.1248 157.372 36.2322 153.736 36.2322C150.127 36.2322 147.129 39.0704 147.129 43.238C147.129 47.1651 150.101 50.2439 154.08 50.2439C157.293 50.2439 159.151 48.2803 159.92 47.1388L157.531 45.5459C156.736 46.7138 155.647 47.4831 154.08 47.4831C152.515 47.4831 151.4 46.7665 150.684 45.3614L160.052 41.4853L159.734 40.6897ZM85.099 38.3819V41.3535H92.2103C91.9978 43.0255 91.441 44.2462 90.5926 45.0945C89.5565 46.1306 87.9372 47.2722 85.099 47.2722C80.7189 47.2722 77.2958 43.7421 77.2958 39.3636C77.2958 34.9835 80.7189 31.4551 85.099 31.4551C87.4612 31.4551 89.1859 32.3841 90.4592 33.5784L92.5562 31.4814C90.7771 29.7831 88.4166 28.4817 85.099 28.4817C79.1012 28.4817 74.0589 33.3659 74.0589 39.3636C74.0589 45.3614 79.1012 50.2439 85.099 50.2439C88.3359 50.2439 90.7771 49.1814 92.688 47.1915C94.6532 45.2279 95.2627 42.4688 95.2627 40.2383C95.2627 39.5481 95.21 38.9123 95.1029 38.3819H85.099ZM103.349 47.4831C101.226 47.4831 99.394 45.732 99.394 43.238C99.394 40.716 101.226 38.9913 103.349 38.9913C105.471 38.9913 107.303 40.716 107.303 43.238C107.303 45.732 105.471 47.4831 103.349 47.4831ZM103.349 36.2322C99.4731 36.2322 96.3153 39.1775 96.3153 43.238C96.3153 47.2722 99.4731 50.2439 103.349 50.2439C107.224 50.2439 110.381 47.2722 110.381 43.238C110.381 39.1775 107.224 36.2322 103.349 36.2322ZM118.69 47.4831C116.567 47.4831 114.735 45.732 114.735 43.238C114.735 40.716 116.567 38.9913 118.69 38.9913C120.814 38.9913 122.644 40.716 122.644 43.238C122.644 45.732 120.814 47.4831 118.69 47.4831ZM118.69 36.2322C114.816 36.2322 111.658 39.1775 111.658 43.238C111.658 47.2722 114.816 50.2439 118.69 50.2439C122.565 50.2439 125.722 47.2722 125.722 43.238C125.722 39.1775 122.565 36.2322 118.69 36.2322Z" fill="white"/>
</svg>
